<?xml version="1.0" standalone="no"?>
<!DOCTYPE svg PUBLIC "-//W3C//DTD SVG 1.1//EN" "http://www.w3.org/Graphics/SVG/1.1/DTD/svg11.dtd" >
<svg xmlns="http://www.w3.org/2000/svg" xmlns:xlink="http://www.w3.org/1999/xlink" version="1.1">
<metadata></metadata>
<defs>
<font id="brannboll_f_personal_use_onRg" horiz-adv-x="643" >
<font-face units-per-em="2048" ascent="1536" descent="-512" />
<missing-glyph horiz-adv-x="682" />
<glyph unicode="&#xfb01;" horiz-adv-x="790" d="M-142 -350q3 25 7 49.5t8 47.5l25 133q30 149 63.5 295.5t68.5 295.5q41 164 86 328q23 81 46.5 160t50.5 156q25 68 60.5 131t89.5 111q25 20 55 36t64 13q35 -3 53 -28t21 -58q3 -38 -3.5 -77t-14.5 -76q-11 -40 -22.5 -78t-25.5 -76q-23 -67 -50.5 -131t-61.5 -127 l-76 -142t-66 -147q-4 -14 -8.5 -26.5t-7.5 -27.5l-18 -79l-37 -164q44 48 94.5 89t109.5 68l8 33q16 74 37.5 145t45.5 140q8 23 17 46t30 38q23 19 51.5 21t54.5 -13q25 -15 38 -41t8 -55q-3 -19 -11 -36t-14 -33q-33 -76 -62.5 -153t-52.5 -154q-11 -38 -20.5 -77.5 t-12.5 -78.5q0 -5 -1.5 -17.5t0 -25t5 -21.5t12.5 -7q12 -1 26.5 8.5t25.5 15.5q15 11 29 23t27 25q31 29 58 60.5t54 62.5l45 57q7 8 12.5 16.5t12.5 15.5q11 11 25 2.5t10 -23.5q-3 -11 -8 -20.5t-9 -17.5q-34 -68 -77 -134q-20 -34 -43.5 -66t-50.5 -61 q-23 -26 -52 -48.5t-64 -28.5q-27 -7 -57 -2.5t-54 22.5q-29 22 -42.5 54.5t-18.5 67.5q-8 51 -4.5 101.5t11.5 101.5q-37 -27 -73 -67q-52 -59 -91.5 -126.5t-69.5 -141.5q-11 -26 -21 -52.5t-17 -54.5q-3 -14 -6.5 -27.5t-7.5 -27.5q-7 -27 -13 -53t-13 -54 q-3 -18 -7 -35.5t-13 -32.5q-15 -26 -42.5 -37t-55.5 -4q-3 0 -7 1.5t-7 2.5q-27 11 -43 36.5t-13 53.5zM311 827q45 57 78.5 120t61.5 130q12 30 22 61t19 62q8 34 8 71q0 3 -1 12.5t-3 19.5t-5.5 17.5t-8.5 7.5v-2q0 -1 1 -3q-14 -5 -22 -20t-15 -28q-8 -15 -14 -31.5 t-13 -32.5l-20 -59q-15 -41 -26.5 -81t-22.5 -82q-11 -40 -20 -81t-19 -81zM597 1046q0 25 9.5 46.5t26 38t38 26t46.5 9.5q49 0 84.5 -35.5t35.5 -84.5q0 -25 -9.5 -46.5t-26 -38t-38 -26t-46.5 -9.5t-46.5 9.5t-38 26t-26 38t-9.5 46.5z" />
<glyph horiz-adv-x="0" />
<glyph horiz-adv-x="0" />
<glyph unicode="&#xd;" horiz-adv-x="682" />
<glyph unicode=" "  horiz-adv-x="682" />
<glyph unicode="&#x09;" horiz-adv-x="682" />
<glyph unicode="&#xa0;" horiz-adv-x="682" />
<glyph unicode="!" horiz-adv-x="462" d="M-26 -61q0 35 23 59t58 24t59 -24t24 -59q0 -34 -24 -57.5t-59 -23.5q-34 0 -57.5 23.5t-23.5 57.5zM120 309l202 1086q5 27 29 43t52 11q27 -7 42.5 -30.5t10.5 -50.5q-1 -1 -1 -4l-291 -1065q-7 -20 -27 -16q-19 4 -17 26z" />
<glyph unicode="&#x22;" horiz-adv-x="460" d="M37 567q-8 4 5 25t33.5 54.5t40.5 77.5t27 95q-15 5 -28 18.5t-21 31.5t-8.5 39.5t7.5 44.5q12 30 38 46.5t54.5 15t54 -21.5t34.5 -62q7 -29 -5 -67.5t-35.5 -81t-52.5 -83.5t-58 -71.5t-53 -48.5t-33 -12zM265 569q-8 4 5 25.5t33.5 55t40.5 77.5t27 95q-15 5 -28 18 t-21 31.5t-8.5 40t7.5 44.5q12 30 38 46.5t54.5 15t54 -21.5t34.5 -62q7 -29 -5 -68t-35.5 -81t-52.5 -83t-58 -72t-53 -48.5t-33 -12.5z" />
<glyph unicode="#" horiz-adv-x="647" d="M-5 268q-3 23 23 40.5t63 19.5h5l41 -2l18 90h-3q-38 -1 -64.5 15.5t-28.5 40.5q-3 23 23 41t63 19h6l24 -1l18 90q5 27 29 43t52 10q27 -7 42.5 -30t10.5 -50q-1 -1 -2 -4l-23 -63l104 -3l19 97q5 27 29 43t52 10q27 -7 42.5 -30t10.5 -50q-1 -1 -2 -4l-25 -70l35 -1 q29 -1 48 -14t19 -31q-1 -19 -20.5 -31t-46.5 -13l-68 -3l-41 -112l54 -1q29 -1 48 -14t19 -31q-1 -19 -20 -30.5t-47 -13.5l-88 -2l-56 -153q-7 -20 -28 -17q-19 4 -16 26l26 141l-161 -6l-53 -144q-7 -20 -28 -17q-19 4 -16 26l24 133h-19q-38 -1 -64.5 15t-27.5 41z M218 324l140 -6l20 105l-125 -4z" />
<glyph unicode="$" horiz-adv-x="1003" d="M-7.5 1098.5q-0.5 78.5 34.5 148.5q15 27 36.5 49t53.5 24q30 3 56 -12t40 -42q14 -30 6.5 -55.5t-22.5 -52.5q-37 -68 -21 -145q15 -76 72.5 -129t129.5 -72q-31 116 -3 231q22 83 70.5 154t122.5 118q27 18 58.5 30t64.5 19q3 12 5 25t4 25l33 159l6 33q8 35 39.5 55.5 t66.5 8.5q31 -10 46.5 -39t8.5 -60q-15 -55 -29 -108t-27 -106l12 -4q76 -30 113 -97.5t36 -145.5q0 -64 -27.5 -117.5t-71.5 -95t-100 -71.5t-114 -50l-12 -50l-12 -47q11 -12 22.5 -24.5t23.5 -23.5q34 -33 62 -70.5t47 -81.5q44 -96 37 -200t-69 -190 q-45 -61 -110 -101.5t-139 -55.5q-38 -10 -72 -11q-16 -64 -32.5 -126.5t-31.5 -124.5q-3 -10 -5 -19t-5 -18q-1 -1 -1 -4q-3 -12 -12.5 -16.5t-19 -2.5t-16.5 10.5t-4 20.5l16 79q10 51 19.5 100.5t20.5 100.5q-68 4 -130 28q-72 29 -120.5 90t-55.5 138q-7 81 27 152.5 t96 121.5q30 23 62.5 40.5t68.5 30.5q8 3 17 5.5t17 -3.5q14 -10 7 -24q-3 -8 -14 -13.5t-18 -9.5q-31 -19 -59.5 -44.5t-51 -56.5t-36.5 -66.5t-14 -74.5q0 -52 20 -86t53.5 -54t75.5 -26t86 -1l25 125q18 90 35.5 180t36.5 180q-19 22 -38 46q-49 64 -81 133 q-40 1 -80 6.5t-78 19.5q-72 25 -131 74t-92 118q-34 70 -34.5 148.5zM513 87q31 11 58.5 28t48.5 38q56 57 58.5 131.5t-38.5 140.5q-7 11 -14.5 20.5t-15.5 18.5zM532 969q0 -64 25 -121q3 -7 6.5 -14.5t5.5 -14.5q3 -5 3.5 -7t6.5 -2l8 42l75 373q-27 -19 -49 -44 q-38 -44 -58 -99.5t-23 -112.5zM710 847q57 23 107.5 59.5t84.5 88.5q16 26 25.5 58t7.5 64.5t-14.5 62.5t-37.5 53q-15 14 -30.5 21.5t-33.5 11.5z" />
<glyph unicode="%" horiz-adv-x="1252" d="M92.5 -348.5q-2.5 8.5 1.5 16.5l949 1770q14 25 40.5 33t51.5 -6q26 -14 34 -40.5t-6 -50.5l-1 -3l-1030 -1725q-4 -8 -12.5 -10t-17.5 2q-7 5 -9.5 13.5zM193.5 1085q-5.5 58 15 110t63 92t102.5 52q45 10 91 1t82 -36q52 -35 76.5 -89t23.5 -115q-4 -38 -20.5 -74 t-41.5 -64.5t-58.5 -48.5t-73.5 -27q-61 -10 -120.5 15t-96.5 77q-37 49 -42.5 107zM374 1091q0 -20 10 -38q7 -12 20.5 -24t31.5 -13q25 -5 47 4t37 29q8 14 10 30.5t-2.5 33t-15.5 30t-29 20.5q-14 5 -25.5 4t-21.5 -1q-27 -7 -44.5 -28t-17.5 -47zM632 -47 q-5 58 15.5 110t62.5 92t102 53q45 10 91 0.5t83 -36.5q52 -35 76 -88.5t23 -114.5q-4 -38 -20 -74.5t-41.5 -65t-59 -48.5t-72.5 -27q-61 -10 -121 15t-97 77q-37 49 -42 107zM812 -41q0 -20 10 -38q7 -11 20.5 -23.5t31.5 -13.5q25 -5 47 4t37 29q8 14 10.5 31t-2.5 33 t-16 30t-28 20q-14 5 -25.5 4t-22.5 -1q-27 -7 -44.5 -28t-17.5 -47z" />
<glyph unicode="&#x26;" horiz-adv-x="1077" d="M-21.5 13.5q-9.5 76.5 10 149.5t65.5 135t114 99q11 5 20 10t20 9q-34 30 -55 70t-30.5 83t-8.5 88t10 88q20 86 70 157t121 122q66 46 140.5 72t152.5 34h8q5 23 9 44.5t9 44.5l32 159l6 32q8 35 39.5 56t66.5 9q31 -10 46.5 -38.5t8.5 -60.5l-64 -244q81 -8 150 -41 q70 -35 108 -99t34 -141q-5 -81 -48.5 -148.5t-104.5 -115.5q-30 -23 -63.5 -42t-68.5 -34q-25 -11 -55 -22t-57 -11q-35 0 -58 26q-41 -154 -80.5 -307t-79.5 -306q-7 -25 -13 -50l-12 -50q78 -3 148.5 24.5t127.5 79.5t94.5 125t45.5 160q1 11 -1 26t13 21q12 5 19 -5 t9 -21q3 -78 -26.5 -157t-81 -146t-119.5 -115t-142 -62q-27 -5 -55 -9t-56 -7l-58 -231q-3 -10 -5 -18.5t-5 -18.5q-1 -1 -1 -4q-3 -12 -12.5 -16t-19 -2t-16.5 10t-4 21l16 79q8 45 17 89.5t19 89.5q-15 0 -30 2t-30 5q-74 14 -137 54.5t-102 104.5q-41 67 -50.5 143.5z M167 51q1 -38 10 -76t26.5 -70.5t45 -57.5t64.5 -37q8 -3 17 -5l18 -4l40 196q19 94 38 189t38 189l-8 -4q-5 -3 -10.5 -4t-12.5 -4q-35 -11 -69.5 -24.5t-65.5 -34.5q-66 -44 -100 -110t-31 -143zM284 598q4 -35 19 -68t44 -56q15 -12 30.5 -21t33.5 -16q5 -1 16 -7 q5 -1 7.5 -0.5t7.5 0.5q14 1 24 -9q3 -3 3.5 -5t1.5 -5l49 246l86 426l-15 -4q-74 -22 -131 -69t-97 -112q-41 -66 -65 -144t-14 -156zM638 627l8 2q67 19 131.5 50t111.5 86q25 30 39.5 64.5t12.5 74.5q-1 40 -17.5 74.5t-46.5 60.5q-26 23 -56 36t-62 19 q-31 -117 -61 -233.5t-60 -233.5z" />
<glyph unicode="'" horiz-adv-x="230" d="M34 569q-8 4 5 25.5t33.5 55t41 77.5t27.5 95q-15 5 -28 18t-21.5 31.5t-9 40t7.5 44.5q12 30 38 46.5t55 15t54 -21.5t35 -62q7 -29 -5.5 -68t-35.5 -81t-52.5 -83t-58.5 -72t-52.5 -48.5t-33.5 -12.5z" />
<glyph unicode="(" horiz-adv-x="389" d="M53.5 88q-13.5 133 0.5 265.5t53.5 261t101.5 247.5q87 175 213 316q29 34 59.5 65.5t64.5 59.5q25 22 55 42q8 5 16 4t13 -7.5t5.5 -15t-7.5 -15.5q-106 -91 -188 -207.5t-140 -244.5q-53 -119 -86.5 -244.5t-40.5 -255.5q-7 -149 24 -292t109 -272q14 -23 25.5 -44 t4.5 -49q-7 -29 -30 -48t-53 -16q-31 1 -48.5 19t-31.5 41q-18 31 -32 64l-28 66q-46 127 -59.5 260z" />
<glyph unicode=")" horiz-adv-x="483" d="M-183.5 -274.5q-0.5 8.5 7.5 15.5q106 93 188 209t140 244q53 119 86.5 244.5t40.5 255.5q7 149 -24 292t-109 271q-14 23 -25.5 44.5t-4.5 48.5q7 29 30 48t53 16q31 -1 48.5 -18.5t31.5 -41.5q18 -31 32 -64t28 -65q46 -127 59.5 -260.5t-0.5 -265.5t-54 -260.5 t-101 -247.5q-87 -175 -213 -317q-29 -34 -59.5 -65.5t-64.5 -58.5q-25 -22 -55 -42q-8 -7 -16 -5t-13 8t-5.5 14.5z" />
<glyph unicode="*" horiz-adv-x="468" d="M8 670q-3 22 20.5 38t57.5 17h4l16 -1l-10 19q-19 30 -18 58.5t20 39.5q19 12 43 0t43 -41q0 -5 2 -5l19 -43l27 47q18 30 43 41.5t44 0.5t20 -38t-17 -56q-1 -3 -1 -6l-19 -26l53 -2q26 -1 43 -13.5t17 -27.5q-1 -16 -19 -27t-41 -13l-90 -4l35 -72q12 -23 9.5 -44.5 t-14.5 -28.5q-16 -7 -34 4t-30 30l-34 55l-32 -44q-15 -22 -34.5 -29t-32.5 1q-14 11 -13 30.5t13 41.5l29 49l-36 -1q-34 -1 -57.5 13t-25.5 37z" />
<glyph unicode="+" horiz-adv-x="502" d="M8 390q-3 23 23 41t63 20h6l77 -5l-2 77q-1 38 15 64.5t41 28.5q23 3 40.5 -23t19.5 -63v-6l-4 -83l106 -4q29 -1 48 -14t19 -31q-1 -19 -20 -30.5t-47 -13.5l-110 -5l-6 -112q-1 -29 -14 -48t-31 -19q-19 1 -30.5 20t-13.5 47l-5 108l-82 -4q-38 -1 -64.5 15t-28.5 40z " />
<glyph unicode="," horiz-adv-x="230" d="M-46 -254q-8 4 4.5 25t33 54.5t41 78t27.5 95.5q-15 5 -28 18t-21 31.5t-9 39.5t8 44q12 30 38 46.5t54.5 15.5t54 -21t34.5 -62q7 -29 -5.5 -68t-35.5 -81.5t-52.5 -83t-58 -71.5t-52.5 -48.5t-33 -12.5z" />
<glyph unicode="-" d="M13 409q5 27 28 46t48.5 17.5t51.5 -4.5q78 -10 153.5 -18.5t151.5 -19.5l100 -12q5 0 10 -1t11 -1q10 -1 15 -8.5t5 -15.5t-4.5 -16t-15.5 -9q-116 -15 -231.5 -29t-231.5 -29q-30 -4 -52.5 11t-33 38.5t-5.5 50.5z" />
<glyph unicode="." horiz-adv-x="230" d="M0 81q0 35 23 59t58 24t59 -24t24 -59q0 -34 -24 -57.5t-59 -23.5q-34 0 -57.5 23.5t-23.5 57.5z" />
<glyph unicode="/" horiz-adv-x="660" d="M-207.5 -430.5q-2.5 8.5 1.5 16.5l949 1770q14 25 40.5 33t50.5 -6q26 -14 34.5 -40.5t-5.5 -50.5l-1 -3l-1030 -1725q-4 -8 -13 -10t-17 2q-7 5 -9.5 13.5z" />
<glyph unicode="0" horiz-adv-x="649" d="M-6915 -674q82 100 238 172t372.5 122.5t485 80.5t574 45t642 17t687.5 -3.5t710 -17t712 -23.5q448 -15 799.5 -18t621.5 4t468 22.5t338.5 36t233 45t152.5 49.5q102 42 165.5 107.5t89.5 134.5t13.5 133.5t-61.5 105.5q-35 30 -70.5 38.5t-67.5 2.5t-60 -23t-50 -37.5 t-37 -41t-21 -32.5q-8 -19 -20 -26t-21 -4.5t-10.5 15.5t12.5 35q33 53 78 91t94.5 56t102.5 13.5t100 -36.5q40 -26 67.5 -73t37 -105t-1.5 -123.5t-48 -129t-103 -121.5t-166 -102q-194 -83 -439 -145t-529 -109t-598.5 -83.5t-647 -69t-675.5 -64.5t-683 -72 t-669.5 -90.5t-634.5 -118.5t-580.5 -159t-504.5 -209q-1 173 -47 305.5t-124.5 226.5t-183.5 150t-226.5 77.5t-252.5 8.5t-262 -58z" />
<glyph unicode="1" horiz-adv-x="576" d="M-3428 -400q142 55 311 88t357 49t389 16.5t408 -9t414 -26.5t406 -37q198 -20 362 -23t297 5.5t239 28.5t190 44.5t148 53t115 56.5q51 27 87.5 70.5t59.5 95t31.5 105.5t1 102.5t-31 86.5t-64.5 57q-61 29 -107.5 22t-80 -30t-55.5 -54t-31 -51q-11 -20 -20.5 -26 t-17 -1t-10 16.5t4.5 26.5q5 15 23 42t47.5 53.5t72.5 46t100 22.5q59 1 111 -31t85.5 -88.5t42.5 -131.5t-18.5 -157.5t-98 -167.5t-194.5 -161q-104 -63 -252.5 -113.5t-328 -93.5t-382 -80.5t-412.5 -75t-419 -77t-403 -87.5t-364.5 -105.5t-302.5 -129.5 q-11 154 -89 288q-33 57 -85 114.5t-126 108.5t-176 93t-234 65z" />
<glyph unicode="2" horiz-adv-x="745" d="M-5648 -691q89 116 243 193t376.5 123t512 65t648.5 20.5t787 -11t927 -29.5q374 -14 672 -12t533.5 14.5t412.5 33.5t306.5 47.5t218.5 56t147.5 58t93 55t54.5 46.5q41 38 62 100t18.5 123.5t-32 108.5t-88.5 55q-60 8 -101 -2.5t-69 -30t-43.5 -43t-25.5 -40.5 q-10 -16 -20.5 -24t-18 -6t-9.5 13.5t6 34.5q5 15 22.5 37t42.5 43t58.5 39t72.5 25.5t82 2t88 -31.5q31 -18 63.5 -63.5t44 -109t-9 -140t-93.5 -157t-210.5 -160.5t-359.5 -149q-180 -56 -417 -107.5t-512 -104t-577 -105.5t-611 -108.5t-615 -116.5t-588 -128.5 t-531 -144t-443 -162.5q-16 180 -71.5 312.5t-139.5 222.5t-190.5 141.5t-225.5 68.5t-244.5 2t-246.5 -55z" />
<glyph unicode="3" horiz-adv-x="789" d="M-4403 -321q664 -7 1220 -11t1014 -2t821.5 11t640.5 29t472 51t317 78q94 35 155 83.5t93 100.5t40 104.5t-1 97t-32 77t-52 46.5q-61 29 -107 22.5t-78.5 -28t-52.5 -51.5t-31 -51q-11 -20 -21.5 -26.5t-18 -2t-9.5 16.5t6 30q20 45 58.5 82t86 57.5t101 20.5 t102.5 -29q33 -19 63 -57.5t46 -90t14 -113t-32.5 -127t-94 -132t-170.5 -126.5q-106 -60 -286 -114.5t-416.5 -110t-522 -112.5t-603.5 -123.5t-660 -144t-693 -173.5q-1 14 -17 55.5t-64 101.5t-139 133t-242.5 148t-373.5 147.5t-533 132.5z" />
<glyph unicode="4" horiz-adv-x="831" d="M-4900 -315q664 -7 1253.5 -14.5t1098 -9t932.5 4t756.5 24.5t569.5 54t372 91q94 38 153.5 87t92 101t41 104t-0.5 95.5t-31.5 75.5t-51.5 46q-61 29 -107 22.5t-78.5 -28t-52.5 -51.5t-31 -51q-11 -20 -21.5 -26.5t-18 -2t-9.5 16.5t6 30q20 45 58.5 82t86 57.5 t101 20.5t102.5 -29q33 -19 63 -57.5t46 -90t14 -113t-32.5 -127t-94 -132t-170.5 -126.5q-81 -45 -233 -93.5t-360 -101t-462.5 -108.5t-537.5 -116t-586.5 -125t-610 -134.5t-606.5 -144.5t-577 -156q-1 14 -51.5 59t-134 112.5t-192.5 155t-228 186t-239.5 203.5 t-228.5 209z" />
<glyph unicode="5" horiz-adv-x="783" d="M-4970 -423q82 35 187 66t247 53.5t329 36.5t432.5 17t556 -6.5t700.5 -32.5q448 -27 799 -36.5t621.5 -4.5t468.5 20.5t339 38.5t233 48.5t153 50.5q102 42 165.5 111t89.5 142t13.5 140.5t-61.5 108.5q-35 30 -70.5 39t-68 3t-60.5 -23t-49.5 -37.5t-36.5 -41 t-21 -32.5q-8 -19 -20 -26t-21 -4.5t-10.5 15.5t12.5 35q33 53 78 90.5t94.5 56t102 14t100.5 -36.5q40 -26 66.5 -73.5t36 -107.5t-2 -128t-48.5 -134t-102.5 -126.5t-163.5 -106.5q-240 -111 -480.5 -182t-486.5 -119.5t-497.5 -80t-512.5 -61.5t-532.5 -65.5t-558.5 -91 t-588.5 -138.5t-622.5 -208q-60 186 -151.5 334t-200 254t-227.5 164.5t-231 64.5z" />
<glyph unicode="6" horiz-adv-x="749" d="M-4872 -401q82 35 180.5 63t230.5 47t306.5 28.5t409.5 8.5t538.5 -13.5t694.5 -35.5q448 -27 798.5 -36t621 -4.5t468.5 20.5t339.5 38.5t233.5 48.5t152 50q102 42 165.5 111.5t89.5 142.5t14 140.5t-61 108.5q-35 30 -71 39t-68 2.5t-60 -23.5t-50 -37.5t-37 -41 t-20 -32.5q-8 -19 -20.5 -26t-21.5 -4t-10.5 15.5t12.5 34.5q33 53 78 91t95 56.5t102.5 13.5t100.5 -36q40 -26 66 -74.5t36 -108.5t-2 -129t-48.5 -136t-102 -128t-164.5 -106q-240 -111 -477.5 -180.5t-468.5 -111.5t-454 -64.5t-432.5 -39.5t-403.5 -34t-369 -50 t-327.5 -87t-278.5 -144q-59 87 -151.5 163t-207.5 140t-246 116t-266 91t-268.5 66t-253.5 41.5t-221 16t-171 -10.5z" />
<glyph unicode="7" horiz-adv-x="756" d="M-7388 -344q142 4 350.5 6.5t466.5 3.5t558 1.5t626.5 0t670.5 -1.5t690 -1.5t687 -1t659 -0.5q448 0 811 4t650.5 13t505 21t375.5 29t261.5 38.5t163.5 45.5q102 42 166 111.5t90 142.5t13.5 140.5t-61.5 108.5q-37 30 -72 39t-67 2.5t-60 -23.5t-49.5 -37.5t-36.5 -41 t-21 -32.5q-8 -19 -20.5 -26t-21 -4t-10.5 15.5t12 34.5q33 53 78 91t95 56.5t102.5 13.5t100.5 -36q40 -26 65 -76.5t31 -114t-9 -133.5t-56.5 -136t-111 -121.5t-173.5 -87.5q-229 -74 -501 -135t-572.5 -111.5t-622.5 -94t-651.5 -84.5t-660 -82t-646.5 -84.5t-612 -94 t-556 -110.5q-59 86 -161.5 159.5t-235.5 137t-290 116t-325 95.5t-341.5 77t-339.5 61t-316.5 45.5t-275.5 31.5t-216 19.5t-136 9.5z" />
<glyph unicode="8" horiz-adv-x="775" d="M-7866 -311q399 -4 853.5 -9t940.5 -8.5t991.5 -6t1003.5 -2t978 4t915 11.5t813 20.5t674 31.5t497 45t282 59q94 38 153.5 87t92 101t41 104t-0.5 95.5t-31.5 75.5t-51.5 46q-61 29 -107 22.5t-78.5 -28t-52.5 -51.5t-31 -51q-11 -20 -21.5 -26.5t-18 -2t-9.5 16.5 t6 30q20 45 58.5 82t86 57.5t101 20.5t102.5 -29q33 -19 63.5 -58.5t47.5 -93.5t15.5 -117t-31.5 -128.5t-94.5 -129.5t-174.5 -119q-135 -68 -378 -126t-566 -108.5t-712 -96.5t-815 -88t-874.5 -82.5t-892 -82t-867 -86t-799 -93.5t-688 -104.5t-533.5 -119.5 q-1 14 -37.5 59.5t-99.5 115t-147.5 158.5t-182.5 188t-205.5 205.5t-215.5 210.5z" />
<glyph unicode="9" horiz-adv-x="729" d="M-7885 -313q145 51 423 76t652 32t826 1t945.5 -19t1011 -28t1021 -26t976 -14t876.5 11.5t722.5 48t513.5 93.5q97 30 157.5 76t93.5 97.5t40.5 105.5t-2 101t-33.5 81.5t-53 47.5q-61 29 -107 23t-78.5 -28t-52.5 -52t-31 -50t-21.5 -26.5t-18 -2.5t-9.5 16t6 30 q20 45 58.5 82t86 57.5t101 20.5t102.5 -29q33 -19 63.5 -60t48.5 -95t17 -118t-31 -129.5t-95.5 -128.5t-176.5 -114q-210 -100 -490 -167t-607.5 -111.5t-691.5 -71t-742 -44t-760.5 -31.5t-747 -32.5t-699.5 -47.5t-619.5 -77.5t-507.5 -121t-362 -178.5 q-81 108 -201.5 211t-266.5 194.5t-312.5 167.5t-340 129.5t-347.5 80t-337 19.5z" />
<glyph unicode=":" horiz-adv-x="289" d="M0 81q0 35 23 59t58 24t59 -24t24 -59q0 -34 -24 -57.5t-59 -23.5q-34 0 -57.5 23.5t-23.5 57.5zM82 587q0 35 23 59t57 24q35 0 59.5 -23.5t24.5 -59.5q0 -34 -24 -57t-60 -23q-34 0 -57 23t-23 57z" />
<glyph unicode=";" horiz-adv-x="289" d="M-51 -248q-8 4 5 25t33.5 54.5t41 77.5t27.5 95q-15 5 -28 18t-21 31.5t-9 40t7 44.5q12 30 38.5 46.5t55 15t53.5 -21.5t35 -62q7 -29 -5.5 -67.5t-35.5 -81t-52.5 -83.5t-58 -71.5t-52.5 -48.5t-34 -12zM82 587q0 35 23 59t57 24q35 0 59.5 -23.5t24.5 -59.5 q0 -34 -24 -57t-60 -23q-34 0 -57 23t-23 57z" />
<glyph unicode="&#x3c;" horiz-adv-x="472" d="M15.5 296.5q0.5 10.5 9.5 18.5l-2 2l284 276q3 3 5.5 4t5.5 4q25 15 52 8t42 -30q15 -26 9.5 -52.5t-31.5 -43.5l-301 -189l214 -134q1 -1 2.5 -1.5t3.5 -1.5q15 -12 16 -30.5t-10 -33.5q-12 -15 -31 -16.5t-34 9.5l-224 188q-1 3 -4 2q-7 10 -6.5 20.5z" />
<glyph unicode="=" d="M8 336q-3 23 23 41t63 19h6l416 -14q29 -1 48 -14t19 -31q-1 -19 -20.5 -30.5t-46.5 -12.5l-415 -14q-38 -1 -64.5 15t-28.5 41zM49 472q-3 23 23 41t63 19h6l416 -13q29 -1 48 -14t19 -31q-1 -19 -20.5 -31t-46.5 -13l-415 -14q-38 -1 -64.5 15.5t-28.5 40.5z" />
<glyph unicode="&#x3e;" horiz-adv-x="472" d="M23.5 164.5q5.5 26.5 31.5 43.5l301 189l-214 134q-1 1 -2.5 1t-2.5 2q-15 12 -16.5 30.5t9.5 33.5q12 15 31 16.5t34 -9.5l224 -189q1 -3 4 -1q16 -20 -2 -40l1 -1l-284 -276q-3 -3 -5.5 -4t-5.5 -4q-25 -15 -52 -8t-42 30q-15 26 -9.5 52.5z" />
<glyph unicode="?" horiz-adv-x="1019" d="M-70 952q-7 78 17 151.5t75 133.5q49 57 112 96t133 63t145 32t148 4q55 -4 112 -15t111.5 -32.5t102 -54.5t81.5 -79q41 -55 56.5 -115.5t10.5 -123t-27.5 -122.5t-56.5 -114q-35 -55 -79 -103.5t-94 -88.5q-63 -51 -132.5 -88t-140.5 -75q-66 -35 -120 -78.5 t-88 -110.5q-7 -14 -12 -27.5t-12 -28.5q-10 -26 -33 -24q-18 1 -24 12.5t-6 28t3.5 33t5.5 27.5q20 102 93 180q40 44 87.5 78.5t98.5 66.5q51 31 100.5 65t94.5 74q35 31 65.5 65t58.5 73q35 51 63 106.5t30 119.5q0 59 -26 109t-72 85q-38 30 -83 50t-93.5 30t-98.5 11 t-96 -7q-61 -11 -118.5 -41t-102 -75.5t-70 -103.5t-21.5 -123q1 -31 13 -62.5t24 -60.5q10 -20 21 -41.5t12 -44.5q1 -30 -14 -52.5t-38 -35t-50.5 -11.5t-50.5 20q-51 40 -79.5 101t-35.5 123zM37 -218q0 23 9 42.5t23 34.5t34 24t42 9q46 0 78 -32t32 -78 q0 -45 -32 -77.5t-78 -32.5q-44 0 -76 32t-32 78z" />
<glyph unicode="@" horiz-adv-x="1137" d="M10 96q-3 82 10.5 162.5t36.5 157.5q22 75 54 150.5t74 145t95 131t117 109.5q57 41 121.5 66t135.5 28q74 3 138.5 -26t111.5 -86q51 -61 72 -138.5t28 -155.5q7 -81 0.5 -160.5t-26.5 -157.5q-14 -55 -38.5 -121t-63.5 -120.5t-93 -86.5t-125 -19q-61 11 -91 50t-40 91 q-14 -23 -31 -43.5t-37.5 -35t-44.5 -21t-51 -1.5q-42 10 -64 40.5t-31 70t-6.5 82.5t6.5 76q11 78 38 153t72 141q27 41 66 74t88 47q49 15 98 2.5t88 -42.5q30 -22 49 -52.5t2 -68.5q-10 -19 -26.5 -30.5t-36 -15t-38.5 2.5t-34 22q-19 22 -41 33t-51 -4 q-31 -18 -54.5 -46.5t-41.5 -58.5q-41 -68 -64 -145q-11 -37 -19 -78t-1 -80q3 -18 12.5 -32.5t28.5 -8.5q16 4 31 15t27.5 26t22 31.5t17.5 29.5q7 10 11.5 19.5t10.5 20.5q7 57 19 104q4 20 9.5 43.5t16 44t26 35.5t40.5 17q22 3 41.5 -6t32 -24.5t17 -36.5t-3.5 -42 q-22 -59 -34 -124q-3 -19 -5.5 -37.5t-2.5 -37.5q0 -1 0.5 -9t2 -16.5t2.5 -15.5l1 -6q4 -1 9 -1q3 0 5.5 -0.5t0.5 -0.5q1 0 3 0.5t0 0.5q14 1 25.5 10.5t21 22t17 25.5t13.5 24q19 33 33 68.5t25 70.5q23 72 31.5 147.5t4.5 148.5q-3 35 -9 75t-19 76t-35.5 67t-56.5 50 q-26 15 -55.5 20.5t-60 4t-60 -9t-55.5 -19.5q-71 -31 -128.5 -85t-102.5 -116q-48 -66 -86 -136.5t-67 -147.5q-27 -75 -45 -152t-22 -158q-1 -35 1 -73.5t9.5 -75t22.5 -70t40 -62.5q51 -56 124 -71q30 -7 56 -7q14 -1 20 -12.5t-6 -21.5q-8 -7 -24 -5.5t-27 2.5 q-33 1 -68 13q-71 23 -120 80q-51 59 -69.5 134.5t-20.5 151.5z" />
<glyph unicode="A" horiz-adv-x="1213" d="M-3 367q-1 24 -1 49q0 58 6 115q10 82 30.5 162t49.5 155q29 72 65.5 142.5t84 133t105.5 115.5t129 91q68 34 144 54q56 14 112 15q20 0 41 -2q33 -3 65 -12t58 -29q30 -23 41 -58q8 -26 8 -52q0 -10 -1 -20q18 25 40.5 48.5t48.5 43.5t54.5 33.5t61.5 16.5 q31 3 62 -11.5t43 -45.5q3 -8 4 -18.5t-1 -20.5q-3 -14 -16.5 -13.5t-16.5 13.5q-16 30 -38 26t-44.5 -24.5t-40.5 -47t-26 -40.5q-31 -60 -53 -123.5t-40 -128.5q-22 -82 -39.5 -163.5t-32.5 -162.5q-15 -79 -27.5 -158t-17.5 -161q-3 -40 -3 -80.5t7 -80.5q3 -14 7 -30.5 t11.5 -31t19 -24t30.5 -9.5q23 1 39 12.5t32 26.5q30 27 56.5 57.5t54.5 60.5q15 16 34 44t34 43q7 8 13 15.5t13 14.5q4 5 9 11.5t11 9.5q8 3 16 -2t9 -15q0 -8 -5.5 -17t-9.5 -15q-10 -18 -18.5 -35t-19.5 -35q-19 -35 -46.5 -81t-49.5 -80q-16 -23 -34 -46.5t-40 -42.5 q-27 -25 -61 -37q-30 -10 -59 -10h-8q-34 2 -66 15.5t-58 41.5q-26 29 -43 63t-27.5 71.5t-16 76t-6.5 75.5q-11 -48 -27 -94t-45 -86q-45 -63 -119 -97q-33 -15 -71 -26q-37 -10 -76 -14l-32 -2q-22 0 -44 3q-38 5 -72 21q-74 35 -114 103t-60 143q-19 79 -23 161zM187 298 q3 -40 9 -79t21 -77q11 -31 31 -59t51 -43q20 -10 45 -12.5t48 -2.5q37 0 72.5 10t65.5 33q38 29 62.5 69t41 86.5t25.5 94.5t17 92q16 96 30 190.5t37 188.5q20 79 46.5 155.5t63.5 150.5q5 11 11.5 20.5t9.5 20.5l7 35q3 19 3.5 37.5t-3.5 36.5q-8 40 -39 53 q-25 11 -53 11q-6 0 -13 -1q-81 -5 -148.5 -40.5t-122 -89.5t-98.5 -120.5t-77 -133.5q-35 -71 -61 -145t-45 -152q-19 -82 -30 -164q-8 -60 -8 -121q0 -22 1 -44z" />
<glyph unicode="B" horiz-adv-x="1370" d="M6 884q2 72 28.5 138t74 123.5t105.5 98.5q66 46 141 75.5t154 45.5q81 18 163 25q41 4 82 3l82 -3q78 -5 154 -28t141.5 -64.5t114 -101.5t69.5 -142q11 -44 11 -87q0 -34 -7 -68q-15 -77 -62 -143q-46 -64 -112 -104t-141 -61q48 -11 92 -32.5t79.5 -53t60 -74 t34.5 -92.5q5 -27 5 -55q0 -21 -3 -41q-6 -48 -25.5 -91.5t-50 -81t-68.5 -66.5q-66 -48 -143 -67q-66 -16 -134 -16h-22q-72 4 -136.5 32.5t-105.5 90.5q-20 30 -33 68q-4 11 -8.5 25.5t-0.5 24.5q7 15 23 16t23 -14q3 -7 5 -14.5t5 -14.5q29 -65 87 -95q49 -25 107 -25h20 q55 5 104 26.5t89 60.5q42 40 66 96q19 43 19 89q0 13 -2 27q-5 40 -23 73.5t-44.5 60.5t-59.5 48t-68 35q-37 15 -76.5 21t-79.5 8q-15 0 -30 7.5t-8 27.5q7 15 22 16t28 2q78 4 149 32.5t127 83.5q26 26 48.5 59t37 69t20.5 74q2 14 2 29q0 24 -6 48q-8 38 -27 69.5 t-45.5 57.5t-59.5 46t-65 36q-75 33 -156.5 47.5t-163.5 17.5q-22 1 -43 1q-60 0 -118 -8q-80 -11 -153 -42q-70 -30 -127 -82t-78 -127q-9 -31 -9 -63v-11q2 -37 14 -72.5t31.5 -67.5t45.5 -58q52 -53 120 -79q26 -11 48 -21.5t33 -41.5q8 -27 -3.5 -54.5t-37.5 -40.5 q-23 -11 -44.5 -7.5t-43.5 14.5q-70 35 -125.5 91t-87.5 128q-29 67 -29 134v9zM29 131q7 42 30 74q4 7 9.5 14.5t13.5 8.5q7 1 12.5 -4.5t3.5 -11.5q0 -8 -3.5 -16.5t-5.5 -16.5q-1 -10 -2 -19.5t0 -18.5q3 -35 21 -65q15 -26 40 -36t54 -5q38 5 62.5 32t42.5 59 q18 33 31 68t24 71q18 59 31.5 117.5t27.5 118.5q22 104 45 209t66 203q30 67 77.5 125t116.5 88q8 4 29.5 11t43.5 10.5t39.5 0t17.5 -21.5q0 -16 -17.5 -27t-28.5 -19q-30 -26 -51 -52q-23 -31 -38.5 -67.5t-26 -74.5t-18 -77.5t-14.5 -76.5q-11 -57 -22 -112.5 t-24 -111.5q-15 -61 -31.5 -121.5t-37.5 -121.5q-27 -74 -62 -145.5t-92 -127.5q-39 -37 -87 -58q-44 -19 -93 -19h-10q-41 3 -78.5 21t-63.5 52q-23 31 -31 68q-4 20 -4 40q0 17 3 35z" />
<glyph unicode="C" horiz-adv-x="1086" d="M29 620q30 158 108 304q37 70 83 135t104 118q59 56 129.5 97t148.5 64q77 24 158 30q26 2 51 2l111 -10q38 -7 74 -20.5t67 -35t55.5 -50t37.5 -66.5q16 -45 16 -91q0 -30 -6 -60q-18 -77 -63 -139q-45 -61 -109 -104t-135 -69q-23 -10 -50.5 -18.5t-53.5 -6.5 q-29 3 -50 24t-25 50q-4 30 11 56t42 37q22 10 45 16t47 15q33 12 66 31t62 42.5t50 53.5t29 67q4 19 4 37.5t-4 36.5q-8 36 -28.5 66t-50.5 51.5t-67 32.5q-41 12 -84 12q-36 0 -72 -8q-80 -18 -143 -61q-66 -42 -117.5 -101.5t-94.5 -125.5q-44 -67 -75.5 -138.5 t-53.5 -149.5t-33 -160q-9 -64 -9 -128q0 -17 1 -35q3 -76 22.5 -153.5t67.5 -139.5q46 -57 111.5 -78t136.5 -24h25q66 0 130 13q76 16 147 51q33 16 69 42t69.5 57t62.5 63.5t48 65.5q7 11 16.5 20.5t24.5 -1.5q10 -7 9 -17t-7 -20q-10 -15 -24 -34.5t-30.5 -38.5 t-33.5 -37.5t-29 -31.5q-104 -106 -243 -161.5t-287 -66.5q-22 -2 -43 -2q-54 0 -108 12q-75 18 -138 63q-66 46 -107.5 114t-60.5 144q-23 87 -23 176q0 91 19 183z" />
<glyph unicode="D" horiz-adv-x="1460" d="M16 881q3 75 37 143t82 126q52 61 121 104t147 70q70 25 142.5 37.5t146.5 18.5q40 4 79 4t78 -4q78 -7 153 -34q87 -31 159 -87t124 -133q46 -68 74 -144q29 -75 41 -156q11 -70 11 -140q0 -10 -1 -22q-2 -82 -19 -162q-15 -74 -41.5 -149.5t-66 -143.5t-93 -127 t-120.5 -98q-116 -69 -248 -69q-20 0 -40 2q-75 7 -131 48.5t-82 113.5q-3 7 -7.5 23.5t-6 32t3.5 28t23 10.5q14 -1 17.5 -11t6.5 -21q11 -37 33 -67t50.5 -45t60.5 -19q10 -1 20 -1q22 -1 45 5q33 8 64 23q68 33 119.5 91t91.5 122q40 68 65 144t37 153q11 68 11 139 q-1 8 -1 18q-2 82 -19.5 159.5t-55 147t-98.5 124.5q-56 51 -124.5 83.5t-144 48t-152.5 15.5t-149 -12q-75 -14 -145 -44.5t-126 -84.5q-54 -52 -80 -122q-13 -37 -14 -75q0 -34 11 -69q23 -72 80.5 -122.5t123.5 -82.5q23 -12 45.5 -24t31.5 -41q10 -27 -1.5 -54.5 t-37.5 -41.5q-23 -11 -45.5 -7.5t-43.5 15.5q-31 19 -59 41t-54 48q-57 55 -94 124q-35 65 -35 143v8zM36 87q0 4 -1 8q0 35 13 66q5 14 17.5 36.5t27.5 25.5q10 1 13 -4t2.5 -12.5t-3.5 -15.5t-4 -12q-4 -16 -4 -33q0 -18 5 -38q9 -38 37 -62q22 -18 50.5 -18t52.5 10 q34 15 55 48t36 66q15 35 27.5 71t23.5 73q15 52 26.5 104.5t22.5 104.5q22 111 48 223t77 213q34 66 87 119t126 73q22 5 45 8q8 1 18.5 2t17.5 -2q14 -5 14 -18t-10 -21q-31 -23 -59 -49t-47 -60t-32 -72t-22 -77.5t-16 -79t-15 -77.5q-11 -57 -22.5 -112t-25.5 -112 q-15 -61 -32 -120.5t-40 -118.5q-14 -35 -30.5 -71.5t-37 -70.5t-45.5 -64t-55 -55q-37 -29 -83 -43q-34 -10 -68 -9q-12 0 -24 1q-46 5 -86.5 29.5t-62.5 72.5q-15 34 -17 73z" />
<glyph unicode="E" horiz-adv-x="1007" d="M6 246q-3 25 -4 49q0 51 14 100q20 73 65.5 135t113.5 99q11 5 20 10t20 10q-34 30 -54.5 69.5t-30.5 82.5q-9 41 -9 84q0 47 11 93q20 86 70 157t121 121q66 46 140 72t152 35q41 4 83 4q37 0 76 -3q83 -7 152 -41q70 -35 108 -99q34 -57 34 -126v-15q-5 -81 -48 -148.5 t-105 -115.5q-30 -23 -63.5 -42t-68.5 -34q-25 -11 -55 -22t-57 -11q-30 0 -52 21t-25 51q-3 29 14.5 50t44.5 30q67 19 132 49.5t111 85.5q25 31 40 65q12 29 12 61v13q-1 40 -17.5 74.5t-46.5 60.5q-29 26 -63.5 39.5t-72.5 17.5q-17 2 -33 1l-43 -3q-38 -4 -74 -15 q-74 -22 -131 -69t-97 -112q-40 -66 -64 -144q-17 -56 -18 -113q0 -22 3 -43q4 -35 19 -68t44 -56q15 -12 31 -21t33 -16q5 -1 17 -7q5 -1 7 -0.5t8 0.5q14 0 23 -9q11 -11 8 -27t-18 -23q-5 -3 -10.5 -4t-12.5 -4q-35 -11 -69.5 -24.5t-65.5 -33.5q-66 -45 -100 -111 q-31 -61 -32 -131q0 -6 1 -12q3 -76 37.5 -143.5t108.5 -97.5q60 -25 130 -25q1 1 3 1q72 0 135 13q76 15 146.5 48t130.5 83q29 26 54.5 55t47.5 62q7 10 14 22.5t22 9.5q14 -3 14.5 -14.5t-5.5 -22.5q-40 -67 -94.5 -120t-119 -92.5t-137 -67t-146.5 -40.5 q-59 -12 -119 -17q-19 -2 -38 -2q-41 0 -83 8q-74 14 -136.5 54.5t-102.5 104.5q-40 68 -50 144z" />
<glyph unicode="F" horiz-adv-x="957" d="M8 875q4 78 35 151t76 136q46 66 109 111.5t136 74.5q74 28 152 40q72 11 144 11h12q31 0 62 -2.5t62 -7.5q67 -11 130.5 -30.5t124.5 -43.5q68 -27 136.5 -50.5t140.5 -32.5q20 -2 43 -2h29q39 2 62 30q10 11 13.5 23.5t11.5 23.5t22.5 8.5t19.5 -15.5q8 -23 8 -44 q1 -14 -3 -28q-10 -34 -32.5 -60.5t-55.5 -44.5t-66 -28q-57 -15 -114 -15h-26q-70 4 -139 23t-136.5 45t-133.5 49q-71 25 -150 47.5t-159 28.5q-22 2 -43 2q-57 0 -113 -12q-76 -16 -142 -70q-62 -49 -90 -121q-18 -46 -18 -94q0 -27 6 -55q14 -74 55 -136t111 -93 q23 -10 41 -25.5t25 -41.5q7 -27 -3 -55.5t-33 -45.5q-26 -19 -54.5 -18.5t-56.5 12.5t-52.5 32t-42.5 39q-56 57 -82 131q-22 62 -23 128q0 12 1 25zM26 79q-1 8 -1 16q0 30 9 59q11 40 40 69q5 5 12.5 4.5t10.5 -7.5t1 -13t-5 -12q-7 -23 -7 -47q0 -12 2 -26q6 -38 34 -65 q19 -20 46 -23.5t53 4.5q35 12 58 43.5t38 63.5q18 35 30 71.5t23 72.5q-15 -7 -30 -13.5t-30 -13.5t-32 -15.5t-35 -8.5q-16 0 -30 6t-23.5 17.5t-13.5 26t-1 29.5q3 23 18 36t35 20q35 12 69.5 23.5t69.5 22.5q7 3 19.5 5t19.5 7l15 71q23 106 45.5 211.5t68.5 204.5 q31 67 79 124t118 84q8 3 29 10t43.5 10.5t38.5 -1.5t12 -24q-1 -10 -7.5 -14t-13.5 -9l-30 -23q-27 -25 -49 -54q-23 -31 -38 -68t-25.5 -75t-17 -78t-13.5 -76q-11 -57 -22 -112t-25 -111l227 74l145 48q7 1 18.5 6.5t23.5 8t22 0.5t14 -13q5 -15 -6 -21.5t-22 -12.5 l-57 -26l-182 -82l-211 -95q-3 -3 -6.5 -19.5t-4.5 -20.5l-23 -72q-14 -38 -29 -76t-34 -73q-16 -33 -38 -65.5t-49 -60.5t-59 -49.5t-70 -30.5q-28 -7 -57 -7h-7q-33 1 -63.5 12t-56 31t-41.5 50q-19 34 -22 72z" />
<glyph unicode="G" horiz-adv-x="1078" d="M-294 -81q-2 19 -2 38q0 59 17 117q22 78 73 138q16 20 38 39t49 26q29 7 57 -4.5t44 -36.5q16 -23 16.5 -53t-16.5 -55q-11 -15 -24 -23t-28 -19q-14 -10 -23 -21.5t-18 -26.5q-20 -33 -31.5 -71t-11.5 -77t11.5 -76t38.5 -67q22 -25 50.5 -41t60 -25.5t65 -13 t65.5 -3.5q81 3 153.5 32.5t135.5 76.5q61 48 110.5 109t89.5 128.5t71 140.5t54 147q-44 -48 -98 -79.5t-115 -50.5q-70 -22 -141 -28q-14 -1 -28 -1q-57 0 -112 18q-74 23 -126.5 76.5t-81.5 122.5q-31 76 -34 160q-1 13 -1 27q0 69 13 136q14 78 41.5 149.5t66.5 139.5 q38 66 86.5 126t107.5 110q60 52 129 86t147 53q74 18 149 25q31 2 63 2l87 -5q38 -4 75.5 -14t71.5 -28t62.5 -44t47.5 -61q20 -37 26 -78q3 -23 3 -46q0 -18 -2 -37q-11 -78 -56 -143t-107 -111q-64 -45 -136 -74q-23 -10 -51 -20t-56 -10q-33 1 -53 21t-27 46.5t2.5 54 t38.5 42.5q20 11 44 17t46 14q35 14 69.5 32.5t64.5 41.5q29 25 51 55.5t32 68.5q4 19 4 38q0 16 -3 34q-7 36 -27 68q-20 30 -47.5 49.5t-60.5 30.5t-68 14h-26q-21 0 -42 -2q-79 -10 -148 -46.5t-127 -89.5q-60 -55 -110 -117.5t-85 -135.5q-37 -72 -61 -150t-35 -158 q-4 -37 -5 -77v-17q0 -32 3 -64q4 -40 16 -77.5t34 -69.5q20 -30 50.5 -47.5t64.5 -27t70 -11.5h24q23 0 45 2q76 7 142.5 48.5t106.5 106.5q8 15 14.5 30t9.5 33q3 14 5 27.5t9 25.5q14 26 39.5 40.5t55.5 11.5q29 -3 52 -22t32 -46q8 -27 0.5 -52t-18.5 -48 q-57 -131 -129 -256t-162 -235q-51 -61 -109.5 -116t-126 -96.5t-143.5 -66t-157 -24.5q-71 0 -143 12t-133 50q-68 42 -108 110.5t-47 147.5z" />
<glyph unicode="H" horiz-adv-x="1333" d="M-5 935q-1 17 -1 33q0 62 20 118q26 72 79 128t123.5 84t146.5 33q11 1 22 0q60 -1 115 -19q65 -22 127 -56l42 -22l14 -8q7 -3 8 -5t5 5q19 30 44 60q23 27 50.5 51t62.5 31q13 3 27 3q23 0 44 -9q34 -14 58 -42q22 -27 32 -63q5 -18 5 -35q0 -18 -5 -37 q-11 -34 -35.5 -58t-56.5 -36q-21 -7 -43 -7q-11 0 -22 2q-34 6 -64 19q-22 -70 -39.5 -139t-40.5 -139t-48.5 -138t-52.5 -137q14 7 26 12t26 11q60 26 120.5 44.5t122.5 39.5q7 3 11.5 4.5t7.5 8.5l8 19q3 10 7 18.5t8 18.5q7 19 14.5 36.5t15.5 35.5q18 37 36.5 72.5 t38.5 70.5q40 70 85.5 135.5t101.5 124.5q25 27 53.5 51.5t62.5 41.5q27 14 61 17h7q29 0 52 -20q29 -27 31 -66v-15q0 -31 -6 -60q-10 -40 -26 -75t-37 -69q-40 -66 -93 -122t-114 -104q-15 -12 -31.5 -23.5t-33.5 -22.5l-30 -19q-11 -5 -16 -10l-6 -16q-31 -81 -57 -160 q-26 -78 -49 -155.5t-38 -159.5q-7 -38 -11 -80q-1 -10 -1 -19q0 -31 10 -58q14 -40 48 -47q11 -2 23 -3q24 1 52 11q40 14 78 45t62 67q42 67 81 140q3 7 8.5 19.5t12.5 23t16.5 14t20.5 -7.5q7 -8 5 -18.5t-7 -18.5q-7 -15 -13.5 -30.5t-13.5 -30.5q-18 -37 -36 -73 t-40 -71q-10 -15 -33 -45t-59 -58q-34 -28 -82 -45q-30 -11 -64 -11q-20 0 -41 4q-35 5 -63 25t-47 51q-19 33 -29 70q-10 36 -14 75q-2 27 -3 55q1 12 1 24q2 40 5 76q7 79 24.5 156.5t42.5 152.5q-64 -20 -127.5 -39.5t-126.5 -43.5l-41 -18l-18 -8l-7 -15l-31 -75 q-16 -37 -34 -74t-37 -72q-35 -70 -78.5 -137.5t-101.5 -119.5q-27 -23 -60 -40.5t-70 -17.5q-30 -1 -60 10.5t-45 39.5q-13 21 -13 44q0 11 3 23q9 36 25 64q19 35 44.5 66t52.5 58q27 29 58 55t62 50q15 14 32 25.5t34 23.5q7 5 13.5 9.5t9.5 12.5l12 38q31 104 62 208.5 t66 206.5q15 40 30 77.5t33 75.5q10 19 18.5 37.5t19.5 37.5q4 10 9 18t9 17l11 17q3 7 5 9t-5 6q-30 18 -62 36.5t-66 33.5t-70 24q-29 7 -59 7h-13q-72 -4 -141.5 -35.5t-108.5 -93.5q-20 -32 -30 -70q-8 -31 -8 -63v-13q2 -38 16 -73t38 -65q23 -27 54 -47t66 -31 q20 -7 41.5 -8.5t42.5 -8.5q30 -11 44 -35.5t13.5 -51.5t-17 -51t-46.5 -32q-22 -7 -43 -1.5t-41 12.5q-35 14 -68 30.5t-63 40.5q-60 46 -98 111t-44 141zM117 45q4 -15 20 -16t27 0q23 3 41 19t31 33q33 41 55 89t41 96q11 27 19.5 54.5t18.5 54.5q-45 -31 -86.5 -68 t-77.5 -79q-18 -19 -33.5 -41t-27.5 -45q-11 -20 -22.5 -47t-5.5 -50zM811 1159l12 -4q14 -5 29 -8.5t30 -0.5q22 3 42.5 17.5t27.5 36.5q4 12 2 27t-8.5 29t-18 22t-26.5 7t-26 -9.5t-19.5 -20t-15 -25t-11.5 -24.5l-13 -30zM1150 780q46 31 90.5 69t82 82.5t65.5 95 t43 106.5q4 15 6.5 31t1.5 31q0 8 -1.5 20t-7.5 19q-1 1 -10.5 -3t-11.5 -5q-11 -7 -21.5 -16t-19.5 -18q-40 -42 -68.5 -92t-54.5 -102q-26 -53 -49.5 -107.5t-44.5 -110.5z" />
<glyph unicode="I" horiz-adv-x="673" d="M-4 67.5q0 37.5 20 73.5q15 26 37.5 45t50.5 31q27 12 57 13q7 0 14 -2q38 -4 72 -7q11 -1 12.5 0.5t4.5 10.5l4 19q3 10 4.5 19t4.5 18q5 19 10 39t9 39q11 40 20 80.5t19 81.5q19 82 38.5 163.5t42.5 161.5q-26 -19 -53.5 -44t-50.5 -55q-22 -28 -36 -62 q-11 -27 -12 -56q0 -6 1 -13q3 -25 9.5 -47.5t-2.5 -48.5q-10 -26 -31 -43t-48 -20t-52.5 10t-40.5 37q-12 23 -13.5 51t0.5 52q7 72 46.5 129t99.5 97q33 23 69.5 39.5t71.5 32.5q11 4 21.5 9t20.5 9q7 3 16 5.5t12 9.5q5 18 10.5 34t12.5 34q25 71 57 143.5t84 129.5 q25 26 55.5 47t64.5 33q34 14 71 16q8 1 16 0q29 0 56 -7q34 -11 62 -33.5t42 -56.5q10 -24 10 -49q0 -12 -2 -23q-7 -37 -27 -69q-37 -57 -96.5 -87t-120.5 -53l-56 -21l-18 -7l-4 -13l-10 -36l-20 -76q-42 -162 -84 -325.5t-102 -320.5q37 0 63.5 4t50 14t45 28t49.5 45 q8 8 18 24t25 13t15.5 -15t-6.5 -20q-18 -20 -39.5 -43t-48.5 -42t-62.5 -32t-82.5 -14h-25t-20 -7l-17 -38q-10 -19 -20 -38.5t-21 -38.5q-22 -35 -48.5 -68t-65.5 -49q-29 -12 -63 -17q-14 -2 -28 -2q-19 0 -37 4q-38 7 -68 30t-46.5 55t-16.5 69.5zM76 98 q-7 -26 6.5 -49.5t40.5 -29.5q15 -3 28.5 0.5t25.5 10.5q3 1 9.5 6.5t10.5 4.5q1 0 4.5 6t7 13t6 14t2.5 8q7 18 12.5 34t10.5 34q3 8 6 19q-25 1 -57 2.5t-55 -10.5q-19 -10 -35 -27t-23 -36zM689 1054q35 16 71 34.5t66 46.5q16 15 31 37.5t13 45.5q-3 18 -20 18.5 t-29 -3.5q-31 -10 -56 -37q-19 -19 -32 -43t-24 -50z" />
<glyph unicode="J" horiz-adv-x="903" d="M-9 -82q1 38 14 74q26 70 84 115t127 66q40 12 81.5 18.5t83.5 9.5q22 1 43 1.5t43 0.5h20q0 3 1 7t2 7l8 40q35 164 75 324.5t93 320.5q5 16 11 33.5t12 33.5q-79 -19 -154 -51.5t-138 -84.5q-31 -27 -57.5 -60t-41.5 -73q-12 -31 -12 -68q0 -8 1 -16q1 -11 2.5 -21.5 t1.5 -21.5q-1 -33 -19.5 -54.5t-45.5 -30.5t-55 -2t-48 33q-19 23 -20.5 51t2.5 55q8 79 49 145q37 61 93 100t120 65t133 42.5t134 32.5l24 7l37 8q4 3 9 3.5t9 2.5q4 10 7 18q16 40 33 77t38 73q35 63 87 112t124 68q26 7 54 7h20q39 -4 72 -20t56 -44.5t28 -69.5 q1 -9 1 -17q0 -24 -8 -47q-11 -32 -31.5 -57.5t-48.5 -45.5t-58 -31q-37 -14 -74.5 -21.5t-77.5 -13.5q-3 -1 -9.5 -2t-7.5 -4l-7 -18l-13 -37q-7 -19 -12 -45t-11 -45q-25 -79 -46.5 -151.5t-43.5 -151.5q-26 -90 -50.5 -179.5t-51.5 -179.5q33 0 65.5 11t60.5 27.5t50 35 t34 33.5q7 7 14.5 17t19.5 7q10 -1 14 -9.5t1 -16.5q-4 -10 -10 -20.5t-13 -17.5q-45 -41 -99 -69t-122 -33l-26 -3l-8 -25q-22 -70 -48 -139.5t-64 -134.5q-35 -61 -85.5 -116t-116.5 -83q-51 -22 -104 -22q-20 0 -41 3q-74 12 -131 65q-27 26 -46.5 58.5t-28.5 69.5 q-8 32 -8 66v8zM69 -92q2 -36 19 -68.5t49 -56.5q29 -23 65 -30q12 -2 24 -2q24 0 47 9q34 12 60.5 38t47.5 56q27 41 49 91q11 26 16 56.5t10 57.5q7 26 11 50.5t11 50.5q-51 -1 -100 -8q-71 -10 -141 -33t-120 -78q-27 -29 -39 -63q-9 -30 -9 -60v-10zM948 1090 q25 7 52.5 15.5t52 21.5t43 33.5t22.5 50.5q3 19 -7.5 24.5t-24.5 4t-29 -8t-23 -12.5q-20 -15 -36.5 -36t-28.5 -44q-7 -12 -11.5 -24.5t-9.5 -24.5z" />
<glyph unicode="K" horiz-adv-x="1482" d="M-8 53q-1 9 -1 18q0 28 8 56q3 10 10 28t18 35.5t24 26t27 -2.5q15 -11 8 -26t-11 -28q-11 -25 -10 -51q0 -10 1 -20q7 -41 36 -55q14 -7 30 -7t35 8q29 12 50 33t37 46t28 52.5t22 53.5q30 78 54 157.5t44 160t39 162t41 162.5q-27 -19 -55 -44t-50.5 -54t-37.5 -62 t-15 -68q0 -23 6.5 -43t4.5 -44q-4 -30 -25 -51t-49 -28q-29 -7 -57 5t-43 36q-12 19 -14 42.5t-2 45.5q3 78 42.5 139t100.5 104q51 35 107 59t112 47q25 82 55.5 165.5t81.5 151.5q22 30 52 54.5t64 40.5q34 17 72 24q19 4 38 4t38 -4q35 -7 67.5 -27t51.5 -52 q17 -30 17 -65v-6q-2 -38 -20 -70q-16 -31 -41 -54.5t-54 -41t-61 -31.5t-64 -26l-78 -29l-20 -73l-40 -160q-20 -82 -42 -162t-46 -160q-23 -78 -51.5 -156t-66.5 -152q-15 -29 -34 -60t-42.5 -59t-50.5 -50t-60 -34t-71 -15q-10 -1 -19 -1q-27 0 -53 6q-34 8 -65 28 t-50 52q-19 31 -23 69zM695 644q-3 19 10 28t28 13q48 11 96.5 25t93.5 37q70 35 116 91t79 126q18 37 32.5 74.5t31.5 72.5q16 34 36 66.5t44 60.5q49 61 113 98.5t145 38.5h11q30 -1 60 -5q36 -6 67.5 -19t56 -37t37.5 -61q10 -32 10 -65v-12q-2 -40 -14.5 -76t-33 -70.5 t-44.5 -61.5q-25 -27 -55 -49.5t-65 -37.5q-27 -11 -58 -17.5t-58 6.5q-27 12 -41 38t-11 56q4 27 23 47.5t46 27.5q61 15 118 46.5t89 90.5q16 27 16 58v8q-2 35 -36 58q-25 19 -55.5 24.5t-60.5 3.5q-37 -3 -67.5 -19t-49.5 -47q-22 -34 -30 -73t-18 -78 q-16 -72 -44 -145.5t-69 -138t-97.5 -115.5t-130.5 -78q30 -26 49.5 -59t31.5 -69t17.5 -74.5t6.5 -76.5v-23q1 -28 -1 -58q-2 -40 -9 -80l-13 -79q-3 -15 -3.5 -31.5t3.5 -31.5q5 -16 21.5 -24t35.5 -9t38 3t32 8q37 12 67.5 34.5t56.5 50.5q27 27 49.5 59t41.5 68 q19 30 35 69l10 22t20 11q15 1 22.5 -11t3.5 -26l-11 -22q-34 -74 -74 -138q-41 -66 -96.5 -122t-128.5 -82q-31 -11 -64 -14q-10 -1 -21 -1q-22 0 -43 4q-31 6 -59 22.5t-48 44.5q-23 30 -35.5 66.5t-18 75t-6.5 77.5v19q0 29 2 57q4 50 6 108q0 6 1 12q0 51 -20 94 q-11 22 -27.5 37.5t-37 27t-43.5 20t-45 15.5q-7 1 -12.5 3t-12.5 3q-10 -3 -17 0q-22 7 -25 30zM751 1057q31 15 62.5 32t58.5 39q19 15 37 38t19 51q0 18 -11.5 21t-28 -1t-32 -13t-22.5 -14q-29 -25 -45 -59q-23 -42 -38 -94z" />
<glyph unicode="L" horiz-adv-x="1350" d="M-3 90q1 78 51 138.5t124 84.5q46 14 95 14q23 1 47 -3q74 -10 137 -41q19 42 34 85.5t30 87.5q-70 12 -130.5 53t-97.5 103q-40 67 -40 139t30 137.5t84 118t121 80.5q29 14 57.5 7t48.5 -26t28 -48t-4 -59q-14 -30 -39 -45q-8 -5 -21 -11.5t-24 -3.5h-9q-27 0 -53 -15 q-32 -18 -52 -38q-26 -26 -42 -60q-14 -30 -14 -64v-9q0 -37 16 -70t42 -59q35 -37 85 -55q4 -3 19 -7.5t17 -1.5q7 22 10 38q7 19 12.5 37.5t11.5 37.5q25 81 50 160t56 157q29 75 64.5 149.5t83.5 139.5q40 55 90 98.5t113 66.5q50 18 101 18q25 0 51 -4q76 -14 138 -61 q60 -48 95.5 -116.5t37.5 -143.5q0 -4 1 -7q0 -38 -10 -72q-10 -38 -28.5 -72.5t-42 -66.5t-49.5 -62q-102 -117 -237.5 -204.5t-284.5 -132.5q-38 -12 -80 -21q-10 -3 -12 -13.5t-5 -18.5l-12 -37q-14 -40 -27.5 -78t-28.5 -78l-19 -42l-8 -17q-3 -7 -0.5 -8t8.5 -5 q27 -26 58 -51q29 -23 61 -44t68 -35q50 -19 98 -19q21 0 43 4q70 12 133 47t119 85.5t101 101.5l45 53q5 5 10 12t15 7q16 0 16 -12.5t-7 -28.5t-16.5 -30.5t-11.5 -18.5q-42 -66 -94 -125t-118 -103q-64 -44 -136 -66q-46 -14 -94 -14q-28 0 -57 5q-44 5 -82 22 t-71.5 40.5t-65 52t-59.5 59.5q-27 -49 -62 -92.5t-82 -76.5q-55 -37 -119 -51q-33 -7 -67 -7q-31 0 -62 6q-37 8 -70.5 26t-58 44.5t-39 61t-14.5 73.5zM105 139q7 -63 70 -69q22 -1 52 2q60 7 104.5 42.5t75.5 84.5l8 14t7 14q4 7 1.5 7.5t-8.5 3.5l-11 5q-26 12 -56 21 q-23 5 -46 7.5t-47 1.5q-27 -1 -55 -10.5t-50 -27t-35 -41t-10 -55.5zM730 519q100 19 192 60.5t174 100.5q82 57 151 129t113 162q19 35 19 74q-1 37 -13 71q-12 36 -35 66t-53 52q-31 23 -68 33q-18 5 -35 5q-20 0 -40 -6q-35 -10 -63 -33t-49 -51q-42 -53 -79 -110.5 t-65 -119.5q-34 -75 -59.5 -152.5t-50.5 -155.5q-10 -31 -19 -62.5t-20 -62.5z" />
<glyph unicode="M" horiz-adv-x="1372" d="M-37 1130.5q0 39.5 9.5 78t31.5 70.5q22 33 53.5 55t67 32t74.5 11h7q35 0 68 -9q35 -10 69 -27.5t57 -47.5q25 -31 35 -68q8 -28 8 -59q0 -9 -1 -18q-3 -35 -8 -70t-12 -69q30 48 60.5 95.5t66.5 91.5q33 41 70.5 80t82.5 67q36 23 78 32q17 4 34 4q25 0 49 -8 q52 -16 78.5 -60t37.5 -94q42 41 89 77.5t103 58.5q40 15 87 18h8q42 0 73 -28q22 -19 30.5 -45t8.5 -54.5t-5.5 -56.5t-12.5 -52q-16 -60 -37.5 -116t-44.5 -114l-88 -212t-87 -212q-30 -78 -58 -154.5t-50 -155.5q-11 -35 -17 -80q-3 -11 -4.5 -29t6.5 -29q8 -15 22 -18.5 t29.5 0t30 10t25.5 13.5q68 41 123.5 100.5t107.5 119.5l50 60q7 7 16.5 11t17.5 -7q4 -5 3.5 -12.5t-4.5 -15t-9.5 -15t-8.5 -11.5q-41 -70 -90 -135t-109 -118q-25 -23 -57 -44.5t-67 -31.5q-23 -7 -46 -7q-11 0 -23 2q-34 5 -64 35q-23 23 -29 51.5t-4 60.5q3 40 14 78 t25 74q27 78 59.5 152.5t68.5 148.5q34 76 67.5 151t64.5 153q31 75 58 152.5t41 159.5q5 26 8 54t-6 55q-5 18 -19.5 18t-29.5 -6q-52 -18 -91.5 -60t-70.5 -85q-37 -46 -69 -99l-31 -49q-7 -12 -8.5 -26.5t-3.5 -28.5q-10 -61 -23 -120t-28 -118q-20 -82 -45.5 -161.5 t-52.5 -158.5q-27 -76 -58.5 -152t-72.5 -146q-19 -34 -41.5 -65.5t-52.5 -56.5q-23 -19 -55 -31q-16 -6 -33 -6q-15 0 -30 5q-33 12 -44.5 44t-12.5 63q-1 14 -1 28q-1 26 3 50q6 38 14 77q31 161 90.5 313t137.5 297q40 72 83 140t92 133q12 16 25 32.5t27 33.5l11 12 l-3 16l-8 36q-4 11 -9.5 26t-14.5 28t-20.5 20.5t-26.5 4.5q-27 -3 -50.5 -24t-39.5 -40q-25 -29 -46 -61t-40 -65q-41 -71 -76 -144.5t-66 -148.5q-53 -122 -100.5 -245t-94.5 -247l-91 -239l-36 -94q-10 -23 -24.5 -41.5t-40.5 -25.5q-29 -8 -57.5 2t-44.5 36 q-14 23 -14 46q0 8 1 16q6 32 16 63q12 40 24.5 80t25.5 79q27 81 56.5 159t61.5 155q16 40 32.5 77.5t34.5 75.5l36 78q8 19 14 37.5t12 37.5q20 68 38 136.5t32 138.5q6 30 6 61q-1 8 -1 14q-2 38 -23 69q-20 29 -53 47q-30 16 -61 16h-7q-34 0 -65.5 -17.5t-46.5 -50.5 q-10 -22 -10 -46q0 -12 3 -26q8 -38 20 -71q7 -16 15.5 -33t14.5 -34q12 -26 9 -53.5t-22 -49.5q-19 -23 -49 -30.5t-58 3.5q-25 10 -38.5 28t-23.5 42q-15 35 -23.5 74t-8.5 78.5zM508 18v1q0 -1 1 -1h3h-4zM546 31q33 22 59 55t49 66q23 37 43.5 74.5t39.5 76.5 q38 81 66 163t50 168q12 45 22 90t17 91q-52 -98 -100.5 -197t-95.5 -200q-23 -49 -44 -97.5t-42 -99.5q-19 -46 -36.5 -93t-27.5 -97z" />
<glyph unicode="N" horiz-adv-x="1548" d="M-4 51q-1 10 -1 20q0 26 9 53q3 8 10.5 27.5t18.5 36.5t24 26t26 -2q15 -11 9 -26t-11 -28q-11 -28 -12 -55q0 -9 2 -18q7 -37 35 -52q15 -8 32 -8q14 0 30 6q26 11 47 29t36 41q45 66 71 143t47 152q45 158 81 319.5t91 318.5q-48 -22 -93 -51t-82 -65.5t-62 -82.5 t-31 -102q-2 -17 -1 -33q0 -30 6 -58q10 -44 28 -88q9 -20 9 -39q0 -15 -5 -29q-11 -34 -44 -55q-27 -15 -56.5 -11.5t-51.5 22.5q-19 18 -26.5 42t-11.5 47q-4 31 -4 61q0 46 10 92q17 74 65 139q45 61 105 112t123 94q33 23 67 44t70 40q5 3 10 5.5t9 5.5l8 16q3 8 7 16.5 t8 16.5q8 16 16.5 32t19.5 31q5 11 9 15q15 22 35 43t43 38t49 28t53 14h9q30 0 56 -16q30 -20 38 -55q2 -11 2 -22q0 -23 -9 -43q-14 -32 -36 -54q-25 -27 -62 -49q-8 -5 -16.5 -9.5t-16.5 -8.5q-7 -3 -8.5 -3t-3.5 -7q-5 -10 -7 -17q-15 -37 -26 -74.5t-22 -76.5 q-22 -82 -41 -161.5t-41 -161.5q40 94 84 185t98 178q37 60 83 123.5t103 116t124.5 85.5t145.5 33q40 0 76.5 -11t65.5 -37q29 -25 44.5 -59t21.5 -71q6 -36 5 -73q0 -42 -7 -86q-14 -80 -37 -156q-23 -79 -54 -155t-64.5 -151t-68 -149.5t-64.5 -150.5q-15 -35 -27.5 -73 t-15.5 -78q-1 -15 1.5 -28.5t17.5 -18.5q7 -3 13.5 -4t12.5 -2q31 -4 61.5 11t56.5 31q33 23 62 50t57 56q29 30 54.5 61t48.5 64q7 8 13 18t17 8q15 -3 16.5 -14.5t-5.5 -22.5q-37 -60 -77.5 -117t-88.5 -109q-20 -23 -45 -47t-51.5 -44t-57.5 -33t-63 -16q-31 -1 -62 6.5 t-57 29.5q-27 23 -40 56.5t-16 68.5q-2 21 -2 41q0 60 16 120q20 80 45 158q26 78 56.5 154t61.5 153q31 78 64 153.5t59 154.5q12 34 20 72q5 21 4 41q0 16 -3 32q-5 31 -30 41.5t-52 13.5q-10 1 -20 1q-26 0 -52 -8q-35 -10 -67 -28.5t-61.5 -42t-53.5 -48.5 q-59 -57 -106.5 -120.5t-91.5 -133.5q-89 -142 -160 -288q-18 -37 -35 -74t-33 -75q-12 -40 -25 -78.5t-28 -78.5q-23 -61 -57.5 -130.5t-81.5 -125t-110 -85.5q-37 -17 -79 -17q-30 0 -64 9q-38 10 -67.5 31.5t-48 51.5t-22.5 66z" />
<glyph unicode="O" horiz-adv-x="1157" d="M8 477q11 162 65 319.5t145 293.5q42 63 95.5 121.5t117 103t136 71t153.5 27.5q26 0 49 -9t38 -30q16 -23 17 -53.5t-14 -54.5q-15 -22 -36.5 -32.5t-47.5 -11.5q-61 -1 -121 -30q-70 -31 -126.5 -85t-100.5 -116q-45 -64 -80.5 -133t-62.5 -143q-27 -78 -45 -157.5 t-21 -161.5v-25q0 -25 1 -51q2 -39 11 -76.5t24.5 -71.5t42.5 -61q45 -45 108 -56q36 -6 73 -6q26 0 52 3q78 12 142.5 53t116.5 98q-56 38 -97 93.5t-70 117.5q-60 124 -72 263q-2 29 -2 59q0 36 3 74q6 70 28.5 134t63.5 116.5t105 82.5q27 14 59 21q30 7 61 7l5 -1 q32 0 63.5 -9.5t55.5 -30.5q30 -25 47.5 -58t26 -70.5t10.5 -76.5t2 -74q0 -161 -38.5 -318.5t-122.5 -294.5q29 -10 58 -10q11 0 23 2q41 6 79 20q19 8 37.5 18.5t36.5 20.5q16 11 31 23.5t32 23.5q12 11 27 2t11 -25q-3 -10 -10 -16t-13 -13q-7 -7 -14 -12.5t-14 -10.5 q-30 -26 -63.5 -48t-68.5 -37q-36 -15 -74 -22q-21 -4 -41 -4q-18 0 -35 3q-22 1 -43 8q-5 3 -6.5 3.5t-5.5 -4.5l-11 -14q-20 -26 -48 -53q-56 -56 -123.5 -95t-145.5 -55q-50 -10 -103 -10q-11 1 -22 1q-64 2 -123 26q-72 31 -120.5 90.5t-74.5 131.5q-26 71 -33 145 q-4 47 -4 95q0 27 1 55zM674 665q0 -3 1 -5q0 -80 14 -159q12 -61 37.5 -120.5t72.5 -101.5q34 51 59 104t44 110q26 77 41 157q12 63 12 128q0 17 -1 34q-3 40 -9.5 78t-22.5 74q-5 12 -13 23.5t-17 21.5t-20.5 14t-26.5 1q-34 -4 -59.5 -24t-43.5 -48.5t-30 -61.5t-18 -61 q-20 -81 -20 -164z" />
<glyph unicode="P" horiz-adv-x="1170" d="M12 976q15 72 57 135t99 111q61 51 133.5 83t150.5 49q80 18 160 24q69 5 135 5h22q76 -1 156 -18t151.5 -52t129 -89t90.5 -129q30 -70 31 -145v-6q0 -72 -24 -138q-25 -67 -71.5 -121t-107.5 -91q-64 -40 -137.5 -60.5t-148.5 -25.5q-19 -3 -38.5 -3h-39.5 q-16 1 -35 0.5t-34 5.5q-15 5 -16 20t12 22q12 7 28.5 7t29.5 3q78 14 149 43.5t127 85.5q55 53 87 127q28 66 28 134v18q-4 78 -43.5 143.5t-105.5 108.5q-66 44 -143 64.5t-155 28.5q-39 4 -80 4q-38 0 -76 -4q-80 -8 -153 -28q-71 -22 -138 -62t-111 -102 q-44 -61 -50 -131q-1 -11 -1 -23q0 -58 26 -114q31 -67 84.5 -112.5t123.5 -69.5q26 -10 42.5 -31.5t12.5 -49.5q-4 -30 -28 -49.5t-56 -15.5q-27 3 -52 19.5t-47 31.5q-31 23 -59.5 50.5t-51.5 58.5q-43 64 -61 138q-9 39 -10 78q0 36 8 72zM22 119q2 39 18 75 q1 5 6.5 14.5t11.5 18.5t13.5 14t15.5 1q7 -3 8 -10.5t-1.5 -15.5t-5.5 -16t-2 -13q-4 -23 0 -48.5t16.5 -45t32 -32.5t47.5 -12q45 1 75 30.5t49 66.5q35 70 56.5 145t37.5 151q7 31 14 63.5t13 63.5q11 55 23.5 109.5t27.5 107.5q20 72 50 142.5t81 128.5q52 61 126 89 q7 3 28.5 8t44 7t37 -3.5t6.5 -25.5q-3 -7 -10.5 -12t-14.5 -10q-8 -5 -15.5 -10.5t-14.5 -12.5q-14 -12 -25.5 -26t-22.5 -29q-22 -31 -35 -66.5t-24 -71.5q-19 -76 -32 -152.5t-30 -154.5q-11 -44 -20.5 -87t-22.5 -86q-20 -76 -46 -150t-66 -144q-19 -33 -41.5 -64 t-50.5 -57t-61.5 -43t-72.5 -23q-15 -2 -29 -2q-18 0 -36 3q-32 5 -61 19t-51.5 37.5t-34.5 54.5q-13 32 -13 66q1 4 1 8z" />
<glyph unicode="Q" horiz-adv-x="1149" d="M-11 157q-5 29 7.5 55.5t37.5 41.5q18 11 39 13t41 -4t35 -20.5t23 -34.5q48 -102 135.5 -178t190.5 -120q60 -26 121.5 -41.5t125.5 -22.5q34 -4 67 -5.5t67 -1.5q11 0 22 -2t14 -17q3 -12 -5.5 -18.5t-19.5 -9.5q-95 -15 -189 -15l-131 7q-160 18 -304 97 q-68 37 -126.5 85.5t-106.5 109.5q-14 18 -27.5 38t-16.5 43zM142 660q7 81 31 160.5t56 147.5q33 70 78 134.5t101 120t122.5 97t141.5 66.5q79 27 161 27q26 0 48.5 -7.5t38.5 -29.5q19 -23 20.5 -52.5t-13.5 -55.5q-15 -23 -37 -34t-49 -12q-78 -3 -147 -33t-127 -78.5 t-104 -110.5t-79 -128q-35 -74 -58 -154q-20 -70 -20 -142v-19q3 -71 32 -132.5t98 -89.5q30 -12 60.5 -17t61.5 -8q19 -2 37 -2q65 0 125 20q75 23 135 73t102 115.5t67.5 140.5t33.5 150q3 29 3 58q0 11 -1 23q-1 40 -9 80q-7 34 -23 69.5t-48 54.5q-16 8 -31 7t-31 1 q-27 7 -37 35q-5 16 -2 29t12.5 22t22.5 13t28 2q41 -4 72.5 -23t54 -48.5t35.5 -66t20 -73.5q9 -49 9 -98q0 -30 -3 -60q-9 -81 -31 -158q-22 -74 -56.5 -142.5t-83 -127.5t-109.5 -104.5t-135 -74.5q-67 -25 -139 -33q-26 -3 -52 -3q-45 0 -89 9q-69 14 -128.5 51.5 t-100.5 102.5q-42 68 -56 148q-10 53 -10 107q0 27 2 53z" />
<glyph unicode="R" horiz-adv-x="1458" d="M13 831q-8 36 -8 73q0 39 9 79q18 74 63 138.5t106 111.5q61 48 132 78t147.5 46.5t154.5 21.5t153 5q33 -1 65 -3t63 -7q75 -12 150.5 -39.5t137 -72.5t101.5 -109.5t47 -147.5l2 -30q0 -61 -24 -119q-29 -72 -83 -126q-57 -56 -129 -86t-148 -45q30 -20 53 -52 q45 -61 56 -137q8 -55 8 -109q0 -20 -1 -40q-3 -39 -8 -77q-3 -24 -3 -47q0 -14 1 -29q0 -18 5 -29.5t20 -19.5q11 -7 23 -10t24 -5q11 -2 22 -2q22 0 42 7q31 10 59.5 29t53 43t43.5 47q49 59 86 127l10.5 21t14 23.5t17.5 15t23 -3.5q11 -8 9.5 -19t-3.5 -22 q-7 -16 -13.5 -32.5t-13.5 -33.5q-31 -72 -76 -136q-44 -61 -104 -110.5t-138 -61.5q-30 -4 -61 -5.5t-61 4t-56.5 18.5t-48.5 36q-27 29 -41 63q-13 36 -18 74q-4 30 -4 59v18q2 39 6 74q4 40 11 77.5t11 76.5q1 9 1 18q-1 25 -7 48q-8 31 -37 55q-15 11 -30 17t-31 11 q-18 7 -35.5 7.5t-36.5 2.5q-10 1 -18 3t-14 10q-11 14 -4 28q7 15 22.5 15t28.5 1q11 0 22.5 -0.5t22.5 2.5l38 8q19 5 37 10.5t37 12.5q35 14 68 33t61 43q29 25 53 55.5t40 64.5q17 34 23 72q3 17 3 35q0 20 -4 41q-14 79 -63.5 133t-117 88t-145 51t-145.5 22 q-27 2 -54 2q-45 0 -91 -4q-75 -6 -146 -28t-133.5 -59.5t-106.5 -96.5q-50 -64 -56 -140q-1 -12 0 -23q0 -64 30 -124q31 -63 84.5 -106t118.5 -66q27 -10 43 -33t11 -52q-7 -30 -32.5 -47.5t-55.5 -10.5q-27 4 -52.5 20.5t-45.5 31.5q-64 45 -109 109q-44 66 -61 140z M22 119q2 39 18 75q1 5 6.5 14.5t11.5 18.5t13.5 14t15.5 1q7 -3 8 -10.5t-1.5 -15.5t-5.5 -16t-3 -13q-4 -23 0.5 -48.5t17 -45t32 -32.5t47.5 -12q45 1 75 30.5t49 66.5q35 70 56.5 145t37.5 151q7 31 14 63.5t13 63.5q11 55 23.5 109.5t27.5 107.5q20 72 50 142.5 t81 128.5q26 30 57.5 52.5t68.5 36.5q7 3 28.5 8t44 7t37 -3.5t6.5 -25.5q-3 -7 -10.5 -12t-14.5 -10l-30 -23q-14 -12 -25.5 -26t-22.5 -29q-22 -31 -35 -66.5t-22 -71.5q-20 -76 -33.5 -152.5t-30.5 -154.5q-11 -44 -20.5 -87t-22.5 -86q-19 -76 -45.5 -150t-64.5 -144 q-19 -33 -41.5 -64t-51.5 -57t-62.5 -43t-72.5 -23q-15 -2 -29 -2q-18 0 -36 3q-32 5 -60 19t-50.5 37.5t-35.5 54.5q-14 32 -14 67q1 3 1 7z" />
<glyph unicode="S" horiz-adv-x="1003" d="M-8 1101q0 77 35 146q15 27 36.5 49t53.5 24q30 3 56 -12t40 -42q14 -30 6.5 -55.5t-22.5 -52.5q-26 -47 -26 -99q0 -22 5 -46q15 -76 72.5 -129t129.5 -72q-17 61 -17 121q0 55 14 110q22 83 70.5 154t122.5 118q64 41 140 53q24 4 47 4q51 0 101 -19q76 -29 113 -97 q36 -66 36 -142v-4q0 -76 -37.5 -136.5t-95.5 -104.5t-128.5 -73.5t-134.5 -43.5q23 -33 49.5 -63t55.5 -58q34 -33 62 -70.5t47 -81.5q38 -83 38 -172q0 -14 -1 -28q-7 -104 -69 -190q-45 -61 -110 -101.5t-139 -55.5q-57 -13 -118 -13q-10 1 -20 1q-71 2 -135 29 q-72 29 -120.5 90t-55.5 138q-1 14 -1 27q0 66 28 126q34 72 96 121q30 23 62.5 40.5t68.5 30.5q8 3 17 5.5t17 -3.5q14 -10 7 -24q-3 -8 -14 -13.5t-18 -9.5q-31 -19 -59.5 -44.5t-51 -56.5t-36.5 -66.5t-14 -74.5q0 -56 23.5 -91.5t61.5 -54.5t85 -22q12 -1 24 -1 q35 0 71 7q48 9 89.5 30t70.5 50q56 57 58 131q0 4 1 9q0 70 -39 132q-14 22 -29.5 40t-34.5 37q-23 23 -45 47t-42 50q-49 64 -81 133q-40 1 -80 6.5t-78 19.5q-72 25 -131 74t-92 118q-35 71 -35 151zM532 969q0 -64 25 -121q3 -7 6.5 -14.5t5.5 -14.5q3 -7 4.5 -9t8.5 0 q4 0 12 2q15 3 28.5 6.5t28.5 7.5q74 22 141.5 63t109.5 106q16 26 26 58q8 26 7 53v12q-2 32 -14.5 62t-37.5 53q-31 29 -68 34q-12 2 -25 2q-24 0 -48 -7q-36 -10 -71 -32.5t-58 -48.5q-38 -44 -58 -99.5t-23 -112.5z" />
<glyph unicode="T" horiz-adv-x="1167" d="M-64 1049q0 31 17.5 60.5t36.5 53.5q46 61 108 108.5t133 77.5q77 31 157 39q38 4 75 5q42 1 85 -5q80 -10 158.5 -34.5t152.5 -55.5q30 -12 59.5 -23t60.5 -20q11 -5 30 -10q7 -3 13 -5t12 4q18 22 38 42q26 26 56.5 46t66.5 29q27 7 55 8t55 -2q35 -3 71.5 -12.5 t63.5 -32.5q29 -25 29 -58q0 -35 -31 -58t-71 -31t-77 -9q-42 0 -84 4l-37 4q-7 1 -7.5 -1t-3.5 -8l-6 -17q-27 -76 -48 -154.5t-40 -156.5q-40 -158 -85.5 -316t-122.5 -303q-37 -70 -86 -130.5t-117 -102.5q-70 -44 -149 -52q-20 -2 -41 -2q-58 0 -116 17 q-61 18 -118 47.5t-105 71.5q-57 52 -88 123.5t-31 149.5q0 76 31 146t91 117q30 23 65 39t73 20q31 4 62.5 -3t52.5 -35q18 -23 17.5 -54t-17.5 -54q-16 -23 -40.5 -31t-50.5 -17q-34 -10 -67.5 -28.5t-60.5 -44.5t-45.5 -59t-22.5 -70q-1 -9 -1 -18q0 -30 11 -56 q14 -34 39.5 -60.5t59.5 -46t68 -30.5q63 -19 130 -19h10q72 2 131 46q30 23 53.5 53t43.5 63.5t35 69t29 69.5q25 61 43 124t37 127q23 82 45 162t48 161q25 78 55 154t78 145q-8 3 -16.5 5t-16.5 4q-71 20 -140 46.5t-143 37.5q-46 7 -91 7q-37 0 -71 -4q-80 -10 -153 -46 q-71 -34 -127 -86t-101 -116q-14 -19 -27.5 -39.5t-30 -36t-37.5 -23t-49 0.5q-30 7 -49 32t-20 57zM1181 1214q25 -3 50 -3q42 0 82 8q15 3 30.5 8t28.5 11q7 3 13 6.5t10 8.5l3 6q1 3 3 4q-3 -3 -7 0.5t-8 6.5q-7 3 -15 4t-15 3q-19 3 -40 3q-17 0 -34 -2 q-29 -3 -50.5 -14t-39.5 -34q-8 -11 -11 -16z" />
<glyph unicode="U" horiz-adv-x="1373" d="M-38 1000q8 76 44 142t97 112t139 57q23 3 47 3q29 0 58 -4q54 -8 99 -32q57 -31 84 -86.5t30 -118.5q1 -15 1 -29q0 -48 -8 -96q-10 -62 -28 -122.5t-43.5 -119.5t-52.5 -113q-23 -48 -46.5 -94t-47.5 -92q-27 -52 -54.5 -104.5t-47.5 -109.5q-4 -14 -10 -32t-8 -36.5 t2 -34.5t18 -27q19 -15 47 -21.5t53 -3.5q37 3 71.5 18.5t66 39t59.5 50.5t52 55q53 60 99 125.5t86 134.5q20 34 38.5 68.5t37.5 69.5q10 19 18.5 36.5t17.5 36.5q10 18 13 37.5t7 38.5q18 82 42 160t58 154q31 72 73.5 141t103.5 121q27 23 60.5 41.5t72.5 20.5 q18 1 36 -2.5t33 -12t26 -23t14 -35.5q1 -11 -1 -22.5t-15 -12.5q-11 0 -14.5 8t-9.5 15q-12 16 -27.5 15.5t-31.5 -10t-29.5 -24t-20.5 -23.5q-48 -61 -74.5 -137t-46.5 -150q-23 -82 -41 -162.5t-33 -162.5q-15 -79 -28 -158t-20 -160q-4 -41 -4 -82q0 -5 1 -9 q0 -36 3 -73q1 -14 4.5 -31.5t10 -34.5t16.5 -30t26 -16q23 -4 39.5 4.5t33.5 21.5q30 27 56 56t53 59l54 62l54 62q15 14 25 1.5t2 -27.5l-37 -71q-20 -35 -40.5 -69.5t-42.5 -68.5q-19 -27 -38 -53.5t-44 -49.5q-26 -23 -58 -36q-32 -12 -64 -13h-4q-30 0 -60 11 q-32 12 -57 35q-29 26 -48 59.5t-30.5 70t-17 75t-8.5 75.5q-4 43 -4 87q0 31 2 63q5 75 16 149q-38 -86 -81 -169.5t-95 -161.5q-38 -57 -87.5 -115.5t-108.5 -102.5q-59 -43 -127 -63q-35 -10 -72 -10q-36 0 -75 9q-60 15 -92 50.5t-43 82.5q-8 32 -8 68q0 16 2 34 q5 55 18.5 110t32 104.5t34.5 88.5q33 78 70 152t75 148q37 71 77 143.5t59 150.5q7 30 7 62v7q-1 36 -27 63q-23 25 -56 36.5t-66 16.5q-12 1 -23 1q-27 0 -49 -8q-32 -12 -57.5 -36.5t-43.5 -57.5t-27 -67q-11 -38 -12 -76v-6q0 -35 10 -69q4 -15 13 -28t16.5 -26 t12.5 -26.5t2 -30.5q-4 -30 -28.5 -47.5t-53.5 -13.5q-31 5 -49.5 31t-29.5 53q-24 57 -24 117q-1 15 1 30z" />
<glyph unicode="V" horiz-adv-x="1008" d="M12 1289q3 29 20 52t44 33t56 2t48 -30q24 -26 24 -60l-1 -72q0 -169 9 -337q14 -343 45 -684q74 71 144 144q7 7 8.5 10t-1.5 12q-5 15 -7 26l-8 49q-3 25 -5 49.5t-2 50.5q0 104 20 205.5t55 199.5q33 87 84.5 166t122.5 140q64 56 142 90q64 28 133 28q16 0 32 -2 q35 -3 70 -17t54 -48q18 -31 18 -68q-1 -4 -1 -6q-2 -40 -10 -75q-20 -78 -58.5 -149.5t-79.5 -141.5q-86 -141 -185 -274t-201 -263l-17 -20l8 -16l10 -14t12 -14q23 -23 58 -34q25 -7 50 -7q13 0 25 2q38 5 75 16q38 12 74 28t72 34l38 20q7 4 13 8t13 6q14 4 19 -11 q1 -8 -3.5 -13t-9.5 -10q-34 -31 -76 -63t-88.5 -57t-95.5 -41q-46 -15 -91 -15h-6q-48 1 -93 19.5t-83 63.5q-55 -66 -109.5 -131t-111.5 -130q-8 -11 -17.5 -20.5t-20.5 -16.5q-20 -12 -44.5 -13t-44.5 10q-23 12 -37 35t-14 49q0 31 -0.5 63t-0.5 65q-7 340 -29 680 q-5 86 -12 169t-15 168q-3 23 -5 44.5t-5 43.5q-3 18 -6 35.5t-2 36.5zM530.5 497.5q-0.5 -12.5 0.5 -26.5q67 72 132 145t126 150q61 76 119.5 154.5t103.5 166.5q16 33 31.5 70.5t15.5 76.5q-1 40 -31 53q-24 11 -51 11q-6 0 -13 -1q-38 -3 -71 -16.5t-61 -35.5t-52 -49 t-43 -57q-45 -68 -78.5 -142.5t-60.5 -151.5q-27 -78 -45 -158.5t-22 -162.5q0 -14 -0.5 -26.5z" />
<glyph unicode="W" horiz-adv-x="1137" d="M-154 1020q-6 28 -7 56q0 48 18 97q27 71 82.5 125t124.5 81q35 14 74 20q25 4 49 4l29 -1q39 -4 75.5 -18.5t67.5 -38.5q31 -26 49 -59q18 -34 24 -72q5 -29 5 -59q0 -9 -1 -19q-2 -40 -7 -77q-14 -82 -40 -159.5t-56 -155.5q-30 -79 -62.5 -156t-64.5 -155 q-31 -76 -60 -153.5t-44 -159.5q-3 -12 -4 -24.5t-2 -24.5v-6.5t1 -12.5t2 -12t3 -5v3q1 1 5 1.5t6 0.5q11 1 20 4.5t19 7.5q16 10 31 21.5t30 23.5q31 27 57 59t49 67q12 16 24 33t23 35l20 33l10 16t8 18q5 41 13 82t17 82q18 82 40 160t48 158q26 79 54.5 155.5 t63.5 151.5q16 37 35 71.5t42 67.5q20 30 45.5 57.5t59.5 42.5q29 14 61 11t51 -32q22 -31 22 -70.5t-4 -75.5q-8 -78 -28 -153.5t-45 -150.5q-51 -153 -119.5 -299t-158.5 -281q-45 -68 -94 -132l-28 -32q-5 -7 -2.5 -16t4.5 -16q4 -18 9.5 -34t14.5 -31q22 -37 50 -33 t55.5 27t50.5 54.5t35 49.5q78 117 134 245.5t108 258.5q61 152 118 302.5t114 303.5q5 15 11.5 33t14 34t17 31t23.5 25q26 16 56 15t53 -21q26 -22 30 -50.5t-4 -59.5q-44 -157 -100 -310t-123 -303q-66 -147 -142 -291.5t-177 -272.5q-22 -29 -48 -58t-56 -54.5 t-63.5 -44t-70.5 -23.5q-31 -5 -63 2t-58 28q-29 23 -45.5 55t-23.5 68q-27 -27 -57 -53.5t-64 -48t-71 -36t-77 -17.5q-30 -1 -59 8t-48 33q-24 30 -24 69q0 34 9 65q18 78 51 149.5t66 142.5q35 76 69.5 151.5t67.5 153.5q31 76 58.5 153.5t42.5 158.5q7 34 11 74 q2 21 3 43q0 19 -2 37q-4 40 -20 75t-51 55q-34 20 -72 26q-19 3 -37 3l-37 -3q-38 -6 -72.5 -24t-61.5 -44t-45 -58t-24 -67q-3 -16 -3 -31q0 -18 4 -38q8 -34 32 -65q11 -15 25.5 -27t29.5 -22q14 -10 29 -17t30 -16q25 -16 31 -46.5t-11 -56.5q-22 -33 -51 -32.5 t-60 16.5t-57.5 41.5t-41.5 44.5q-52 62 -68 138zM487 500q56 101 106.5 203.5t98.5 205.5q19 40 37 80t36 81q20 51 40.5 103.5t30.5 107.5q-30 -19 -54 -47t-45 -57q-20 -30 -38.5 -61.5t-36.5 -64.5q-33 -66 -59.5 -133t-48.5 -137t-38 -139.5t-29 -141.5z" />
<glyph unicode="X" horiz-adv-x="1499" d="M-2 938v9q0 71 22 141q23 74 68.5 134.5t116.5 92.5q59 27 125 31h16q57 0 110 -23q74 -30 129 -88t96 -124q42 -68 73 -139.5t58 -145.5l279 352l160 202q15 19 30.5 34.5t40.5 20.5q33 7 59.5 -6t41.5 -37t14.5 -54t-20.5 -56q-1 0 -1 -0.5t-2 -0.5q-25 -31 -51 -59.5 t-54 -58.5l-217 -240l-188 -208l-38 -42q-3 -3 1.5 -16.5t7.5 -16.5q5 -19 11 -38.5t12 -38.5q11 -40 23.5 -80.5t24.5 -79.5q12 -40 26.5 -78t29.5 -78q15 -35 31.5 -69.5t39.5 -65.5q11 -15 24.5 -27.5t30.5 -21.5q10 -5 21.5 -11t21.5 -4q31 -4 61 8t54 30 q64 42 115.5 101.5t92.5 123.5q4 7 8.5 14.5t11.5 10.5q12 5 20.5 -6t1.5 -21q-14 -25 -28 -49.5t-29 -47.5q-41 -66 -90.5 -129.5t-116.5 -102.5q-56 -34 -117 -36h-6q-58 0 -113 27q-70 35 -120 97.5t-86 129.5q-40 71 -69 146t-55 153l-19 -20l-388 -431l-153 -168 q-4 -7 -11 -10q-8 -10 -19 -10.5t-20 4t-13.5 15t-0.5 22.5q4 11 12 20t15 17l362 457l160 204q8 10 15.5 18.5t14.5 18.5q1 1 -0.5 8t-4 14.5t-5 14t-4.5 9.5l-22 76l-23 77q-18 57 -37 113t-42 112q-14 33 -31 68t-39.5 64t-52.5 50.5t-68 27.5q-19 3 -38 3q-40 0 -78 -14 q-56 -21 -92 -72q-23 -33 -30 -71q-4 -22 -4 -43q0 -16 2 -32q5 -38 20 -74.5t35 -67.5t48 -58t59 -46q19 -11 34.5 -22.5t25.5 -33.5q12 -29 6 -56.5t-25 -47.5t-47 -27.5t-57 3.5q-22 10 -41.5 26t-34.5 33q-55 55 -84 123q-31 71 -33 147z" />
<glyph unicode="Y" horiz-adv-x="1137" d="M-70 996q-2 15 -2 30q0 24 4 49q11 70 49 126.5t87 102.5q57 51 126 85q62 31 133 31h13q76 -3 135.5 -46t85.5 -114q21 -53 21 -111v-7q-2 -62 -17 -122q-19 -74 -51 -143t-65 -138q-11 -23 -20.5 -46t-12.5 -46q-1 -8 -1 -15q0 -30 17 -50q20 -26 58 -35q21 -5 42 -5 q15 0 30 2q36 6 70 20t65.5 34t58.5 42q60 49 102 116t73 138q30 66 51 138q11 40 17 81t10 82q3 20 4 40t3 39q3 31 15 53q16 25 43.5 37t55.5 7q29 -5 49.5 -26t27.5 -49q4 -20 0 -39.5t-11 -38.5q-64 -242 -152 -481q-56 -149 -122.5 -294t-165.5 -274 q-46 -61 -103.5 -113t-129.5 -83q-71 -30 -150 -31q-6 -1 -11 -1q-73 0 -142 19q-76 20 -131.5 73.5t-74.5 131.5q-9 35 -9 70q0 5 1 10q1 40 13 80q11 31 31 64t51 49q29 16 59 11t50.5 -25t28.5 -49.5t-6 -59.5q-12 -27 -25 -51t-20 -54q-3 -17 -3 -35q0 -20 4 -40 q8 -38 34 -67t60 -43t72 -16h16q30 0 59 5q38 8 71 23q70 33 123 89.5t94 119.5q90 138 144 293.5t90 313.5q-35 -111 -99 -205.5t-166 -153.5q-52 -30 -110 -46q-41 -12 -83 -12q-19 0 -37 2q-59 7 -107 39t-73 88q-21 51 -21 104q0 16 2 31q8 70 30 134q26 74 62 141 t66 138q12 27 18 58.5t1.5 61t-20 54.5t-45.5 41q-33 18 -70 20h-8q-32 0 -64 -10q-35 -11 -67.5 -30.5t-56.5 -45.5q-23 -25 -37 -58t-19 -69q-2 -19 -2 -38q0 -17 2 -34q4 -36 16 -66q5 -15 15 -28t18 -26t12 -27.5t0 -32.5q-7 -30 -32 -45.5t-55 -8.5q-15 4 -27.5 13.5 t-21 22.5t-15.5 27.5t-11 27.5q-14 37 -17 76z" />
<glyph unicode="Z" horiz-adv-x="1332" d="M-6 -17q-1 12 6 23.5t16.5 22.5t16.5 17q27 29 55.5 55t60.5 49q8 4 13 10l118 110l465 439q71 68 142 134t144 135q-50 -11 -101 -11q-62 0 -124 17q-44 14 -81.5 34.5t-77.5 39.5q-52 25 -108.5 42t-113.5 21q-27 1 -56.5 0t-57 -9.5t-52 -22.5t-42.5 -36 q-19 -26 -19 -61.5t11 -64.5q11 -35 35.5 -63t55.5 -45q27 -15 54.5 -20t57.5 -10q29 -3 49 -24t21 -50q1 -30 -18.5 -52.5t-49.5 -26.5q-27 -3 -57.5 3.5t-56.5 17.5q-35 14 -66 36t-53.5 51.5t-36 64.5t-14.5 74v15q0 62 21 124q24 70 73 118q56 55 131 83.5t152 35.5 q22 2 44 2q53 0 105 -12q74 -17 141 -54q65 -35 133 -43q24 -3 47 -3q45 0 92 10q64 15 125 41t118 57q8 4 19 12.5t23.5 14t24 6t19.5 -8.5q10 -11 8 -23.5t-9.5 -25.5t-18 -24.5t-15.5 -19.5q-46 -59 -108 -105q-16 -12 -32.5 -22.5t-33.5 -21.5l-7 -4l-102 -96l-460 -432 l-291 -272q72 20 142 20h13q77 -2 148 -42q55 -30 102 -67.5t104 -62.5q60 -25 120 -25q16 0 31 2q76 8 146 51q34 22 64.5 47.5t57.5 54.5q12 15 24 28.5t23 28.5q4 7 8 12.5t12 6.5q18 4 23.5 -9.5t-1.5 -25.5l-16 -29q-38 -66 -92 -124q-52 -57 -116.5 -101t-139.5 -63 q-53 -13 -106 -13l-50 3q-78 9 -149 42q-25 11 -46.5 23.5t-44.5 27.5q-23 14 -46 25.5t-46 24.5q-35 19 -70.5 34.5t-75.5 18.5q-9 1 -18 1q-26 0 -52 -6q-34 -8 -65 -22q-23 -11 -47 -24t-43 -31l-56 -53q-5 -5 -12 -11.5t-14 -11.5t-15 -6t-16 4q-15 8 -16 20z" />
<glyph unicode="[" horiz-adv-x="389" d="M-45 -280q12 61 24.5 122.5t23.5 123.5q27 146 53 291.5t50 292.5q20 124 39 245t37 244q7 44 12 86t11 85q3 20 4 45.5t8.5 47t22.5 36t44 13.5l183 -14q15 -1 30.5 -2t30.5 -3q22 -1 33.5 -16.5t11.5 -33t-11.5 -32.5t-33.5 -17l-191 -15q-40 -187 -71 -372.5 t-63 -374.5q-49 -294 -90 -583l-17 -125l178 -18q10 -1 19.5 -2t17.5 -3q14 -7 20 -19.5t4 -25.5t-11.5 -23t-24.5 -12q-26 -4 -51 -5t-51 -4l-76 -8t-77 -7q-10 -1 -19 -2.5t-18 -0.5q-33 4 -46 30t-6 56z" />
<glyph unicode="\" horiz-adv-x="660" d="M-206.5 1343q8.5 26 34.5 40q25 14 51.5 5.5t39.5 -32.5l949 -1770q4 -8 1.5 -16t-9.5 -14q-8 -4 -17 -2t-13 10l-1029 1725l-2 3q-14 25 -5.5 51z" />
<glyph unicode="]" horiz-adv-x="389" d="M-153 -299q0 18 11 33t34 16l190 15q40 187 72 373t63 374q49 294 90 583l17 126l-178 17q-10 1 -19.5 2t-17.5 4q-15 7 -20.5 19t-3.5 25t11.5 23.5t25.5 11.5q26 4 51 5.5t51 4.5q38 4 75.5 8t75.5 7q10 1 19.5 2.5t19.5 -0.5q33 -4 45.5 -30t6.5 -56 q-12 -61 -24.5 -122.5t-23.5 -122.5q-27 -146 -53 -291.5t-51 -293.5q-20 -124 -38.5 -245t-36.5 -244q-7 -44 -12.5 -86t-10.5 -84q-3 -20 -4.5 -45.5t-9 -47.5t-22.5 -37t-43 -12l-185 13l-30 2t-30 4q-23 1 -34 16t-11 33z" />
<glyph unicode="^" horiz-adv-x="567" d="M-4.5 639q-7.5 29 5.5 56q7 12 16 20.5t20 16.5l100 69l214 151q12 8 22.5 7t18.5 -7.5t14 -17t12 -19.5l75 -124l57 -96q11 -16 10.5 -35.5t-15.5 -34.5q-20 -22 -49.5 -15.5t-40.5 33.5l-92 228l-127 -150l-86 -103q-4 -5 -8 -10.5t-10 -9.5q-23 -20 -53 -22.5 t-53 15.5q-23 19 -30.5 48z" />
<glyph unicode="_" d="M8 -87q-3 23 23 40.5t63 19.5h6l416 -14q29 -1 48 -14t19 -31q-1 -19 -20.5 -30.5t-46.5 -13.5l-415 -13q-38 -1 -64.5 15t-28.5 41z" />
<glyph unicode="`" horiz-adv-x="572" d="M5 1085q8 35 39 53t67 9q10 -5 19 -7l407 -229q10 -5 13 -15t-3 -19q-4 -8 -12 -11.5t-16 -1.5l-452 118q-35 11 -53 40t-9 63z" />
<glyph unicode="a" horiz-adv-x="765" d="M-25 113q-2 26 -2 52q-1 54 9 108q14 81 43 156q27 71 66 139t97 117q61 51 137 61q16 2 31 2q60 0 118 -31q23 -14 48 -32.5t41 -41.5q15 -25 14 -55.5t-19 -53.5q-19 -23 -47.5 -32.5t-57.5 -1.5q-27 8 -42.5 28.5t-39.5 34.5q-15 10 -30.5 9t-30 -7.5t-27.5 -16.5 t-24 -20q-27 -27 -48 -57.5t-39 -63.5q-37 -69 -62 -147q-22 -68 -21 -134v-22t2 -23.5t6 -23.5t11.5 -18.5t19.5 -7.5q14 -3 27.5 7t23.5 17q14 12 25.5 25.5t22.5 28.5q23 33 42 69t37 73l34 81q7 16 10.5 34t8.5 35q7 25 18 45.5t34 32.5q27 15 56 11.5t52 -22.5 q22 -19 30 -47t-2 -55q-10 -29 -20 -57t-18 -56q-4 -15 -14 -52t-14 -75q-1 -12 -1 -23q0 -23 5 -42q8 -28 41 -26h1q10 -3 24 7t21 17q26 23 51 53q23 27 42.5 56t39.5 59q14 20 26.5 41t23.5 43q7 11 18.5 14t19.5 -8q7 -7 5 -16t-5 -17q-20 -66 -47.5 -128.5 t-64.5 -120.5q-19 -30 -44 -58t-58 -44q-22 -11 -47 -15t-49 -1q-41 4 -70 25t-48.5 52t-29.5 67.5t-11 73.5q-12 -30 -30 -62.5t-40.5 -61.5t-51.5 -50t-65 -25q-34 -4 -61 7t-46.5 32t-32 49t-17.5 58q-4 16 -5 31z" />
<glyph unicode="b" horiz-adv-x="748" d="M-1 296q4 78 15 155q7 35 11 70.5t10 71.5q7 37 16 73.5t19 72.5q22 78 45.5 153t51.5 150q23 63 47 125.5t63 118.5q23 30 50.5 57.5t61.5 42.5q26 12 56 13q6 0 12 -1q37 -3 59 -34q22 -32 22 -72q0 -8 1 -15q0 -32 -2 -60q-5 -64 -28 -132q-31 -98 -75.5 -188.5 t-93.5 -181.5q-23 -44 -47 -87.5t-47 -88.5q-23 -41 -39.5 -85t-26.5 -92q-8 -40 -14 -81t-8 -82v-13q0 -26 3 -57q4 -39 26 -66q12 -15 31.5 -19t38.5 -3q38 3 73 18t65 38q-48 29 -77.5 77.5t-40.5 102.5q-6 33 -6 66q0 42 10 85q18 76 56 141q16 29 39 58.5t51 52.5 q28 22 60 36q25 10 52 11q8 0 17 -1q35 -4 64.5 -21.5t47.5 -47.5q20 -31 24 -69q3 -26 3 -51q0 -11 -1 -22q-7 -78 -33.5 -154t-62.5 -145q31 11 59 30.5t53 42.5q25 20 45 46q7 8 17 9t19 -8q7 -8 3.5 -20t-11 -23.5t-16.5 -21.5t-13 -16q-23 -31 -48 -59t-55 -53 q-27 -23 -59 -42.5t-69 -26.5q-7 -1 -11.5 -1.5t-9.5 -5.5l-10 -14l-26 -28q-12 -12 -26 -24.5t-29 -23.5q-49 -37 -111 -55q-34 -10 -68 -11l-56 7q-40 10 -68.5 31.5t-49 52.5t-33.5 67t-18 73q-9 57 -9 115q0 19 1 39zM298 818l28 41q35 55 68 112t57 119q11 29 19 58.5 t11 61.5q1 19 0.5 36.5t-6.5 35.5q-3 8 -5 15.5t-7 14.5t-5.5 5t-2.5 -5q-14 -7 -23 -21t-16 -28q-8 -16 -14 -33.5t-13 -34.5q-8 -25 -16 -49.5t-15 -49.5q-5 -14 -7.5 -28t-5.5 -29q-7 -33 -13.5 -65.5t-13.5 -65.5zM442 366v-14q0 -36 12 -68q16 -38 50 -64q53 85 75 176 q5 20 9.5 43.5t5 46.5t-2.5 45.5t-12 43.5q-8 20 -20.5 20t-24.5 -10t-22.5 -24.5t-15.5 -23.5q-23 -38 -37 -82t-17 -89z" />
<glyph unicode="c" horiz-adv-x="779" d="M-16 177v16q0 71 23 139q26 76 65 143q40 66 94 121t123 91q52 26 110 32q9 1 17 1q49 0 95 -29q34 -22 55 -54q22 -31 32 -69q10 -36 11 -74q0 -41 -11 -80q-11 -35 -31 -68t-48 -58q-19 -18 -43.5 -31t-52.5 -11q-33 1 -55.5 20t-31 46t-2 55.5t32.5 48.5q19 15 33 31 t21 40q4 15 6 33.5t-1.5 35t-14 29.5t-27.5 18q-33 10 -62.5 4t-55.5 -22.5t-47 -40.5t-36 -50q-39 -67 -49 -148q-3 -24 -3 -47q0 -56 16 -109q11 -31 29.5 -59.5t50.5 -41.5q19 -8 38.5 -11t38.5 -4h16q72 0 138 24q73 28 139 70q34 22 65.5 46t62.5 50l44 36q4 4 8.5 9 t11.5 8q15 5 20.5 -8.5t-1.5 -24.5t-13 -20.5t-13 -19.5q-45 -66 -99 -124q-51 -55 -109.5 -102t-125.5 -81q-57 -29 -120 -41q-31 -6 -62 -7l-64 7q-75 16 -129 68t-76 126q-11 41 -13 87z" />
<glyph unicode="d" horiz-adv-x="887" d="M-16 232q2 58 16 113.5t36.5 109t54.5 98.5q35 49 81 90t102 64q26 11 55.5 16.5t58 3.5t54.5 -13t45 -35q15 83 33.5 164t46.5 161q25 74 55.5 147.5t77.5 136.5q16 22 38 45t47.5 41.5t53.5 28.5t59 7q45 -4 62.5 -32t17.5 -65.5t-10 -76.5t-18 -66 q-46 -153 -104 -301.5t-124 -293.5q-15 -31 -30 -64t-31 -65q-10 -18 -11 -39q-3 -20 -4.5 -41t-2.5 -41q-3 -41 -5 -83q-1 -17 -1 -33q0 -25 2 -49q1 -19 2.5 -39.5t8.5 -39.5q0 -1 1.5 -6t3.5 -10t3 -9l1 -4q20 -3 40.5 5.5t37.5 21t31 30t27 32.5q30 40 53 83.5t42 89.5 q5 11 11 19t18 11q15 3 26 -6t12 -24q1 -12 -3 -26t-6 -24q-4 -19 -9.5 -36.5t-11.5 -34.5q-12 -35 -28 -71.5t-37 -69.5t-48.5 -61t-61.5 -47q-27 -16 -56.5 -22.5t-58 -2t-54 18.5t-45.5 42q-23 29 -37.5 64t-23.5 72.5t-13.5 76t-6.5 73.5q-23 -48 -47.5 -93.5 t-54.5 -89.5q-26 -40 -57.5 -76t-73.5 -59q-33 -19 -71 -19q-1 1 -2 1q-39 0 -72 22q-41 27 -61 74t-28 93q-6 44 -6 90v23zM141.5 107q-0.5 -14 0.5 -28.5t6 -26t16 -11.5q15 -1 29.5 5t27 15.5t24.5 21t21 21.5q55 56 98 120.5t80 131.5l12 24q1 7 1 19q0 10 1 18t-2 19 q-3 19 2 35t8 36q1 12 2.5 22t-5.5 21q-8 14 -19 28q-11 12 -22.5 17.5t-26.5 -1.5q-31 -15 -57.5 -39.5t-48.5 -52.5q-23 -27 -41.5 -57.5t-33.5 -63.5q-27 -59 -47.5 -123t-24.5 -130q0 -7 -0.5 -21zM713 789q41 66 75.5 134t63.5 139q15 35 27.5 71t20.5 71q4 19 6.5 37 t2.5 37q0 16 -4 33q-1 1 -4.5 8.5t-4.5 4.5q0 -3 0.5 -3.5t-0.5 -2.5q-3 1 -12 -10.5t-10 -14.5q-15 -25 -26 -52t-21 -55q-45 -123 -77 -243z" />
<glyph unicode="e" horiz-adv-x="782" d="M-22 162q-1 14 -1 28q1 30 5 60q6 44 20 88t33 84q38 78 93 145t130 110q30 19 65.5 32t71.5 16q9 1 17 1q27 0 54 -8q35 -10 65 -35q30 -26 46.5 -59.5t22.5 -70.5q3 -18 2.5 -37t-2.5 -38q-6 -38 -20 -72q-26 -74 -82 -129q-25 -23 -53.5 -37.5t-60.5 -21.5 q-34 -9 -68 -9h-6q-38 1 -73 12t-63.5 33t-49.5 56q0 -25 2 -51t8.5 -51.5t17 -49t28.5 -41.5t41 -28t49 -14t53 -3.5t50 3.5q57 7 107.5 29.5t98.5 52.5q45 29 86.5 62.5t81.5 68.5q7 7 13 14t13 13q11 11 24.5 3t8.5 -23q-3 -7 -8 -13t-9 -13q-11 -15 -23 -30.5t-25 -30.5 q-51 -61 -107 -116t-122 -100q-64 -44 -137 -74q-56 -24 -118 -24q-18 0 -36 2q-78 8 -138 56.5t-87 122.5q-15 43 -18 87zM127 359q23 -16 49 -27t53 -13q7 -1 13 0q26 -1 52 9q32 12 60 31q16 11 27.5 26.5t19.5 35.5q22 47 22 100q0 12 -1 24q-1 11 -3.5 22.5t-10.5 19.5 q-10 10 -22.5 14t-26.5 7q-31 5 -60 -3t-53.5 -26t-44 -42.5t-33.5 -50.5q-30 -59 -41 -127z" />
<glyph unicode="f" horiz-adv-x="368" d="M-142 -350q3 25 7 49.5t8 47.5l25 133q30 149 63.5 295.5t68.5 295.5q41 164 86 328q23 81 46.5 160t50.5 156q25 68 60.5 131t89.5 111q25 20 55 36q25 13 53 13h11q35 -3 53 -28t21 -58q1 -12 1 -24q0 -26 -5 -53q-6 -39 -14 -76q-11 -40 -22.5 -78t-25.5 -76 q-23 -67 -50.5 -131t-61.5 -127l-76 -142t-66 -147q-4 -14 -8.5 -26.5t-7.5 -27.5l-18 -79l-37 -164q44 48 94.5 89t109.5 68q11 5 26 4.5t13 -19.5q-3 -12 -15 -18t-20 -13q-25 -16 -47 -36t-41 -42q-52 -59 -91.5 -126.5t-69.5 -141.5q-11 -26 -21 -52.5t-17 -54.5 q-3 -14 -6.5 -27.5t-7.5 -27.5q-7 -27 -13 -53t-13 -54q-3 -18 -7 -35.5t-13 -32.5q-15 -26 -42 -37t-56 -4q-3 0 -7 1.5t-7 2.5q-27 11 -43 36.5t-13 53.5zM311 827q45 57 78.5 120t61.5 130q12 30 22 61t19 62q8 34 8 71q0 3 -1 12.5t-3 19.5t-5.5 17.5t-8.5 7.5v-2 q0 -1 1 -3q-14 -5 -22 -20t-15 -28q-8 -15 -14 -31.5t-13 -32.5l-20 -59q-15 -41 -26.5 -81t-22.5 -82q-11 -40 -20 -81t-19 -81z" />
<glyph unicode="g" horiz-adv-x="744" d="M-165 -447q3 32 13 61.5t28 56.5t38 49q34 35 74.5 62.5t81.5 50.5q34 19 67.5 37.5t68.5 38.5l44 23q3 1 5.5 1.5t3.5 3.5q7 19 14 44q15 48 28.5 95.5t27.5 95.5q-15 -25 -33.5 -48.5t-40.5 -43.5t-47.5 -33.5t-55.5 -16.5q-29 -3 -57 5.5t-50 28.5q-27 27 -38.5 62.5 t-14.5 72.5q-2 21 -2 43q0 56 14 112q18 77 51 147q31 70 80 132t120 95q50 23 101 23q22 0 44 -5q74 -14 134 -62q20 -15 36.5 -33.5t22.5 -44.5q5 -30 -8 -57t-39 -42t-56 -13t-53 21q-19 18 -37 37t-45 24q-18 3 -35 -2.5t-32 -16t-28.5 -22.5t-24.5 -24 q-27 -29 -47.5 -62.5t-35.5 -68.5q-18 -37 -29.5 -76t-16.5 -79q-1 -12 -1.5 -29t3 -32t11.5 -26t24 -12q31 0 56 17t45 37q27 29 50 61t42 68q12 22 23.5 45t22.5 46q12 26 27.5 46.5t46.5 28.5q30 7 58.5 -4.5t43.5 -37.5q15 -22 15 -45t-6 -47q-16 -70 -35.5 -136 t-39.5 -133q48 31 95 68t86 81q11 11 20.5 22.5t19.5 22.5q7 7 13 18.5t17 13.5q11 3 17 -6t0 -19q-7 -12 -14 -25t-16 -25q-34 -52 -75.5 -96.5t-89.5 -84.5q-23 -20 -46 -38.5t-48 -37.5q-7 -4 -13.5 -9t-9.5 -12q-1 -10 -7 -21l-20 -55q-29 -75 -62.5 -149t-74.5 -143 q-18 -29 -37.5 -58.5t-43.5 -55.5t-51.5 -47.5t-60.5 -33.5q-34 -14 -71 -14h-3q-39 1 -73.5 15.5t-62 41t-39.5 66.5q-10 30 -7 62zM-30 -448q-1 -15 5.5 -24.5t18 -13.5t25.5 -2.5t25 7.5q15 10 28.5 24.5t24.5 29.5q35 49 60.5 103.5t48.5 110.5q-42 -27 -83 -55t-78 -61 q-25 -23 -48 -53.5t-27 -65.5z" />
<glyph unicode="h" horiz-adv-x="847" d="M-64 -0.5q1 16.5 4 34.5q3 27 7.5 56t10.5 56q35 201 82 396q34 145 71.5 287.5t89.5 281.5q26 71 63.5 139t97.5 115q23 19 53 32t62 11q40 -4 55 -34.5t15 -65.5v-8q1 -62 -15 -120q-16 -62 -36 -125q-23 -70 -50 -136.5t-61 -132.5q-37 -71 -76 -141t-69 -145 q-18 -44 -26 -89.5t-19 -89.5q29 66 62.5 126.5t71.5 120.5q20 33 43.5 63.5t51 56t60.5 43t73 23.5q27 4 54.5 0.5t50.5 -18.5q30 -19 46.5 -50t20.5 -66q2 -14 2 -29q-1 -23 -5 -47q-6 -38 -18.5 -75.5t-28 -73.5t-29.5 -70l-63 -146q-14 -33 -27 -68t-15 -70q35 7 65 30 t56 46q29 25 55.5 52.5t51.5 55.5q35 41 68 81q7 8 18 8t12 -14q1 -10 -5.5 -20t-10.5 -16q-35 -71 -80 -139t-102 -124q-20 -20 -50 -40.5t-61.5 -30t-62.5 -4t-55 35.5q-22 27 -26 64q-2 24 -3 46q0 13 1 25q3 40 11.5 78t18.5 76q19 78 42 153t38 153q-70 -20 -121 -69.5 t-94 -106.5q-44 -60 -81 -123t-69 -130q-10 -20 -16.5 -38t-10.5 -39l-14 -52q-4 -16 -9 -33t-15 -30q-16 -19 -41 -28t-50 -2q-51 14 -65 61q-5 16 -4 32.5zM306 833q46 60 80.5 126t61.5 136q11 27 20 54.5t15 56.5q7 33 7 63v8q0 19 -5 34q0 1 -5 11.5t-8 7.5 q0 -1 2.5 -2.5t-0.5 -3.5q-12 -8 -21 -20q-12 -16 -21 -35.5t-16 -38.5l-39 -112q-18 -52 -31 -106t-24 -108z" />
<glyph unicode="i" horiz-adv-x="421" d="M-18 214q10 74 26 145q16 74 37.5 145t45.5 140q8 23 17 46t30 38q23 19 51.5 21t54.5 -13q25 -15 38 -41t9 -55q-3 -19 -11 -36t-15 -33q-33 -76 -62.5 -153t-52.5 -154q-11 -38 -20.5 -77.5t-12.5 -78.5q0 -5 -1 -17.5t0 -25t4.5 -21.5t13.5 -7q12 -1 26.5 8.5 t25.5 15.5q15 11 28.5 23t27.5 25q31 29 57.5 60.5t54.5 62.5l45 57q7 8 12 16.5t12 15.5q11 11 25.5 2.5t10.5 -23.5q-3 -11 -8.5 -20.5t-9.5 -17.5q-34 -68 -76 -134q-20 -34 -43.5 -66t-51.5 -61q-23 -26 -51.5 -48.5t-64.5 -28.5q-27 -7 -57 -2.5t-53 22.5 q-29 22 -43 54.5t-19 67.5q-6 38 -6 76q1 36 6 72zM228 1046q0 25 9.5 46.5t26 38t38.5 26t46 9.5q25 0 46.5 -9.5t38 -26t26 -38.5t9.5 -46q0 -25 -9.5 -46.5t-26 -38t-38 -26t-46.5 -9.5t-46.5 9.5t-38 26t-26 38t-9.5 46.5z" />
<glyph unicode="j" horiz-adv-x="505" d="M-411 -498q-5 22 -5 43q0 22 6 43q11 42 35 79q34 55 83.5 93t103.5 69q49 27 98.5 54t99.5 54q5 3 5.5 9t3.5 12l12 37l22 75l22 76t22 78q41 160 78 319q-33 -56 -65 -110.5t-64 -110.5l-15 -27q-5 -11 -14 -11.5t-15.5 4t-9.5 13t3 17.5l49 88q38 66 75 129t74 129 q18 31 40 55.5t62 24.5q30 0 54.5 -17.5t35.5 -45.5q7 -20 4 -39t-7 -40q-31 -135 -67 -268t-79 -266q68 44 129.5 96t109.5 117q4 7 9 12.5t13 5.5q8 -1 13 -8t3 -14q-5 -18 -17.5 -35t-23.5 -32q-48 -68 -106 -123q-29 -29 -59.5 -54.5t-63.5 -50.5q-10 -7 -18.5 -13.5 t-18.5 -13.5t-12.5 -14.5t-6.5 -18.5q-7 -19 -13.5 -36.5t-13.5 -35.5q-29 -78 -61.5 -152.5t-76.5 -143.5q-33 -53 -76.5 -102.5t-106.5 -68.5q-31 -9 -64 -9h-13q-39 2 -74 17t-62 42.5t-37 68.5zM-280 -449q-1 -15 7 -22.5t20.5 -10.5t26.5 -1.5t24 5.5q15 5 27.5 17.5 t21.5 26.5q38 49 64 107t49 117q-42 -27 -83.5 -56t-79.5 -62q-25 -23 -49.5 -54.5t-27.5 -66.5zM262 1053q0 25 9.5 46.5t26 38t38.5 26t46 9.5q25 0 47 -9.5t38 -26t25.5 -38.5t9.5 -46q0 -25 -9.5 -47t-25.5 -38t-38 -25.5t-47 -9.5t-46.5 9.5t-38 25.5t-26 38t-9.5 47z " />
<glyph unicode="k" horiz-adv-x="834" d="M-77 -37.5q-6 21.5 5 32.5h-4q8 57 21.5 112t28.5 111q34 135 62 270t64 270q22 82 45 161.5t52 159.5q23 64 53.5 124.5t77.5 112.5q23 26 51 48.5t63 29.5q27 7 53.5 -2.5t38.5 -37.5q11 -25 11 -55q-1 -7 -1 -15q-4 -40 -9 -74q-4 -27 -11 -52.5t-15 -51.5 q-41 -143 -105 -279q-31 -68 -69.5 -131.5t-70.5 -131.5q30 44 62 78q23 26 52.5 49t61.5 37q32 16 68 18h11q30 0 60 -11q30 -12 53 -35t37.5 -51.5t18.5 -60.5q1 -12 1 -23q0 -20 -3 -41q-15 -66 -57.5 -119.5t-90.5 -98.5q-25 -23 -56 -45.5t-66 -38.5t-72 -24 q-24 -5 -47 -5q-12 0 -25 1q22 -19 44.5 -38t45.5 -36q27 -19 59 -36.5t66 -17.5q27 1 54 5t52 15q35 16 65.5 42t58.5 54q30 29 57 58.5t55 61.5q5 7 10.5 13t15.5 3q7 -1 11.5 -7.5t1.5 -12.5q-1 -8 -6 -17t-9 -17l-16 -35q-19 -35 -38 -70.5t-43 -71.5q-20 -31 -43.5 -61 t-48.5 -59q-25 -27 -55.5 -48t-69.5 -30q-20 -4 -41 -4q-16 1 -32 3q-36 6 -70 22t-63.5 41.5t-51.5 53.5q-49 64 -71 137q-5 19 -9 39.5t-4 39.5q-1 7 -2.5 12.5t3.5 10.5q4 5 9 4.5t10 -2.5q21 -9 43 -9q16 0 32 5q38 12 70 32q29 19 54.5 44t44.5 55q37 52 56 114 q3 10 6.5 22.5t4 25t-2 23.5t-12.5 20h3q-3 3 -9.5 1.5t-14 -5t-15 -7.5t-9.5 -6q-14 -7 -26 -15.5t-24 -18.5q-23 -16 -43.5 -33t-41.5 -37q-19 -19 -38 -37.5t-38 -38.5l-45 -56q-4 -7 -8.5 -12.5t-9.5 -10.5q-4 -7 -5 -15t-3 -15q-14 -66 -31 -129.5t-32 -128.5 q-7 -26 -11 -53t-22 -46q-16 -19 -40 -27t-49 -4q-20 4 -37 15.5t-28 30.5q-7 11 -13 32.5zM289 801q49 61 87 128.5t66 140.5q25 60 41 126q5 18 7 35t2 35q0 19 -5 39q-1 1 -5 12t-7 10v-3q0 -1 -0.5 -1.5t-0.5 0.5q-5 -1 -9.5 -4.5t-7.5 -6.5q-15 -14 -24.5 -31 t-16.5 -36q-14 -31 -24 -62.5t-21 -62.5q-20 -64 -37 -129t-32 -131z" />
<glyph unicode="l" horiz-adv-x="458" d="M-2 385q2 74 11 147.5t21 146.5q14 82 33 161.5t45 157.5q25 74 55.5 147.5t78.5 136.5q18 25 43 51.5t55 45.5t63 27q12 3 23 2q21 0 42 -9q34 -15 44 -49q6 -23 7 -46q0 -12 -2 -25q-4 -35 -13.5 -70t-20.5 -70q-49 -152 -106.5 -299.5t-123.5 -292.5l-55 -116 q-7 -12 -7.5 -25t-2.5 -26l-5 -77q-3 -39 -5 -79v-27q0 -26 2 -52q3 -19 5 -38.5t9 -38.5q0 -1 4.5 -10.5t2.5 -9.5q26 -3 49.5 8.5t43.5 28.5q29 23 52.5 50t43.5 59q19 27 36.5 56.5t33.5 59.5q3 7 7 14.5t11 11.5q12 7 25.5 3t20.5 -18q5 -11 1.5 -23.5t-6.5 -23.5 q-11 -37 -25 -68q-15 -38 -32.5 -74t-40.5 -71q-19 -29 -42.5 -54.5t-51 -46t-59.5 -33.5t-67 -14h-4q-35 0 -63 15q-29 16 -51 42.5t-36 59.5t-22 64q-18 71 -24 144q-4 52 -4 104q0 21 1 43zM255 785q40 66 74 132.5t63 137.5q14 34 26.5 67.5t21.5 69.5q4 19 6.5 37.5 t4.5 37.5q0 5 -1 14t-3 17.5t-5.5 11.5t-8.5 -1q-8 -7 -17.5 -23t-19.5 -36.5t-18.5 -43t-15.5 -41.5q-20 -57 -39 -115.5t-34 -118.5q-10 -35 -18.5 -72t-15.5 -74z" />
<glyph unicode="m" horiz-adv-x="1116" d="M-88.5 -12.5q-2.5 20.5 2.5 41.5q5 19 10 36t9 36q40 141 77.5 278t75.5 278q7 25 20 46t43 23q31 3 52.5 -19t18.5 -52l-6 -32l-45 -253q23 63 50.5 124.5t63.5 118.5q10 15 20.5 29.5t21.5 29.5q14 19 29 36t36 28q23 12 48.5 15t50 -4t45 -22t35.5 -37 q16 -26 23 -56.5t6.5 -62.5t-5.5 -64.5t-10 -60.5l55 102q18 33 38 65t44.5 60t55 48t69.5 28q27 4 54 1t50 -16q33 -18 50.5 -50t20.5 -69q1 -11 1 -23q0 -26 -5 -52q-7 -38 -20.5 -75t-30 -72.5t-32.5 -68.5q-18 -37 -36 -73.5t-34 -75.5q-15 -33 -29.5 -67.5t-19.5 -70.5 q34 7 64 30.5t56 46.5q31 27 59 56t56 60l45 53q4 5 7.5 11t8.5 10q4 7 12 6t13 -8q4 -7 1 -13t-6 -13q-8 -16 -19 -35q-37 -70 -82 -138t-105 -120q-20 -19 -46.5 -35.5t-55.5 -23.5t-57.5 -1.5t-50.5 30.5q-25 27 -29 64q-2 18 -2 36t2 35q4 37 13 74t20 72 q23 78 48.5 153.5t44.5 153.5q-57 -30 -99 -74t-77 -95q-37 -52 -70 -106.5t-63 -111.5q-16 -31 -27 -67.5t-24 -70.5q-7 -15 -13.5 -31.5t-16.5 -30.5q-20 -25 -49 -30t-54.5 6t-42 34t-13.5 56q1 16 7.5 32.5t13.5 31.5l49 145q12 40 23.5 80t21.5 79q11 38 18.5 77 t10.5 79q-38 -40 -68.5 -85.5t-57.5 -93.5t-53 -97.5t-50 -101.5q-19 -42 -37 -86l-36 -88q-7 -19 -15 -36t-26 -30q-27 -20 -56 -20q-9 0 -19 2q-22 4 -38.5 15.5t-26 28.5t-12 37.5zM795 35q1 0 2.5 -0.5t2.5 -0.5h-4q0 1 -1 1z" />
<glyph unicode="n" horiz-adv-x="828" d="M-79 26q3 10 5 18.5t4 18.5l55 198l86 312q7 23 13 46.5t13 46.5l4 14q7 29 34 42t55 0q16 -8 24.5 -19.5t10.5 -25t0.5 -28.5t-4.5 -29l-24 -141l-43 -235q31 82 67.5 159.5t80.5 152.5q19 33 41 64t48.5 58t59 45t72.5 25q27 4 55 1.5t51 -17.5q31 -19 49 -50t21 -66 q2 -15 2 -30q0 -22 -4 -44q-6 -38 -17 -75t-26.5 -72.5t-29.5 -68.5q-16 -37 -32 -73t-31 -73q-15 -35 -28.5 -71.5t-16.5 -73.5q35 7 66 31t57 47q27 25 54 52.5t51 54.5q35 41 68 80q7 8 18 7.5t12 -13.5q1 -8 -5.5 -18.5t-10.5 -17.5q-35 -70 -78 -135.5t-98 -121.5 q-22 -22 -52 -43q-30 -22 -64 -32q-21 -6 -41 -7q-12 1 -25 3q-32 6 -57 40q-23 30 -25 66q-1 14 0 27q0 22 2 43q4 40 12 78t19 78q19 74 41 147.5t37 150.5q-57 -18 -100 -57t-79 -85q-37 -49 -68.5 -102t-58.5 -109q-30 -60 -53 -116q-8 -22 -16.5 -43t-12.5 -44 q-3 -19 -10.5 -36t-22.5 -31q-28 -24 -63 -24q-8 0 -17 1q-42 8 -64 44q-15 24 -15 50q0 13 4 26zM500 37q0 -2 1 -2q3 0 3.5 -0.5t3.5 0.5q-3 0 -4.5 1t-3.5 1z" />
<glyph unicode="o" horiz-adv-x="750" d="M-4 245q12 80 37 154q26 75 65 145t96 126q38 36 90 62q41 21 82 20q11 0 22 -1q12 -3 23.5 -7t22.5 -12q4 -4 9 -8t8 -10q4 -5 4.5 -6.5t7.5 -0.5l14 3q27 4 55.5 0t53.5 -21q26 -18 39.5 -43.5t19.5 -55.5t6 -61t-2 -58q-7 -63 -25 -123t-44 -117q53 7 97.5 36t81.5 65 q7 7 15 16.5t18 11.5q11 1 17.5 -5.5t4.5 -15.5q-1 -11 -11.5 -23.5t-17.5 -21.5q-8 -11 -16.5 -20.5t-17.5 -19.5q-33 -37 -74.5 -67t-92.5 -41q-12 -3 -25 -4t-25 0q-7 -11 -13 -20.5t-13 -20.5q-15 -22 -31 -42.5t-35 -39.5q-46 -49 -106 -79q-58 -30 -124 -29h-4 q-79 3 -133.5 51.5t-71.5 124.5q-11 48 -11 96q0 31 4 62zM131 131q1 -27 11 -52q8 -23 25 -36t38.5 -17t44.5 -2t44 7q52 15 93.5 48.5t72.5 76.5q-49 18 -88 53t-65 80.5t-36 96.5q-6 28 -6 57q0 23 4 46q-37 -44 -63.5 -94t-45.5 -103q-8 -25 -15.5 -51.5t-11 -54.5 t-2.5 -55zM430 415q3 -46 22.5 -95.5t62.5 -75.5q23 48 38 100t20 104q1 15 2 43.5t-3.5 56.5t-17.5 47.5t-39 16.5q-29 -3 -45.5 -26t-23.5 -48q-16 -52 -17 -106q1 -8 1 -17z" />
<glyph unicode="p" horiz-adv-x="793" d="M-355 -631q3 66 20 129.5t39 124.5q23 70 50 136t62 132q33 61 66 121t61 125q7 15 13.5 30.5t9.5 30.5l15 68l65 292l29 116q5 22 15.5 40.5t29.5 29.5q26 15 56 11.5t52 -23.5q18 -16 23.5 -39t4.5 -47.5t-5.5 -49t-8.5 -44.5q-7 -37 -13 -73.5t-13 -72.5l23 42 q19 33 40 65t45 63q23 31 49 60t58 49q26 16 56 22t59 2t56 -18t49 -36q27 -27 43.5 -62t25 -73t8.5 -77q1 -4 1 -7q0 -35 -5 -69q-11 -68 -38 -130t-68 -118q61 45 108.5 102.5t81.5 123.5q7 11 20.5 11t18.5 -15q3 -14 -8.5 -33t-17.5 -29q-19 -31 -40 -61.5t-45 -57.5 q-98 -111 -236 -174q-16 -8 -32.5 -14.5t-33.5 -15.5q-15 -7 -31.5 -13.5t-33.5 -10.5q-25 -6 -50 -6q-9 0 -19 1q-35 3 -64 27q-30 23 -42 58.5t-14 72.5v14.5t2 18.5t7.5 14t16.5 0q10 -4 12.5 -16t5.5 -20q5 -16 13.5 -33.5t20.5 -29t28 -16.5t36 3q35 14 61.5 42.5 t45.5 60.5q37 61 63.5 128.5t42.5 136.5q8 35 13 72q1 14 1 29q0 22 -4 43q-3 19 -12.5 36.5t-28.5 21.5q-15 5 -33.5 -6t-29.5 -17q-15 -11 -29.5 -23t-27.5 -25q-29 -27 -54.5 -58.5t-48.5 -63.5q-49 -66 -90 -135q-11 -19 -15 -40t-8 -43l-19 -79q-34 -145 -72.5 -287.5 t-91.5 -280.5q-27 -70 -67 -137.5t-102 -111.5q-23 -16 -52 -26.5t-59 -3.5q-40 10 -51 45q-10 29 -10 56q0 8 1 15zM-298 -623l2 -16t4 -16q1 -1 5 -9.5t6 -5.5q3 7 -0.5 4.5t2.5 1.5q10 7 16 16t12 19q12 22 21.5 46.5t17.5 47.5q10 26 19.5 51t16.5 51q20 64 34 129 t29 131q-10 -11 -18.5 -23.5t-15.5 -24.5q-79 -120 -125 -257q-7 -19 -12 -39.5t-10 -40.5q-5 -22 -5 -45q0 -10 1 -20z" />
<glyph unicode="q" horiz-adv-x="699" d="M-28 132v23q0 23 2 44q7 81 29 158t57 150q31 66 79 125.5t118 91.5q46 21 92 21l56 -8q74 -20 133 -72q19 -18 30 -39t8 -48q-3 -31 -23.5 -54t-50.5 -30q-27 -7 -51.5 3t-43.5 30q-20 23 -44 34.5t-56 -3.5q-31 -15 -56.5 -42t-44.5 -56q-22 -31 -39.5 -66t-31.5 -70 q-15 -38 -26 -77t-16 -79q-3 -20 -5 -41t1 -41q3 -12 6 -29t16 -26q18 -11 38 1t34 23q29 27 50 59.5t40 67.5t35 70t27 72q7 20 13 40t12 39q11 27 32.5 46t52.5 22q30 3 56 -12t38 -43q9 -19 9 -40q0 -13 -4 -27q-9 -36 -17 -69l-49 -182q34 47 75 92q48 49 101 93 q11 7 25.5 18.5t27.5 2.5q12 -7 9.5 -18.5t-11.5 -17.5q-52 -42 -95 -93.5t-79 -107.5q-74 -116 -128 -250q-7 -15 -11 -32t-8 -32l-18 -71q-8 -33 -16.5 -65.5t-14.5 -65.5q-7 -30 -11.5 -60t-9.5 -62q-7 -37 -12 -77q-1 -16 -1 -33q0 -22 3 -43q3 -11 12.5 -25t2.5 -25 q-8 -15 -25 -9.5t-28 12.5q-33 22 -50 58t-25 71q-16 67 -16 134q0 14 1 28q4 81 15 162q11 82 26 162t33 160q-18 -22 -40.5 -39.5t-48.5 -26.5t-54 -7t-54 18q-30 18 -47 48t-24.5 64.5t-9.5 70.5z" />
<glyph unicode="r" horiz-adv-x="678" d="M-90 577q-1 7 -1 14q1 27 11 53q12 32 39 54t68 24q27 3 55.5 -4t45.5 -30q21 -25 21 -59q0 -33 -8 -73q16 -1 32 -1l64 5q48 8 95 22q31 8 61.5 18t61.5 17q30 5 55 -7t39 -34.5t14.5 -50t-18.5 -51.5q-11 -14 -24 -24t-24 -24q-11 -12 -20.5 -26.5t-17.5 -29.5 q-18 -30 -31 -62t-24 -66q-10 -34 -16 -70.5t-6 -71.5q0 -8 1.5 -24t5 -31t10.5 -26t20 -9q16 1 30.5 9t28.5 19t25.5 24t22.5 24q23 25 42 52t38 55q11 18 22 35.5t22 36.5q5 10 10 18t9 17q4 7 7.5 16t10.5 14q12 10 24.5 -0.5t3.5 -23.5q-7 -16 -17 -32.5t-18 -33.5 q-37 -67 -78.5 -136.5t-99.5 -121.5q-26 -22 -59 -38q-17 -8 -34 -8t-35 7q-35 15 -53.5 49t-28.5 69q-16 64 -16 132q0 14 1 28q4 82 23 160q-34 -4 -70 -5h-11q-30 0 -61 5q-22 3 -43 8q-5 1 -17.5 5.5t-15.5 0.5q-8 -16 -17 -33t-19 -33l-43 -71q-10 -12 -21 -4t-7 22 q19 34 35.5 68t33.5 70q-34 15 -63.5 39t-48.5 55q-19 33 -22 69zM8 632q1 -14 11.5 -25.5t25 -20t29.5 -15t27 -8.5q3 14 5.5 31.5t0.5 33.5t-10 28.5t-29 13.5q-18 1 -40.5 -7.5t-19.5 -30.5z" />
<glyph unicode="s" horiz-adv-x="529" d="M-42 213q16 68 50 127q49 85 95.5 170t86.5 175q11 20 31.5 35.5t43.5 20.5q30 7 56 -4.5t42.5 -33.5t19 -50t-13.5 -54q-29 -52 -36 -112q-2 -16 -2 -32q0 -43 14 -86q19 -55 31 -108q9 -38 9 -78q0 -16 -1 -33l90 127q7 11 17 27.5t25 13.5q12 -1 15 -7.5t1.5 -13 t-5.5 -14t-8 -13.5l-163 -230q-7 -11 -15.5 -20.5t-18.5 -20.5q-27 -27 -60.5 -43t-71.5 -22q-15 -1 -29 -1q-25 0 -48 4q-37 7 -67.5 25.5t-53 47t-32.5 68.5q-10 35 -10 71q0 32 8 64zM18 158q3 -51 29.5 -91t82.5 -41q51 0 87 26.5t41 78.5q1 12 1 23q1 36 -11 72 q-16 46 -38 89q-26 53 -38 111q-9 43 -9 87q0 15 1 30q-53 -101 -103 -204q-19 -45 -33 -89q-11 -36 -11 -75q0 -8 1 -17z" />
<glyph unicode="t" horiz-adv-x="501" d="M-527 921q5 21 29 36q19 11 40.5 10t42.5 -2l136 -4l308 -9q10 0 18.5 -1t18.5 -1h6q1 0 4 7.5t6 17t5.5 18t2.5 11.5q27 75 60.5 149.5t85.5 135.5q29 35 67 67.5t86 42.5q12 2 23 2q23 0 46 -9q34 -14 44 -51q7 -23 6 -48t-6 -50t-12.5 -49t-14.5 -46q-16 -53 -34 -105 t-37 -104h15t17 -1l535 -16q12 -1 22.5 -9t3.5 -23q-4 -10 -12.5 -11t-16.5 -2q-23 0 -46.5 -1t-46.5 -2q-82 -3 -161.5 -5.5t-161.5 -5.5l-133 -4h-18.5t-18.5 -2q-12 0 -13.5 -6.5t-6.5 -20.5q-30 -78 -62 -153.5t-68 -150.5q-11 -26 -24 -52t-25 -52q-4 -8 -7 -15t-4 -18 q-1 -20 -1 -40v-40q0 -40 2 -80.5t9 -79.5q3 -15 7.5 -33t12.5 -33.5t21 -27t32 -13.5q18 -3 36 3.5t33.5 17.5t29 25t24.5 27q26 31 46.5 64.5t38.5 68.5q7 14 13 27t13 28q3 8 7 15.5t13 11.5q14 7 28.5 0.5t16.5 -21.5q3 -11 -0.5 -23t-6.5 -21q-18 -74 -49 -147 t-83 -130q-27 -29 -60 -49q-33 -19 -69 -27q-21 -4 -42 -5q-16 1 -32 3q-38 6 -71 26t-57 49t-41 63t-28.5 71t-18.5 72q-15 82 -15 165.5t7 165.5q7 83 21 163.5t33 161.5l-409 -13q-23 -1 -45 -2t-44 -1q-26 -1 -44.5 13.5t-25 35t-1.5 41.5zM225 754q8 11 15 22.5 t14 22.5l33 56q-7 0 -20 1t-19 -3zM273 943q15 0 28 -0.5t28 -0.5q3 0 7 7t8 15.5t7 17t4 11.5l29 65q12 33 24.5 66.5t20.5 68.5q4 19 6.5 37.5t2.5 37.5q0 16 -4 33q-1 1 -5 8t-4 4v-2q0 -1 1 -3q-7 -3 -13 -10.5t-12 -14.5q-11 -15 -18.5 -31t-13.5 -33 q-15 -31 -27 -64.5t-24 -66.5q-27 -74 -45 -145z" />
<glyph unicode="u" horiz-adv-x="817" d="M-26 184q11 74 30 142q20 78 49.5 154t65.5 149q10 20 20 43t25 41q19 23 47 31t55 -1q27 -10 45.5 -33t21.5 -53q1 -20 -6.5 -37.5t-16.5 -35.5q-45 -86 -86 -176q-33 -70 -63.5 -143.5t-40.5 -151.5q-1 -11 -2.5 -25t0.5 -26.5t9 -22t22 -10.5q30 -7 58 5t51 30 q29 25 50.5 55t41.5 63q19 33 36 72q3 19 6.5 37.5t7.5 37.5q16 79 38.5 157t50.5 154q8 23 17 46t29 38q23 18 52 20.5t55 -12.5q25 -15 37.5 -41t8.5 -55q-3 -19 -11 -36t-15 -35q-31 -75 -61 -151.5t-54 -154.5q-11 -38 -20.5 -77t-11.5 -78q0 -5 -1.5 -17.5t0 -25 t5 -21.5t12.5 -7q8 -1 18.5 3t20.5 10.5t18.5 13.5t14.5 12q41 35 73 70q29 31 55.5 62.5t52.5 64.5q5 5 12.5 17.5t16.5 22t19 13t20 -6.5q10 -11 3.5 -24.5t-13.5 -24.5l-24 -49q-19 -35 -40.5 -69.5t-44.5 -66.5q-18 -26 -39 -54t-45.5 -51.5t-54 -40.5t-63.5 -20 q-6 -1 -12 -1q-29 0 -55 12q-32 14 -52 45q-22 31 -29.5 68t-7.5 74q-16 -33 -36.5 -65t-46.5 -57.5t-58 -43.5t-70 -23q-25 -3 -49.5 -1.5t-47.5 11.5q-33 15 -53.5 43.5t-31.5 62.5q-12 44 -12 90q0 27 4 54z" />
<glyph unicode="v" horiz-adv-x="806" d="M-24.5 266.5q1.5 9.5 6.5 17.5q53 97 85 197q7 25 15 51t4 52q-3 16 -6.5 33.5t-4.5 33.5q-3 31 13.5 55t41 36.5t53.5 10t52 -24.5q20 -18 25.5 -41t9.5 -48l82 -500q68 49 126 103q-5 3 -9.5 7t-8.5 8q-60 49 -88 122q-19 48 -18 97q0 26 5 52q15 67 63 117.5t115 65.5 q20 4 40 4q17 -1 33 -3q38 -6 67 -28q27 -20 41.5 -51.5t17.5 -64.5q1 -9 1 -18q-1 -26 -7 -50q-8 -34 -21.5 -65t-32 -61t-36.5 -57q29 -11 58 -11q23 0 47 7q26 5 54 19q10 4 20 11t21 7t18.5 -8.5t4.5 -19.5q-1 -11 -10 -22.5t-16 -19.5q-33 -40 -74 -63q-33 -19 -71 -26 q-26 -5 -52 -5q-11 0 -23 1q-10 1 -19.5 2.5t-19.5 4.5l-15 4q-7 3 -8.5 0t-4.5 -7q-11 -16 -23 -32t-25 -31l-90 -120q-14 -16 -26 -33l-24 -34l-19 -28q-10 -8 -23 -13.5t-24 -8.5q-9 -1 -17 -1q-34 0 -58 22q-30 28 -37 69l-79 485q-26 -82 -65 -162q-3 -5 -8.5 -16.5 t-12 -22t-15.5 -16.5t-19 1q-11 7 -9.5 16.5zM531 489q-2 -11 -2 -22q0 -26 11 -51q16 -36 43 -61q20 27 39.5 56t31.5 60q7 19 12.5 41.5t-5.5 41.5q-4 11 -12.5 23.5t-23.5 13.5q-14 3 -27.5 -6.5t-22.5 -17.5q-15 -15 -28 -35.5t-16 -42.5z" />
<glyph unicode="w" horiz-adv-x="1047" d="M-26 140q1 34 6 65q10 67 29 131.5t42 130.5q16 45 36 90q15 33 29.5 65t32.5 63q11 20 26.5 36t38.5 23q30 8 56 -2t42.5 -31.5t20.5 -49t-9 -55.5q-52 -104 -104 -207.5t-83 -215.5q-10 -31 -17 -67q-3 -15 -3 -28q0 -20 6 -39q3 -11 11.5 -15.5t19.5 -6t22 -0.5t19 3 q37 10 65.5 36.5t52.5 55.5q11 16 21.5 32.5t20.5 32.5q8 15 19.5 34t13.5 37q4 81 19 160t37 157q7 27 14.5 55t18.5 55q10 27 30.5 45t49.5 21t55 -11t39 -40q12 -23 11 -44.5t-9 -45.5q-29 -72 -51.5 -146t-37.5 -150q-7 -40 -11 -80q-2 -23 -2 -44q0 -17 1 -34 q1 -16 3.5 -34t9.5 -33t19.5 -26t31.5 -12q26 -3 47 8.5t40 29.5q27 26 48.5 58t39.5 65q-33 19 -57.5 47t-41 62t-25 71t-8.5 74q0 34 9 71.5t27 70t45 58t64 34.5q19 5 38 5q33 0 65 -16q33 -19 47.5 -55t20.5 -71q5 -36 5 -71q0 -44 -8 -90q-14 -80 -37 -158 q26 7 48 21.5t41 32.5q4 4 10 12t13 14t14.5 9.5t15.5 -0.5q16 -10 9 -22.5t-14 -21.5q-23 -27 -52 -50t-64 -38q-10 -4 -19.5 -6t-18.5 -5l-16 -37q-8 -19 -16 -36t-19 -35q-19 -33 -41.5 -63.5t-49.5 -55.5q-48 -42 -108 -57q-26 -7 -53 -7q-34 0 -69 11q-38 12 -65.5 36 t-46.5 54.5t-30 67t-15 73.5q-14 -30 -29.5 -60t-36 -57t-45.5 -48.5t-55 -35.5q-40 -19 -87 -19h-12q-54 3 -93 38q-25 23 -37 53q-13 30 -17 62q-3 26 -3 52v14zM736 402q8 -50 34 -92q19 -29 44 -46q22 49 37 100.5t21 103.5q3 27 5 54t-3 54q-3 8 -5.5 19t-11.5 17 q-25 12 -44.5 2.5t-34.5 -29.5t-25 -44t-14 -41q-7 -29 -7 -58q1 -20 4 -40z" />
<glyph unicode="x" horiz-adv-x="737" d="M-89 -22.5q-2 10.5 6 19.5l164 202q19 25 39.5 49.5t39.5 50.5q10 11 9 13.5l-7 17.5q-15 40 -28.5 79.5t-25.5 79.5q-10 -55 -31 -112.5t-63 -96.5q-7 -7 -15.5 -6.5t-13.5 6t-6 14t6 15.5l15 17q16 23 28.5 48t22.5 52q19 61 23 123q1 19 1 37.5t-4 37.5q-3 11 -5.5 21 t-2.5 21q0 33 18.5 56t45 33.5t55 4.5t50.5 -31q19 -23 22.5 -52.5t6.5 -56.5q12 -82 28 -160l193 238l18 22q19 23 46 31t55 1q27 -8 44 -27t22 -43.5t-2 -50t-27 -43.5l-192 -177l-98 -90l-18 -17l2 -5q1 -5 3 -11.5t5 -12t3 -6.5q3 -8 6 -17t7 -17q7 -18 14.5 -34.5 t15.5 -32.5q11 -20 29.5 -49t42 -50t50.5 -29.5t56 11.5q31 22 53 53t41 63q20 35 37.5 72t32.5 75l20 53q3 11 10 18.5t19 3.5t13 -14t-2 -20l-17 -63q-20 -75 -48.5 -151.5t-80.5 -136.5q-23 -27 -52 -44t-64 -20q-30 -3 -59.5 5.5t-56.5 23.5q-66 40 -111.5 103 t-78.5 130q-67 -61 -132.5 -121.5t-131.5 -121.5q-10 -8 -20 -7.5t-16.5 8t-8.5 18z" />
<glyph unicode="y" horiz-adv-x="764" d="M-132 -492q-4 16 -4 33q0 22 6 44q12 53 42.5 95.5t71.5 77t87 63.5t90 55l133 76q7 4 9.5 15t5.5 19l16 56l35 120q-40 -49 -93 -77q-48 -25 -103 -25h-12q-35 0 -66 15t-53 44q-19 27 -27.5 59t-9.5 65v6q0 73 22 144q22 74 52 144q15 35 32 68.5t36 66.5 q12 22 25.5 41.5t38.5 29.5q30 12 58 4t46.5 -28t25.5 -48t-7 -57q-7 -14 -14.5 -25t-14.5 -24l-49 -88q-19 -34 -36 -69t-32 -72q-14 -31 -25 -66q-9 -28 -9 -56q0 -7 1 -15q1 -12 9.5 -19.5t20 -11t24.5 -4t24 0.5q37 5 68.5 28t54.5 50q19 23 36.5 50.5t24.5 57.5 q11 41 20.5 81t19.5 81q8 40 16 78t18 78q7 31 29.5 50.5t49 24t54 -5.5t43.5 -39q13 -23 13 -48q0 -12 -3 -25q-9 -38 -17 -73q-27 -116 -58.5 -229.5t-66.5 -227.5q38 27 75 56.5t71 61.5q37 34 63 69q4 4 9.5 12.5t11.5 16t13 12.5t13 2q11 -4 12 -13.5t-4.5 -19.5 t-12.5 -19.5t-10 -14.5q-22 -35 -50 -71q-30 -35 -62 -68t-68 -64l-63 -53l-30 -23q-8 -7 -10.5 -12t-5.5 -16q-15 -40 -29.5 -78t-29.5 -77q-30 -74 -64 -146.5t-81 -137.5q-22 -31 -47.5 -60t-58.5 -48q-31 -19 -66 -26q-24 -5 -49 -5q-11 0 -22 1q-37 4 -71 19.5 t-58 45.5q-26 30 -34 68zM1 -442q-3 -14 3 -23t15.5 -13t21 -4.5t22.5 0.5q26 5 43 23.5t32 39.5q35 51 60 106.5t46 113.5q-40 -27 -79 -56t-75 -60q-27 -23 -54.5 -56t-34.5 -71z" />
<glyph unicode="z" horiz-adv-x="767" d="M-64 -234q4 43 24 83t51 72q57 59 135 95t154 65q-31 82 -107 127q-5 3 -15 6.5t-18 8.5t-12.5 12.5t1.5 17.5q4 7 10 8t13 4q11 3 20 7.5t18 10.5q40 23 75.5 55.5t66.5 68.5q31 35 62 72.5t58 76.5l-371 12q14 -40 14 -81q1 -21 -3 -43q-12 -62 -48 -114 q-20 -31 -42 -51q-11 -11 -24.5 -2.5t-8.5 23.5q3 5 7 9.5t7 8.5q40 44 60 104q11 33 11 67q0 27 -7 54l-14 35q-3 7 -8 13t-11 12q-15 26 -11 55q4 26 22.5 44.5t43.5 22.5q16 3 33 2t34 -1q35 3 70.5 3.5t71.5 2.5l305 8q19 1 40 2.5t38 -5.5q26 -8 42 -26.5t20.5 -41.5 t-1.5 -47t-24 -42q-45 -44 -91.5 -84.5t-95.5 -80.5q-61 -51 -128 -97t-141 -75q49 -22 89 -60q10 -10 18 -19.5t16 -20.5l12 -20q4 -7 9.5 -4t12.5 5q53 19 106.5 39.5t103.5 48.5q26 14 50 28t46 32t41 37q7 7 14.5 15t18.5 5q16 -4 16.5 -13.5t-7 -20t-17.5 -19 t-14 -12.5q-37 -35 -86 -63q-35 -22 -71.5 -40.5t-73.5 -34.5q-19 -10 -39.5 -18t-40.5 -17l-36 -15q-7 -3 -6 -4.5t3 -8.5l7 -18q24 -70 24 -145v-12q-2 -82 -29 -156q-25 -70 -74 -127.5t-123 -79.5q-35 -10 -70 -10q-34 0 -68 9q-70 18 -113 77q-29 37 -39 79 q-7 29 -7 59q0 14 1 27zM53 -206v-9q1 -33 19 -62q22 -33 60 -40q12 -2 23 -3q21 0 41 9q30 13 50 39q25 29 41 66t24 76t9 79v11q0 34 -5 66q-48 -22 -93 -46t-85 -54q-33 -23 -57 -57t-27 -75z" />
<glyph unicode="{" horiz-adv-x="528" d="M10 523q-5 14 3.5 26t23.5 14q35 5 70 11t66 25q31 20 54 50.5t38 65.5q30 71 43.5 150.5t30 157t46.5 149.5t92 128q64 57 150 76q25 7 52 11t53 3q34 -3 57 -28t21 -59q-3 -33 -27.5 -55.5t-57.5 -21.5q-26 1 -51 -1t-49 -8q-35 -11 -63 -34.5t-47 -54.5 q-22 -33 -37 -70t-26.5 -75t-22 -77t-22.5 -77q-11 -37 -24.5 -74t-31.5 -71t-41 -65t-55 -55q-34 -26 -69 -40q27 -22 42.5 -53t22.5 -64q18 -78 10 -160.5t-17 -160.5q-4 -40 -7.5 -80.5t-1.5 -80.5q0 -35 4.5 -73.5t26.5 -68.5q20 -29 56 -35t67 -5t56 -13t34 -45 q8 -29 -3.5 -56.5t-38.5 -40.5q-27 -14 -62.5 -9t-63.5 11q-81 19 -132.5 73t-66.5 135q-15 79 -2 159.5t28 158.5q7 41 15 81.5t14 82.5q5 37 6.5 77t-12.5 76q-14 35 -44 50t-65 18q-14 1 -25.5 4t-16.5 18z" />
<glyph unicode="|" horiz-adv-x="599" d="M30 -595l16 79l96 472l132 660q29 141 57.5 281.5t56.5 280.5l33 159l5 32q8 35 39.5 56t66.5 9q31 -10 46.5 -39t8.5 -60q-18 -66 -34 -129t-33 -129q-40 -147 -77 -293t-76 -294q-42 -161 -83.5 -320t-82.5 -320q-27 -105 -54 -209l-54 -208q-3 -10 -5 -18.5t-5 -17.5 q-1 -1 -1 -5q-3 -12 -12.5 -16t-19 -2t-16.5 10t-4 21z" />
<glyph unicode="}" horiz-adv-x="528" d="M-273 -335q3 33 27.5 55.5t57.5 21.5q26 -1 50.5 1t48.5 9q35 11 63.5 34t47.5 54q42 67 63 145t45 154q11 37 24.5 74t31 71t41 65t54.5 55q33 26 70 40q-27 22 -43 52.5t-23 64.5q-18 78 -9.5 160.5t16.5 160.5q4 40 7.5 81t2.5 80q0 35 -5 73.5t-27 68.5 q-20 29 -55.5 35t-67.5 5q-31 -1 -55.5 13t-34.5 45q-8 29 3.5 56.5t39.5 40.5q27 14 62.5 9t62.5 -11q81 -19 133 -73t67 -135q15 -79 2 -159.5t-28 -158.5q-8 -41 -16 -81.5t-13 -82.5q-5 -37 -6.5 -77t11.5 -76q14 -35 44 -50t66 -18q12 -1 24.5 -4t17.5 -18 q5 -14 -3.5 -26t-23.5 -13q-35 -5 -70 -11.5t-67 -25.5q-33 -20 -54.5 -50.5t-36.5 -65.5q-30 -71 -44 -150.5t-30 -157t-46 -149.5t-92 -128q-64 -57 -150 -76q-25 -7 -52 -11t-53 -3q-34 3 -57.5 28t-20.5 59z" />
<glyph unicode="~" horiz-adv-x="614" d="M8 354q14 29 31 56.5t39.5 51t49 41t58.5 25.5q63 15 114.5 -12t91.5 -72q11 -11 21 -21.5t23 -18.5q12 -10 26.5 -5.5t27 14t24.5 21t20 19.5q10 8 18.5 15t20.5 4q18 -1 28.5 -14t7.5 -29q-3 -30 -16 -59.5t-30 -52.5q-35 -45 -86.5 -59t-105.5 6q-38 14 -65 39t-55 52 q-11 10 -22 16t-26 2q-25 -10 -45.5 -25.5t-41.5 -30.5q-15 -11 -32.5 -24t-39.5 -9q-23 4 -35 26t-1 44z" />
<glyph unicode="&#xa1;" horiz-adv-x="462" d="M-11 -329q1 1 1 4l291 1065q7 20 28 16q19 -4 16 -26l-202 -1086q-5 -27 -29 -43t-52 -11q-27 7 -42.5 30.5t-10.5 50.5zM307 1100q0 34 24 57.5t59 23.5q34 0 57.5 -23.5t23.5 -57.5q0 -35 -23 -59t-58 -24t-59 24t-24 59z" />
<glyph unicode="&#xa2;" horiz-adv-x="779" d="M-16 177q-3 79 23 155t65 143q40 66 94 121t123 91q22 11 44.5 18.5t46.5 11.5l60 278q5 27 29 43t51 11q27 -7 43 -30.5t10 -50.5q-1 -1 -1 -4l-75 -266l14 -7q34 -22 55.5 -54t32 -69.5t10 -77t-10.5 -76.5q-11 -35 -31 -68t-48 -58q-19 -18 -43.5 -31t-52.5 -11 q-26 0 -49 16l-53 -188q75 0 144 27t132 67q34 22 65.5 46t62.5 50l44 36q4 4 8.5 9t11.5 8q15 5 20.5 -8.5t-1.5 -24.5t-13 -20.5t-13 -19.5q-45 -66 -99 -124q-51 -55 -109.5 -102t-125.5 -81q-42 -20 -87.5 -33t-91.5 -13l-81 -286q-7 -20 -27 -16q-19 4 -16 26l60 281 h-3q-75 16 -129 68t-76 126q-11 41 -13 87zM133.5 346q-9.5 -81 13.5 -156q11 -31 30 -59t50 -42q11 -5 17 -7l112 527q-27 3 -52 -6t-48 -25.5t-41 -38.5t-32 -45q-40 -67 -49.5 -148z" />
<glyph unicode="&#xa3;" horiz-adv-x="1350" d="M-3 90q1 78 51 138.5t124 84.5q68 20 142 10.5t137 -40.5q19 42 34 85.5t30 87.5q-70 12 -130.5 53t-97.5 103q-40 67 -40 139t30 137.5t84 118t121 80.5q29 14 57.5 7t48.5 -26t28 -48t-4 -59q-14 -30 -39 -45q-8 -5 -21 -11.5t-24 -3.5q-31 3 -62.5 -15t-51.5 -38 q-27 -26 -42.5 -60t-13.5 -73q0 -37 16 -70t42 -59q35 -37 85 -55q4 -3 19 -7.5t17 -1.5q7 22 10 38l18 56q-14 -3 -26.5 -4.5t-25.5 -2.5q-30 -4 -52.5 11t-32.5 39t-5.5 50.5t28.5 45.5q23 19 48 17.5t51 -3.5l60 -7q15 48 31.5 95t35.5 95q29 75 64.5 149.5t83.5 139.5 q40 55 90 98.5t113 66.5q75 27 151.5 13.5t138.5 -60.5q60 -48 95.5 -116.5t37.5 -143.5q1 -41 -9 -78.5t-28.5 -72.5t-42 -67t-49.5 -62q-102 -117 -237.5 -204.5t-284.5 -132.5q-38 -12 -80 -21q-10 -3 -12 -13.5t-5 -18.5l-12 -37q-14 -40 -27.5 -78t-28.5 -78l-19 -42 l-8 -17q-3 -7 -0.5 -8t8.5 -5q27 -26 58 -51q29 -23 61 -44t68 -35q72 -27 141.5 -15t132.5 47t119 85.5t101 101.5l45 53q5 5 10 12t15 7q16 0 16 -12.5t-7 -28.5t-16.5 -30.5t-11.5 -18.5q-42 -66 -94 -125t-118 -103q-64 -44 -136.5 -66t-150.5 -9q-44 5 -82 22 t-71.5 40.5t-65 52t-59.5 59.5q-27 -49 -62 -92.5t-82 -76.5q-55 -37 -119.5 -51t-128.5 -1q-37 8 -70.5 26t-58 44.5t-39 61t-14.5 73.5zM105 139q7 -63 70 -69q22 -1 52 2q60 7 104.5 42.5t75.5 84.5l8 14t7 14q4 7 1.5 7.5t-8.5 3.5l-11 5q-26 12 -56 21q-23 5 -46 7.5 t-47 1.5q-27 -1 -55 -10.5t-50 -27t-35 -41t-10 -55.5zM730 519q100 19 192 60.5t174 100.5q82 57 151 129t113 162q18 34 18.5 71.5t-12 73t-35.5 66t-53 52.5q-31 23 -68 33t-75 -1q-35 -10 -63 -33t-49 -51q-42 -53 -79 -110.5t-65 -119.5q-23 -52 -43 -106t-37 -109 l57 -7l100 -12q5 0 10 -0.5t10 -0.5q10 -1 15.5 -9t5.5 -16t-5 -15.5t-16 -8.5q-52 -7 -104.5 -13t-104.5 -13q-10 -31 -18 -61.5t-19 -61.5z" />
<glyph unicode="&#xa4;" horiz-adv-x="677" d="M27 257q0 27 16 49t40 29q-15 46 -9.5 92.5t27.5 87.5q-30 4 -49 26.5t-19 53.5q0 34 23 58t57 24q30 0 52.5 -19.5t28.5 -48.5q14 8 29 13.5t32 9.5q45 10 91 1t83 -36q4 -3 8.5 -6.5t8.5 -7.5v3q0 34 23.5 58t57.5 24t58 -24t24 -58t-24 -57.5t-58 -23.5h-12.5t-10.5 3 q25 -53 24 -115q-5 -46 -27 -89q30 -4 50 -26.5t20 -53.5q0 -34 -24 -57.5t-58 -23.5q-30 0 -51.5 17t-27.5 45q-34 -20 -75 -28q-86 -12 -159 35q-25 -35 -68 -36q-34 0 -57.5 23.5t-23.5 57.5zM255 384q0 -23 10 -39q7 -14 21 -26t31 -12q23 -5 46 4t38 29q8 14 10.5 31 t-2.5 33.5t-16 30t-28 20.5q-14 7 -25.5 5.5t-22.5 -1.5q-27 -7 -44.5 -29t-17.5 -46z" />
<glyph unicode="&#xa5;" horiz-adv-x="1137" d="M-70.5 996.5q-3.5 39.5 2.5 78.5q11 70 49 126t87 103q57 51 125.5 85t146.5 31q76 -3 135.5 -46t85.5 -114q22 -57 20.5 -118.5t-16.5 -121.5q-19 -74 -51 -143t-65 -138q-11 -23 -20.5 -46t-12.5 -46q-5 -40 15.5 -65.5t58.5 -34.5q35 -8 71.5 -2.5t70.5 19.5t65.5 34 t58.5 42q60 49 102 116t73 138q30 66 51 138q11 40 17 81t10 82q3 20 4 40t3 39q3 31 15 53q16 25 43.5 37t55.5 7q29 -5 49.5 -26t27.5 -49q4 -20 0 -39.5t-11 -38.5q-64 -242 -152 -481q-34 -91 -71.5 -182t-83.5 -178l83 -3q29 -1 48 -14t19 -31q-1 -19 -20.5 -30.5 t-46.5 -13.5l-139 -5l-26 -38l124 -4q29 -1 48 -14.5t19 -30.5q-1 -19 -20.5 -31t-46.5 -13l-196 -7q-44 -52 -96 -97t-116 -72q-71 -30 -150 -31.5t-153 18.5q-76 20 -131.5 73.5t-74.5 131.5q-10 40 -8.5 80t13.5 80q11 31 31 64t51 49q29 16 59 11t50.5 -25t28.5 -49.5 t-6 -59.5q-12 -27 -25 -51t-20 -54q-7 -37 1 -75t34 -67t60 -43t72 -16t75.5 5.5t70.5 22.5q38 19 71.5 45t63.5 57l-120 -4q-38 -1 -64.5 15.5t-28.5 40.5q-3 23 23 41t63 19h6l202 -7l1 2q11 16 19 31l-180 -5q-38 -1 -64.5 15t-28.5 41q-3 23 23 40.5t63 19.5h6l239 -8 q56 113 92.5 232.5t64.5 240.5q-35 -111 -99 -205.5t-166 -153.5q-52 -30 -110 -46.5t-120 -9.5q-59 7 -107 39t-73 88q-27 66 -19 135.5t30 133.5q26 74 62 141t66 138q12 27 18 58.5t1.5 61t-20 54.5t-45.5 41q-33 18 -69.5 19.5t-72 -9.5t-68 -30.5t-56.5 -45.5 q-23 -25 -37 -58t-18.5 -69t-0.5 -72t16 -66q5 -15 15 -28t18 -26t12 -27.5t0 -32.5q-7 -30 -32 -45.5t-55 -8.5q-15 4 -27.5 13.5t-21 22.5t-15.5 27.5t-11 27.5q-14 37 -17.5 76.5z" />
<glyph unicode="&#xa6;" horiz-adv-x="599" d="M49 -425q30 149 56.5 298t54.5 299q8 38 24.5 65t32.5 36.5t30.5 0t18.5 -42.5q3 -33 -5 -64.5t-19 -65.5q-29 -96 -59 -191.5t-60 -190.5l-38 -126q-3 -7 -4.5 -12.5t-2.5 -11.5q-8 -26 -21 -24.5t-8 30.5zM243 399q30 149 56.5 297.5t54.5 298.5q8 38 24.5 65 t32.5 36.5t30.5 0t18.5 -42.5q3 -33 -5.5 -64.5t-18.5 -65.5q-29 -96 -59 -191t-60 -191l-38 -126q-3 -7 -4.5 -12t-2.5 -12q-8 -26 -21 -24t-8 31z" />
<glyph unicode="&#xa7;" horiz-adv-x="607" d="M-44.5 211.5q15.5 68.5 49.5 127.5q31 55 63 110.5t60 113.5q3 -14 6 -21q4 -14 11 -31q-23 -42 -44.5 -86t-41.5 -88q-19 -44 -33 -88t-11 -92q3 -51 29.5 -91t82.5 -41q51 0 87 26.5t41 78.5q5 48 -10.5 94t-36.5 90q-41 81 -47 168q27 -42 73 -63.5t99 -21.5 q1 -8 4 -15.5t6 -14.5q26 -64 34 -120t3 -102.5t-20.5 -84t-40.5 -63.5q-27 -27 -60.5 -42.5t-71.5 -21.5q-40 -4 -76.5 3t-67.5 25.5t-53.5 47t-31.5 67.5q-18 67 -2.5 135.5zM128 563q-11 61 5.5 124t48.5 117q49 85 95.5 170t85.5 176q11 20 31.5 35t43.5 21q30 7 56 -5 t42.5 -33.5t19 -49.5t-13.5 -54q-29 -52 -37.5 -113t14.5 -118q26 -64 34 -120t3.5 -102.5t-20.5 -84t-40 -63.5q-27 -27 -61 -43t-72 -21q-8 -1 -15.5 -1.5t-14.5 -0.5q-5 18 -5 43l-168 68v-13t1 -13q-5 7 -9.5 14.5t-6.5 14.5l5 11l-18 47zM191 623q3 -51 29.5 -91 t82.5 -42q51 0 87 26.5t41 78.5q5 48 -10 94.5t-37 90.5q-26 53 -38.5 110.5t-8.5 117.5q-53 -101 -102 -205q-19 -44 -33 -88.5t-11 -91.5z" />
<glyph unicode="&#xa8;" horiz-adv-x="415" d="M0 954q0 35 23 59.5t58 24.5t59 -24t24 -60q0 -34 -24 -57t-59 -23q-34 0 -57.5 23t-23.5 57zM218 954q0 35 23.5 59.5t57.5 24.5q35 0 59 -24t24 -60q0 -34 -23.5 -57t-59.5 -23q-34 0 -57.5 23t-23.5 57z" />
<glyph unicode="&#xa9;" horiz-adv-x="1474" d="M4.5 196q3.5 81 17.5 158q29 156 93.5 299.5t158.5 269.5q91 123 211 219t265 148q37 14 75 23.5t77 14.5q40 7 77 9h27.5t27.5 -3q30 -7 47.5 -32t14.5 -57q-3 -30 -26 -51t-54 -21q-156 -3 -289.5 -70.5t-240 -176t-182.5 -244.5t-117 -274q-20 -70 -33 -149.5 t-9 -159.5t28.5 -153.5t79.5 -132.5q53 -57 125.5 -84t148.5 -33q74 -7 147 -1t144 29q75 25 140.5 66t121 94t100.5 117.5t79 133.5q33 70 57.5 145.5t36.5 154t11.5 158t-18.5 155.5q-7 31 -20 66t-32 64.5t-46 51.5t-64 27q-11 3 -23.5 2t-23.5 2q-15 4 -23.5 17t-7.5 28 q1 16 9.5 25t20.5 12t26 2t26 -2q38 -7 69.5 -26t56 -45.5t43 -59.5t30.5 -67q27 -74 33.5 -153.5t0.5 -157.5q-11 -160 -64.5 -314t-149.5 -284q-96 -131 -230.5 -218.5t-295.5 -116.5q-71 -12 -145.5 -12t-144.5 17t-134 52t-115 92q-53 61 -84 134.5t-44 152t-9.5 159.5z M386 346q9 76 36 146q27 71 71.5 135.5t105.5 112.5q22 18 48 33.5t53.5 27t56.5 17t58 3.5q38 -4 69.5 -23.5t52.5 -47.5t33.5 -63.5t13.5 -72.5q1 -72 -32.5 -138t-100.5 -98q-29 -12 -55.5 -5t-43.5 26.5t-20.5 46t13.5 52.5q13 17 29 25q22 12 36.5 40t17.5 59t-6.5 58 t-35.5 38q-42 16 -86.5 3.5t-76.5 -42.5q-57 -52 -83.5 -126t-27.5 -150q0 -33 5 -69t18.5 -67.5t38 -55t61.5 -32.5q11 -3 21 -3.5t21 -2.5q126 -3 239 58q66 34 124.5 78.5t111.5 93.5q7 7 16 16.5t20 6.5q10 -3 11 -8.5t-1 -12t-6 -13.5t-7 -11q-38 -56 -80 -104 q-51 -57 -109 -107.5t-125 -90.5q-57 -34 -122 -52.5t-133 -8.5q-78 11 -135.5 58.5t-80.5 121.5q-23 72 -14 148z" />
<glyph unicode="&#xaa;" horiz-adv-x="501" d="M15 795q-4 46 5 93t25 91q15 41 37.5 81t58.5 69q35 30 79.5 35.5t86.5 -17.5q15 -7 29 -18t23 -24q10 -15 9 -33t-12 -32q-11 -15 -27 -19.5t-34 -0.5q-15 5 -24.5 17.5t-23.5 19.5q-18 11 -35.5 1.5t-29.5 -20.5q-29 -30 -51 -73q-22 -40 -37 -85.5t-12 -91.5 q1 -11 4.5 -27t18.5 -16q8 -1 15.5 4.5t14.5 9.5q7 7 14 16t13 17q15 19 25.5 40l21.5 43l20 47l11 41q3 15 10 26.5t20 19.5q15 8 32 6t31 -13t18.5 -28t-0.5 -32q-7 -16 -12.5 -32.5t-10.5 -34.5q-3 -8 -9 -30t-8 -43.5t2.5 -38t23.5 -15.5h2q5 -3 13 4t13 10q8 7 15.5 15 t14.5 16q14 15 25 32t22 35q8 12 16 24.5t14 24.5q3 7 10 9t12 -5q5 -8 0 -19q-12 -38 -27.5 -75t-37.5 -71q-11 -18 -26 -33.5t-34 -26.5q-12 -7 -26.5 -9t-29.5 0q-48 5 -69 44.5t-24 83.5q-8 -18 -18.5 -37t-23.5 -36t-30 -29.5t-37 -15.5q-40 -4 -63 24t-30 63 q-1 5 -2 9t-1 10z" />
<glyph unicode="&#xab;" horiz-adv-x="648" d="M15.5 296.5q0.5 10.5 9.5 18.5l-2 2l284 276q3 3 5.5 4t5.5 4q25 15 52 8t42 -30q15 -26 9.5 -52.5t-31.5 -43.5l-301 -189l214 -134q1 -1 2.5 -1.5t3.5 -1.5q15 -12 16 -30.5t-10 -33.5q-12 -15 -31 -16.5t-34 9.5l-224 188q-1 3 -4 2q-7 10 -6.5 20.5zM220.5 283 q0.5 11 8.5 19l-1 1l284 276q3 3 5.5 4t5.5 4q25 15 52 8t42 -30q15 -26 9.5 -52.5t-31.5 -42.5l-301 -190l214 -134q1 -1 2.5 -1t2.5 -2q15 -12 16.5 -30.5t-9.5 -33.5q-12 -15 -31 -16.5t-34 9.5l-224 189q-1 3 -4 1q-7 10 -6.5 21z" />
<glyph unicode="&#xac;" d="M8 390q-3 23 23 41t63 20h6l416 -14q29 -1 48 -14t19 -31q0 -3 -1 -4q5 -14 6 -32l14 -108q1 -38 -15 -64.5t-41 -27.5q-23 -3 -41 23t-19 63v5l12 100l-397 -12q-38 -1 -64.5 15t-28.5 40z" />
<glyph unicode="&#xad;" d="M13 409q5 27 28 46t48.5 17.5t51.5 -4.5q78 -10 153.5 -18.5t151.5 -19.5l100 -12q5 0 10 -1t11 -1q10 -1 15 -8.5t5 -15.5t-4.5 -16t-15.5 -9q-116 -15 -231.5 -29t-231.5 -29q-30 -4 -52.5 11t-33 38.5t-5.5 50.5z" />
<glyph unicode="&#xae;" horiz-adv-x="1855" d="M0 97q0 82 11 161q22 161 78.5 313.5t141.5 291.5q79 131 183.5 248.5t230 208t269.5 148t303 68.5q20 1 42 3t42.5 -1t38 -12.5t28.5 -31.5q10 -20 8 -41t-12.5 -38.5t-28 -28.5t-39.5 -11q-156 -3 -296 -54t-262 -137t-223 -201.5t-176 -243.5q-82 -139 -134 -293.5 t-63 -315.5q-4 -78 5.5 -158t37.5 -152.5t76 -133.5t120 -104q67 -40 141.5 -57.5t150.5 -21.5q60 -3 119 -1t117 11q160 26 300 104.5t246 199.5q108 123 178.5 272t101.5 310q15 79 20 159t-2 160q-7 75 -28 151t-67 137q-23 29 -51.5 51.5t-63.5 33.5q-15 4 -28.5 6.5 t-29.5 2.5q-15 0 -27 2.5t-23 14.5q-8 11 -9 25t8 27q8 12 21 15.5t26 1.5q68 -4 125 -34q68 -38 109.5 -102t64.5 -137q23 -76 31 -154t5 -157q-5 -158 -48.5 -315t-121 -298.5t-189 -259t-251.5 -196.5q-81 -45 -174 -77t-191 -47t-198 -11.5t-192 30t-172.5 77.5 t-141.5 133q-49 66 -79.5 141.5t-44 155.5t-13.5 162zM431 656.5q13 63.5 50 117.5q40 59 97 98t124 61q59 20 119 27.5t121 12.5q63 5 133.5 -0.5t135 -27.5t118.5 -63t85 -104q31 -70 21 -145t-57 -133q-42 -52 -101 -80t-125 -39q29 -23 47 -54t28 -66 q12 -51 10.5 -100.5t-5.5 -100.5q-1 -14 -2 -27t-1 -25q-1 -8 3.5 -15t12 -11t15.5 -6.5t15 -2.5q33 -3 61.5 10t54 33.5t46 45.5t36.5 50l19 28.5t15 28.5q7 11 12.5 22.5t19.5 11.5q18 1 21 -11t-1 -28.5t-12 -32t-11 -22.5q-29 -66 -75.5 -126.5t-114.5 -88.5 q-30 -12 -63.5 -16.5t-64.5 -1.5q-27 3 -52.5 14.5t-44.5 31.5q-31 33 -41.5 73t-10 84t8 87t14.5 82q3 19 3.5 38.5t-10.5 35.5q-11 18 -27 27.5t-35 16.5l-15 4l-25 3q-11 1 -24 2.5t-17 12.5q-7 10 -3 20t18 13q14 1 27 1h28q61 14 116.5 41t94.5 78q25 31 39.5 68 t11.5 76q-3 31 -15 60t-33 54q-25 29 -57.5 49t-68 34t-73 22t-74.5 12q-111 15 -223 -15q-35 -8 -70.5 -23.5t-67 -37.5t-55.5 -51t-36 -65q-19 -56 -1.5 -113t57.5 -99q23 -25 52 -40t60 -27q29 -10 39 -38.5t-5 -54.5q-12 -22 -35.5 -28.5t-46.5 4.5q-63 31 -112 81 t-71 118q-20 66 -7 129.5zM443 46q8 37 32 65q4 5 9.5 7t11.5 -3q5 -5 3.5 -11t-2.5 -11q-14 -37 4 -74q7 -19 22 -30.5t34 -11.5q3 0 9.5 0.5t8.5 0.5q27 5 45 26t30 44q16 33 27 67.5t21 70.5q19 71 32.5 142t29.5 143q18 70 44 139.5t75 122.5q48 52 112 68q29 8 56 7 q14 0 18.5 -12.5t-6.5 -22.5q-23 -18 -42.5 -38.5t-33.5 -47.5q-16 -31 -25 -66t-16 -71q-15 -70 -28 -138t-29 -136q-19 -74 -45 -147t-69 -139q-19 -27 -42 -50t-50.5 -39t-59 -22.5t-65.5 -0.5q-38 8 -67.5 33t-40.5 63q-11 35 -3 72z" />
<glyph unicode="&#xaf;" horiz-adv-x="529" d="M8 1141q-3 23 23 41t63 19h6l334 -13q29 -1 48 -14t19 -31q-1 -19 -20.5 -31t-46.5 -13l-333 -14q-38 -1 -64.5 15.5t-28.5 40.5z" />
<glyph unicode="&#xb0;" horiz-adv-x="666" d="M79.5 1053q-5.5 58 15 110t62.5 92.5t102 52.5q45 10 91 1t83 -37q52 -35 76 -88.5t23 -114.5q-4 -38 -20 -74.5t-41.5 -65t-59 -48t-72.5 -26.5q-61 -10 -121 14.5t-96 76.5q-37 49 -42.5 107zM259 1059q0 -20 10 -38q7 -12 20.5 -23.5t31.5 -13.5q25 -5 47.5 4t37.5 29 q8 14 10 31t-3 33.5t-16 30t-28 20.5q-14 5 -25.5 4t-22.5 -1q-27 -7 -44.5 -28.5t-17.5 -47.5z" />
<glyph unicode="&#xb1;" horiz-adv-x="559" d="M10 117q0 23 27 41t64 19h5l280 -13q29 -1 47 -14t15 -31q-3 -19 -24 -31t-49 -13l-281 -14q-38 -1 -62.5 15.5t-21.5 40.5zM56 431q1 23 28.5 41t64.5 20h5l78 -5l6 77q3 38 22.5 64.5t43.5 28.5q23 3 38.5 -23t12.5 -63q-1 -3 -1 -6l-14 -83l106 -4q29 -1 47 -14 t15 -31q-3 -19 -23.5 -31t-47.5 -13l-112 -5l-18 -112q-4 -29 -19 -48t-33 -19q-19 1 -28.5 20t-8.5 47l7 108l-82 -5q-38 -1 -63 15.5t-24 40.5z" />
<glyph unicode="&#xb2;" horiz-adv-x="543" d="M10 825q0 18 19 22l221 243l-174 -21q-22 -5 -28 16q-4 18 13 28l325 125q15 11 35 13q29 1 50 -17q22 -19 24 -47t-17 -50q-3 0 -3 -2l-7 -6q-5 -5 -13 -9l-329 -257l284 50q27 3 47.5 -16.5t23.5 -47.5q1 -29 -18 -49t-47 -23q-3 1 -4 0l-379 23q-23 3 -23 25z" />
<glyph unicode="&#xb4;" horiz-adv-x="572" d="M-6.5 888.5q2.5 8.5 9.5 13.5l381 271q31 20 65 14.5t53 -33.5q22 -29 16.5 -64t-36.5 -56q-10 -5 -18 -11l-437 -164q-11 -3 -20.5 0.5t-11.5 12.5q-4 8 -1.5 16.5z" />
<glyph unicode="&#xb5;" horiz-adv-x="817" d="M-173 -520l148 714q5 34 13 67.5t16 64.5q20 78 49.5 154t65.5 149q10 20 20 43t25 41q19 23 47 31t55 -1q27 -10 45.5 -33t21.5 -53q1 -20 -6.5 -37.5t-16.5 -35.5q-45 -86 -86 -176q-33 -70 -63.5 -143.5t-40.5 -151.5q-1 -11 -2.5 -25t0.5 -26.5t9 -22t22 -10.5 q30 -7 58 5t51 30q29 25 50.5 55t41.5 63q19 33 36 72q3 19 6.5 37.5t7.5 37.5q16 79 38.5 157t50.5 154q8 23 17 46t29 38q23 18 52 20.5t55 -12.5q25 -15 37.5 -41t8.5 -55q-3 -19 -11 -36t-15 -35q-31 -75 -61 -151.5t-54 -154.5q-11 -38 -20.5 -77t-11.5 -78 q0 -5 -1.5 -17.5t0 -25t5 -21.5t12.5 -7q8 -1 18.5 3t20.5 10.5t18.5 13.5t14.5 12q41 35 73 70q29 31 55.5 62.5t52.5 64.5q5 5 12.5 17.5t16.5 22t19 13t20 -6.5q10 -11 3.5 -24.5t-13.5 -24.5l-24 -49q-19 -35 -40.5 -69.5t-44.5 -66.5q-18 -26 -39 -54t-45.5 -51.5 t-54 -40.5t-63.5 -20q-35 -3 -66.5 11.5t-52.5 44.5q-22 31 -29.5 68t-7.5 74q-16 -33 -36.5 -65t-46.5 -57.5t-58 -43.5t-70 -23q-25 -3 -49.5 -1.5t-47.5 11.5q-11 5 -20.5 12.5t-17.5 13.5l1 -5l-160 -485q-7 -20 -27 -16q-19 4 -16 26z" />
<glyph unicode="&#xb7;" horiz-adv-x="230" d="M0 381q0 35 23 59t58 24t59 -24t24 -59q0 -34 -24 -57.5t-59 -23.5q-34 0 -57.5 23.5t-23.5 57.5z" />
<glyph unicode="&#xb8;" horiz-adv-x="301" d="M-90 -330.5q-1 12.5 3.5 21.5t15.5 14.5t26 2.5q8 -1 16.5 -4t16.5 -6q15 -4 29 -8.5t29 -7.5q27 -7 56 -13t56 -4q33 1 44 33q3 7 4.5 14t2.5 14q5 30 -11 52.5t-37 39.5q-11 10 -22 19t-23 14t-22.5 12t-16 17.5t-6 24.5t4.5 36l22 70q3 10 5 20t9 20q8 12 19.5 14 t22.5 -3t17 -16t2 -24l-27 -86q57 -3 109 -27.5t85 -73.5q27 -44 30.5 -95t-14.5 -99q-22 -60 -71 -95t-113 -33q-35 1 -70.5 12t-68.5 29.5t-61.5 41.5t-50.5 50q-10 11 -11 23.5z" />
<glyph unicode="&#xb9;" horiz-adv-x="304" d="M60 717l30 383q5 27 29 43t52 11q27 -7 42.5 -30.5t10.5 -50.5q-1 -1 -1 -4l-119 -362q-7 -20 -28 -16q-19 4 -16 26z" />
<glyph unicode="&#xba;" horiz-adv-x="621" d="M50.5 893.5q6.5 48.5 21.5 92.5q16 45 40 88t59 76q23 22 53.5 37.5t62.5 11.5q16 -3 28 -13l10 -10q3 -4 7 -5l8 3q16 3 33 0t33 -12q31 -23 36.5 -60.5t1.5 -72.5q-4 -38 -15 -73.5t-26 -70.5q31 4 57.5 21t50.5 40q4 4 8.5 9.5t10.5 7.5q7 1 11 -3t2 -10 q-1 -7 -7 -14.5l-10 -12.5q-8 -12 -21 -25q-19 -23 -44 -40t-55 -24q-16 -4 -32 -3q-3 -7 -7 -12t-8 -12q-18 -29 -40 -51q-27 -29 -63 -47t-77 -17q-48 1 -80.5 30.5t-43.5 76.5q-11 46 -4.5 94.5zM133.5 858q-5.5 -35 5.5 -65q10 -29 38 -32t52 4q31 10 56.5 29.5 t44.5 45.5q-30 11 -53 32t-38 48.5t-21 58t-2 61.5q-23 -26 -39.5 -56.5t-27.5 -61.5q-10 -29 -15.5 -64zM313 995q3 -27 13.5 -57t36.5 -45q14 29 23.5 60t12.5 63q1 10 1 26.5t-2.5 33t-11 28t-23.5 10.5q-18 -3 -27.5 -16t-13.5 -28q-5 -19 -8 -37.5t-1 -37.5z" />
<glyph unicode="&#xbb;" horiz-adv-x="674" d="M23.5 164.5q5.5 26.5 31.5 43.5l301 189l-214 134q-1 1 -2.5 1t-2.5 2q-15 12 -16.5 30.5t9.5 33.5q12 15 31 16.5t34 -9.5l224 -189q1 -3 4 -1q16 -20 -2 -40l1 -1l-284 -276q-3 -3 -5.5 -4t-5.5 -4q-25 -15 -52 -8t-42 30q-15 26 -9.5 52.5zM241.5 150.5 q5.5 26.5 31.5 43.5l302 190l-215 133q-1 1 -2.5 1.5t-2.5 1.5q-15 12 -16.5 30.5t9.5 33.5q12 15 31.5 16.5t34.5 -9.5l224 -188q1 -3 4 -2q16 -20 -3 -39l1 -2l-284 -275q-3 -3 -5.5 -4.5t-5.5 -4.5q-25 -15 -52 -8t-42 30q-15 26 -9.5 52.5z" />
<glyph unicode="&#xbd;" horiz-adv-x="543" d="M10 -44q0 18 19 22l221 243l-174 -20q-22 -5 -28 16q-4 18 13 27l325 126q15 11 35 12q29 1 50 -16q22 -19 24 -47t-17 -50q-3 0 -3 -3l-7 -5q-5 -5 -13 -10l-329 -256l284 50q27 3 47.5 -17t23.5 -47q1 -29 -18 -49.5t-47 -22.5q-3 1 -4 0l-379 23q-23 3 -23 24zM52 475 q0 19 20 22l379 71q29 3 49 -16.5t23 -47.5q1 -27 -17.5 -48.5t-46.5 -24.5q-3 1 -4 0l-380 22q-23 0 -23 22zM238 662l30 384q5 27 29 43t51 10q27 -7 43 -30t10 -50q-1 -1 -1 -5l-119 -361q-7 -20 -27 -17q-19 4 -16 26z" />
<glyph unicode="&#xbf;" horiz-adv-x="1064" d="M-61 -66q5 62 27.5 122t56.5 115q35 55 79 103t95 88q63 51 132.5 88t140.5 76q66 35 119.5 78t87.5 110q7 14 12.5 27.5t12.5 28.5q10 26 33 25q18 -1 24 -13t6 -28.5t-3.5 -33.5t-6.5 -26q-20 -102 -93 -181q-40 -44 -87.5 -78.5t-97.5 -65.5q-51 -31 -101 -65.5 t-95 -74.5q-35 -31 -65 -65t-59 -73q-35 -51 -62.5 -106.5t-30.5 -119.5q0 -59 26 -109t72 -85q38 -30 83.5 -50t94 -30t98 -11t96.5 8q61 11 118.5 41t102 75t69.5 103t21 123q-1 31 -12.5 63t-24.5 60q-10 20 -20.5 41.5t-11.5 44.5q-1 30 13.5 52.5t38 35t50.5 11 t50 -19.5q51 -40 79.5 -101t35.5 -122q7 -78 -17 -152t-74 -134q-49 -57 -112 -96t-133.5 -63t-145.5 -32t-147 -4q-55 4 -112.5 15t-112 33t-101.5 54.5t-81 79.5q-41 55 -57 115.5t-11 122.5zM718 1165q0 45 32 77t79 32q44 0 76 -32t32 -77q0 -23 -9 -43t-23.5 -35 t-34 -24t-41.5 -9q-46 0 -78.5 32.5t-32.5 78.5z" />
<glyph unicode="&#xc0;" horiz-adv-x="1213" d="M-3 367q-4 82 5.5 164t30 162t49.5 155q29 72 65.5 142.5t84 133t105.5 115.5t129 91q68 35 143.5 54.5t153.5 12.5q33 -3 65 -12t58 -29q30 -23 41 -58t7 -72q18 25 40.5 48.5t48.5 43.5t54.5 33.5t61.5 16.5q31 3 62 -11.5t43 -45.5q3 -8 4 -18.5t-1 -20.5 q-3 -14 -16.5 -13.5t-16.5 13.5q-16 30 -38 26t-44.5 -24.5t-40.5 -47t-26 -40.5q-31 -60 -53 -123.5t-40 -128.5q-22 -82 -39.5 -163.5t-32.5 -162.5q-15 -79 -27.5 -158t-17.5 -161q-3 -40 -3 -80.5t7 -80.5q3 -14 7 -30.5t11.5 -31t19 -24t30.5 -9.5q23 1 39 12.5 t32 26.5q30 27 56.5 57.5t54.5 60.5q15 16 34 44t34 43q7 8 13 15.5t13 14.5q4 5 9 11.5t11 9.5q8 3 16 -2t9 -15q0 -8 -5.5 -17t-9.5 -15q-10 -18 -18.5 -35t-19.5 -35q-19 -35 -46.5 -81t-49.5 -80q-16 -23 -34 -46.5t-40 -42.5q-27 -25 -60.5 -36.5t-67.5 -10t-66 15 t-58 41.5q-26 29 -43 63t-27.5 71.5t-16 76t-6.5 75.5q-11 -48 -27 -94t-45 -86q-45 -63 -119 -97q-33 -15 -70.5 -26t-76.5 -14.5t-76.5 1.5t-71.5 21q-74 35 -114 103t-60 143q-19 79 -23 161zM187 298q3 -40 9 -79t21 -77q11 -31 31 -59t51 -43q20 -10 45 -12.5t48 -2.5 q37 0 72.5 10t65.5 33q38 29 62.5 69t41 86.5t25.5 94.5t17 92q16 96 30 190.5t37 188.5q20 79 46.5 155.5t63.5 150.5q5 11 11.5 20.5t9.5 20.5l7 35q3 19 3.5 37.5t-3.5 36.5q-8 40 -39 53t-66 10q-81 -5 -148.5 -40.5t-122 -89.5t-98.5 -120.5t-77 -133.5 q-35 -71 -61 -145t-45 -152q-19 -82 -30 -164t-7 -165zM500 1713q8 35 38.5 53t66.5 9q10 -5 19 -7l407 -229q10 -5 13 -15t-2 -19q-4 -8 -12.5 -11.5t-16.5 -1.5l-452 118q-35 11 -53 40t-8 63z" />
<glyph unicode="&#xc1;" horiz-adv-x="1213" d="M-3 367q-4 82 5.5 164t30 162t49.5 155q29 72 65.5 142.5t84 133t105.5 115.5t129 91q68 35 143.5 54.5t153.5 12.5q33 -3 65 -12t58 -29q30 -23 41 -58t7 -72q18 25 40.5 48.5t48.5 43.5t54.5 33.5t61.5 16.5q31 3 62 -11.5t43 -45.5q3 -8 4 -18.5t-1 -20.5 q-3 -14 -16.5 -13.5t-16.5 13.5q-16 30 -38 26t-44.5 -24.5t-40.5 -47t-26 -40.5q-31 -60 -53 -123.5t-40 -128.5q-22 -82 -39.5 -163.5t-32.5 -162.5q-15 -79 -27.5 -158t-17.5 -161q-3 -40 -3 -80.5t7 -80.5q3 -14 7 -30.5t11.5 -31t19 -24t30.5 -9.5q23 1 39 12.5 t32 26.5q30 27 56.5 57.5t54.5 60.5q15 16 34 44t34 43q7 8 13 15.5t13 14.5q4 5 9 11.5t11 9.5q8 3 16 -2t9 -15q0 -8 -5.5 -17t-9.5 -15q-10 -18 -18.5 -35t-19.5 -35q-19 -35 -46.5 -81t-49.5 -80q-16 -23 -34 -46.5t-40 -42.5q-27 -25 -60.5 -36.5t-67.5 -10t-66 15 t-58 41.5q-26 29 -43 63t-27.5 71.5t-16 76t-6.5 75.5q-11 -48 -27 -94t-45 -86q-45 -63 -119 -97q-33 -15 -70.5 -26t-76.5 -14.5t-76.5 1.5t-71.5 21q-74 35 -114 103t-60 143q-19 79 -23 161zM187 298q3 -40 9 -79t21 -77q11 -31 31 -59t51 -43q20 -10 45 -12.5t48 -2.5 q37 0 72.5 10t65.5 33q38 29 62.5 69t41 86.5t25.5 94.5t17 92q16 96 30 190.5t37 188.5q20 79 46.5 155.5t63.5 150.5q5 11 11.5 20.5t9.5 20.5l7 35q3 19 3.5 37.5t-3.5 36.5q-8 40 -39 53t-66 10q-81 -5 -148.5 -40.5t-122 -89.5t-98.5 -120.5t-77 -133.5 q-35 -71 -61 -145t-45 -152q-19 -82 -30 -164t-7 -165zM595.5 1517q2.5 8 9.5 14l381 270q31 20 65 14.5t54 -33.5q22 -29 16 -64t-37 -56q-10 -5 -18 -11l-437 -164q-11 -3 -20.5 0.5t-11.5 13.5q-4 8 -1.5 16z" />
<glyph unicode="&#xc2;" horiz-adv-x="1213" d="M-3 367q-4 82 5.5 164t30 162t49.5 155q29 72 65.5 142.5t84 133t105.5 115.5t129 91q68 35 143.5 54.5t153.5 12.5q33 -3 65 -12t58 -29q30 -23 41 -58t7 -72q18 25 40.5 48.5t48.5 43.5t54.5 33.5t61.5 16.5q31 3 62 -11.5t43 -45.5q3 -8 4 -18.5t-1 -20.5 q-3 -14 -16.5 -13.5t-16.5 13.5q-16 30 -38 26t-44.5 -24.5t-40.5 -47t-26 -40.5q-31 -60 -53 -123.5t-40 -128.5q-22 -82 -39.5 -163.5t-32.5 -162.5q-15 -79 -27.5 -158t-17.5 -161q-3 -40 -3 -80.5t7 -80.5q3 -14 7 -30.5t11.5 -31t19 -24t30.5 -9.5q23 1 39 12.5 t32 26.5q30 27 56.5 57.5t54.5 60.5q15 16 34 44t34 43q7 8 13 15.5t13 14.5q4 5 9 11.5t11 9.5q8 3 16 -2t9 -15q0 -8 -5.5 -17t-9.5 -15q-10 -18 -18.5 -35t-19.5 -35q-19 -35 -46.5 -81t-49.5 -80q-16 -23 -34 -46.5t-40 -42.5q-27 -25 -60.5 -36.5t-67.5 -10t-66 15 t-58 41.5q-26 29 -43 63t-27.5 71.5t-16 76t-6.5 75.5q-11 -48 -27 -94t-45 -86q-45 -63 -119 -97q-33 -15 -70.5 -26t-76.5 -14.5t-76.5 1.5t-71.5 21q-74 35 -114 103t-60 143q-19 79 -23 161zM187 298q3 -40 9 -79t21 -77q11 -31 31 -59t51 -43q20 -10 45 -12.5t48 -2.5 q37 0 72.5 10t65.5 33q38 29 62.5 69t41 86.5t25.5 94.5t17 92q16 96 30 190.5t37 188.5q20 79 46.5 155.5t63.5 150.5q5 11 11.5 20.5t9.5 20.5l7 35q3 19 3.5 37.5t-3.5 36.5q-8 40 -39 53t-66 10q-81 -5 -148.5 -40.5t-122 -89.5t-98.5 -120.5t-77 -133.5 q-35 -71 -61 -145t-45 -152q-19 -82 -30 -164t-7 -165zM555 1496.5q-8 28.5 6 55.5q7 12 16 20.5t20 16.5l99 70l215 150q12 8 22 7.5t18.5 -7.5t14.5 -17l12 -20l75 -124l57 -96q11 -16 10.5 -35t-15.5 -34q-20 -22 -50 -16t-41 34l-91 228l-127 -151l-86 -102 q-4 -5 -8 -10.5t-10 -10.5q-23 -20 -53 -22t-53 16q-23 19 -31 47.5z" />
<glyph unicode="&#xc3;" horiz-adv-x="1213" d="M-3 367q-4 82 5.5 164t30 162t49.5 155q29 72 65.5 142.5t84 133t105.5 115.5t129 91q68 35 143.5 54.5t153.5 12.5q33 -3 65 -12t58 -29q30 -23 41 -58t7 -72q18 25 40.5 48.5t48.5 43.5t54.5 33.5t61.5 16.5q31 3 62 -11.5t43 -45.5q3 -8 4 -18.5t-1 -20.5 q-3 -14 -16.5 -13.5t-16.5 13.5q-16 30 -38 26t-44.5 -24.5t-40.5 -47t-26 -40.5q-31 -60 -53 -123.5t-40 -128.5q-22 -82 -39.5 -163.5t-32.5 -162.5q-15 -79 -27.5 -158t-17.5 -161q-3 -40 -3 -80.5t7 -80.5q3 -14 7 -30.5t11.5 -31t19 -24t30.5 -9.5q23 1 39 12.5 t32 26.5q30 27 56.5 57.5t54.5 60.5q15 16 34 44t34 43q7 8 13 15.5t13 14.5q4 5 9 11.5t11 9.5q8 3 16 -2t9 -15q0 -8 -5.5 -17t-9.5 -15q-10 -18 -18.5 -35t-19.5 -35q-19 -35 -46.5 -81t-49.5 -80q-16 -23 -34 -46.5t-40 -42.5q-27 -25 -60.5 -36.5t-67.5 -10t-66 15 t-58 41.5q-26 29 -43 63t-27.5 71.5t-16 76t-6.5 75.5q-11 -48 -27 -94t-45 -86q-45 -63 -119 -97q-33 -15 -70.5 -26t-76.5 -14.5t-76.5 1.5t-71.5 21q-74 35 -114 103t-60 143q-19 79 -23 161zM187 298q3 -40 9 -79t21 -77q11 -31 31 -59t51 -43q20 -10 45 -12.5t48 -2.5 q37 0 72.5 10t65.5 33q38 29 62.5 69t41 86.5t25.5 94.5t17 92q16 96 30 190.5t37 188.5q20 79 46.5 155.5t63.5 150.5q5 11 11.5 20.5t9.5 20.5l7 35q3 19 3.5 37.5t-3.5 36.5q-8 40 -39 53t-66 10q-81 -5 -148.5 -40.5t-122 -89.5t-98.5 -120.5t-77 -133.5 q-35 -71 -61 -145t-45 -152q-19 -82 -30 -164t-7 -165zM605 1554q14 29 31 56.5t39.5 51t49 41t57.5 26.5q63 15 115 -12.5t92 -72.5q11 -11 21 -21.5t22 -18.5q12 -10 26.5 -5.5t27.5 14t24.5 21l19.5 19.5q10 8 19 15t21 5q18 -1 28 -14.5t8 -29.5q-3 -30 -16 -59.5 t-31 -52.5q-35 -45 -86.5 -58.5t-104.5 5.5q-38 14 -65.5 39t-54.5 52q-11 10 -22 16t-26 2q-25 -10 -46 -25.5t-41 -30.5q-15 -11 -33 -24t-40 -9q-23 4 -34.5 26t-0.5 44z" />
<glyph unicode="&#xc4;" horiz-adv-x="1213" d="M-3 367q-4 82 5.5 164t30 162t49.5 155q29 72 65.5 142.5t84 133t105.5 115.5t129 91q68 35 143.5 54.5t153.5 12.5q33 -3 65 -12t58 -29q30 -23 41 -58t7 -72q18 25 40.5 48.5t48.5 43.5t54.5 33.5t61.5 16.5q31 3 62 -11.5t43 -45.5q3 -8 4 -18.5t-1 -20.5 q-3 -14 -16.5 -13.5t-16.5 13.5q-16 30 -38 26t-44.5 -24.5t-40.5 -47t-26 -40.5q-31 -60 -53 -123.5t-40 -128.5q-22 -82 -39.5 -163.5t-32.5 -162.5q-15 -79 -27.5 -158t-17.5 -161q-3 -40 -3 -80.5t7 -80.5q3 -14 7 -30.5t11.5 -31t19 -24t30.5 -9.5q23 1 39 12.5 t32 26.5q30 27 56.5 57.5t54.5 60.5q15 16 34 44t34 43q7 8 13 15.5t13 14.5q4 5 9 11.5t11 9.5q8 3 16 -2t9 -15q0 -8 -5.5 -17t-9.5 -15q-10 -18 -18.5 -35t-19.5 -35q-19 -35 -46.5 -81t-49.5 -80q-16 -23 -34 -46.5t-40 -42.5q-27 -25 -60.5 -36.5t-67.5 -10t-66 15 t-58 41.5q-26 29 -43 63t-27.5 71.5t-16 76t-6.5 75.5q-11 -48 -27 -94t-45 -86q-45 -63 -119 -97q-33 -15 -70.5 -26t-76.5 -14.5t-76.5 1.5t-71.5 21q-74 35 -114 103t-60 143q-19 79 -23 161zM187 298q3 -40 9 -79t21 -77q11 -31 31 -59t51 -43q20 -10 45 -12.5t48 -2.5 q37 0 72.5 10t65.5 33q38 29 62.5 69t41 86.5t25.5 94.5t17 92q16 96 30 190.5t37 188.5q20 79 46.5 155.5t63.5 150.5q5 11 11.5 20.5t9.5 20.5l7 35q3 19 3.5 37.5t-3.5 36.5q-8 40 -39 53t-66 10q-81 -5 -148.5 -40.5t-122 -89.5t-98.5 -120.5t-77 -133.5 q-35 -71 -61 -145t-45 -152q-19 -82 -30 -164t-7 -165zM726 1582q0 35 23.5 59.5t57.5 24.5q35 0 59 -24t24 -60q0 -34 -24 -57t-59 -23q-34 0 -57.5 23t-23.5 57zM945 1582q0 35 23 59.5t57 24.5q35 0 59.5 -24t24.5 -60q0 -34 -24 -57t-60 -23q-34 0 -57 23t-23 57z" />
<glyph unicode="&#xc5;" horiz-adv-x="1213" d="M-3 367q-4 82 5.5 164t30 162t49.5 155q29 72 65.5 142.5t84 133t105.5 115.5t129 91q68 35 143.5 54.5t153.5 12.5q33 -3 65 -12t58 -29q30 -23 41 -58t7 -72q18 25 40.5 48.5t48.5 43.5t54.5 33.5t61.5 16.5q31 3 62 -11.5t43 -45.5q3 -8 4 -18.5t-1 -20.5 q-3 -14 -16.5 -13.5t-16.5 13.5q-16 30 -38 26t-44.5 -24.5t-40.5 -47t-26 -40.5q-31 -60 -53 -123.5t-40 -128.5q-22 -82 -39.5 -163.5t-32.5 -162.5q-15 -79 -27.5 -158t-17.5 -161q-3 -40 -3 -80.5t7 -80.5q3 -14 7 -30.5t11.5 -31t19 -24t30.5 -9.5q23 1 39 12.5 t32 26.5q30 27 56.5 57.5t54.5 60.5q15 16 34 44t34 43q7 8 13 15.5t13 14.5q4 5 9 11.5t11 9.5q8 3 16 -2t9 -15q0 -8 -5.5 -17t-9.5 -15q-10 -18 -18.5 -35t-19.5 -35q-19 -35 -46.5 -81t-49.5 -80q-16 -23 -34 -46.5t-40 -42.5q-27 -25 -60.5 -36.5t-67.5 -10t-66 15 t-58 41.5q-26 29 -43 63t-27.5 71.5t-16 76t-6.5 75.5q-11 -48 -27 -94t-45 -86q-45 -63 -119 -97q-33 -15 -70.5 -26t-76.5 -14.5t-76.5 1.5t-71.5 21q-74 35 -114 103t-60 143q-19 79 -23 161zM187 298q3 -40 9 -79t21 -77q11 -31 31 -59t51 -43q20 -10 45 -12.5t48 -2.5 q37 0 72.5 10t65.5 33q38 29 62.5 69t41 86.5t25.5 94.5t17 92q16 96 30 190.5t37 188.5q20 79 46.5 155.5t63.5 150.5q5 11 11.5 20.5t9.5 20.5l7 35q3 19 3.5 37.5t-3.5 36.5q-8 40 -39 53t-66 10q-81 -5 -148.5 -40.5t-122 -89.5t-98.5 -120.5t-77 -133.5 q-35 -71 -61 -145t-45 -152q-19 -82 -30 -164t-7 -165zM764 1575q-5 50 12 95t54 79t89 45q40 8 78.5 0.5t70.5 -30.5q44 -30 65.5 -76.5t20.5 -98.5q-4 -33 -18 -64t-35.5 -55.5t-50.5 -42t-63 -22.5q-53 -8 -104.5 13t-82.5 65q-31 42 -36 92zM919 1581q0 -19 8 -33 q7 -11 18.5 -21.5t26.5 -10.5q20 -4 40 3t32 25q8 12 9.5 26.5t-2.5 29t-13.5 26t-24.5 16.5q-11 5 -21 4t-20 -1q-23 -5 -38 -23.5t-15 -40.5z" />
<glyph unicode="&#xc6;" horiz-adv-x="1677" d="M-3 367q-4 82 5.5 164t30 162t49.5 155q29 72 65.5 142.5t84 133t105.5 115.5t129 91q68 35 143.5 54.5t153.5 12.5q33 -3 65 -12t58 -29q30 -23 41 -58t7 -72q14 34 37 78t52.5 82.5t62 64.5t66.5 26q31 0 62 -13t43 -44q3 -8 4.5 -18.5t-1.5 -19.5q-3 -14 -16.5 -14 t-16.5 14q-15 29 -32.5 30.5t-34 -12t-29.5 -37.5t-17 -48q44 19 91 30.5t95 17.5q76 8 158.5 1t152.5 -41q70 -35 108 -98.5t34 -141.5q-5 -81 -48 -148.5t-105 -115.5q-30 -23 -63.5 -42t-68.5 -34q-25 -11 -55 -22t-57 -11q-30 0 -52 21t-25 51q-3 29 14.5 50t44.5 30 q67 19 132 49.5t111 85.5q25 30 40 64.5t12 74.5q-1 40 -17.5 74.5t-46.5 60.5q-29 26 -64 39.5t-72.5 17t-75.5 -1t-74 -15.5q-74 -22 -131 -69t-97 -112q-41 -66 -64.5 -144t-14.5 -156q4 -35 19 -68t44 -56q15 -12 30.5 -21t33.5 -16q5 -1 17 -7q5 -1 7 -0.5t8 0.5 q14 0 23 -9q11 -11 8 -27t-18 -23q-5 -3 -10.5 -4t-12.5 -4q-35 -11 -69.5 -24.5t-65.5 -33.5q-66 -44 -100 -110.5t-31 -143.5q3 -76 37.5 -143.5t108.5 -97.5q61 -25 133 -24.5t134 13.5q76 15 147 48t131 83q29 26 54.5 55t47.5 62q7 10 14 22.5t22 9.5q14 -3 14.5 -14.5 t-5.5 -22.5q-40 -67 -94.5 -120t-119 -92.5t-137 -67t-146.5 -40.5q-60 -12 -119.5 -17t-120.5 6q-74 14 -137 54.5t-102 104.5q-37 59 -48 123q-11 -40 -26.5 -78t-38.5 -72q-45 -63 -119 -97q-33 -15 -70.5 -26t-76.5 -14.5t-76.5 1.5t-71.5 21q-74 35 -114 103t-60 143 q-19 79 -23 161zM187 298q3 -40 9 -79t21 -77q11 -31 31 -59t51 -43q20 -10 45 -12.5t48 -2.5q37 0 72.5 10t65.5 33q38 29 62.5 69t41 86.5t25.5 94.5t17 92q16 96 30 190.5t37 188.5q20 79 46.5 155.5t63.5 150.5q5 11 11.5 20.5t9.5 20.5l7 35q3 19 3.5 37.5t-3.5 36.5 q-8 40 -39 53t-66 10q-81 -5 -148.5 -40.5t-122 -89.5t-98.5 -120.5t-77 -133.5q-35 -71 -61 -145t-45 -152q-19 -82 -30 -164t-7 -165z" />
<glyph unicode="&#xc7;" horiz-adv-x="1086" d="M10.5 440.5q0.5 90.5 18.5 179.5q30 158 108 304q37 70 83 135t104 118q59 56 129.5 97t148 64t158.5 29.5t162 -7.5q38 -7 74 -20.5t67 -35t55.5 -50t37.5 -66.5q27 -74 9.5 -151t-62.5 -139q-45 -61 -109 -104t-135 -69q-23 -10 -50.5 -18.5t-53.5 -6.5q-29 3 -50 24 t-25 50q-4 30 11 56t42 37q22 10 45 16t47 15q33 12 66 31t62 42.5t50 53.5t29 67q8 38 0 74.5t-28.5 66t-50.5 51t-67 32.5q-76 22 -155.5 3.5t-143.5 -60.5q-66 -42 -117.5 -101.5t-94.5 -125.5q-44 -67 -75.5 -138.5t-53.5 -149.5q-22 -79 -33 -160.5t-8 -162.5 q3 -76 22.5 -153.5t67.5 -139.5q46 -57 111.5 -78t136.5 -24q79 -3 155 13t147 51q33 16 69 42t69.5 57t62.5 63.5t48 65.5q7 11 16.5 20.5t24.5 -1.5q10 -7 9 -17t-7 -20q-10 -15 -24 -34.5t-30.5 -38.5t-33.5 -37.5t-29 -31.5q-104 -106 -243 -161.5t-287 -66.5h-15 l-19 -64q57 -3 109 -27.5t85 -73.5q27 -44 30.5 -95t-14.5 -99q-22 -60 -71 -94.5t-113 -33.5q-35 1 -71 12t-68.5 29.5t-61 41.5t-50.5 51q-10 11 -11.5 23t3.5 21t16 14.5t26 2.5q8 -1 16 -4t17 -5q15 -4 29 -9t29 -8q27 -7 56 -13t56 -3q33 1 44 33q3 7 4 13.5t3 13.5 q5 30 -11 52.5t-37 40.5q-11 10 -22 18.5t-23 14.5q-12 5 -22.5 12t-16 17t-6 24.5t4.5 36.5q4 15 9 29t9 29q-55 5 -106.5 23t-96.5 50q-66 46 -107.5 114t-60.5 144q-23 89 -22.5 179.5z" />
<glyph unicode="&#xc8;" horiz-adv-x="1007" d="M5.5 245.5q-9.5 76.5 10 149.5t65.5 135t114 99q11 5 20 10t20 10q-34 30 -54.5 69.5t-30 82.5t-9 88t10.5 89q20 86 70 157t121 121q66 46 140 72t152 35q76 8 159 1t152 -41q70 -35 108 -98.5t34 -141.5q-5 -81 -48 -148.5t-105 -115.5q-30 -23 -63.5 -42t-68.5 -34 q-25 -11 -55 -22t-57 -11q-30 0 -52 21t-25 51q-3 29 14.5 50t44.5 30q67 19 132 49.5t111 85.5q25 30 40 64.5t12 74.5q-1 40 -17.5 74.5t-46.5 60.5q-29 26 -63.5 39.5t-72.5 17t-76 -1t-74 -15.5q-74 -22 -131 -69t-97 -112q-41 -66 -64.5 -144t-14.5 -156q4 -35 19 -68 t44 -56q15 -12 31 -21t33 -16q5 -1 17 -7q5 -1 7 -0.5t8 0.5q14 0 23 -9q11 -11 8 -27t-18 -23q-5 -3 -10.5 -4t-12.5 -4q-35 -11 -69.5 -24.5t-65.5 -33.5q-66 -44 -100 -110.5t-31 -143.5q3 -76 37.5 -143.5t108.5 -97.5q61 -25 133 -24.5t135 13.5q76 15 146.5 48 t130.5 83q29 26 54.5 55t47.5 62q7 10 14 22.5t22 9.5q14 -3 14.5 -14.5t-5.5 -22.5q-40 -67 -94.5 -120t-119 -92.5t-137 -67t-146.5 -40.5q-60 -12 -119.5 -17t-120.5 6q-74 14 -136.5 54.5t-102.5 104.5q-41 67 -50.5 143.5zM436 1713q8 35 38.5 53t66.5 9q10 -5 19 -7 l407 -229q10 -5 13 -15t-2 -19q-4 -8 -12.5 -11.5t-16.5 -1.5l-452 118q-35 11 -53 40t-8 63z" />
<glyph unicode="&#xc9;" horiz-adv-x="1007" d="M5.5 245.5q-9.5 76.5 10 149.5t65.5 135t114 99q11 5 20 10t20 10q-34 30 -54.5 69.5t-30 82.5t-9 88t10.5 89q20 86 70 157t121 121q66 46 140 72t152 35q76 8 159 1t152 -41q70 -35 108 -98.5t34 -141.5q-5 -81 -48 -148.5t-105 -115.5q-30 -23 -63.5 -42t-68.5 -34 q-25 -11 -55 -22t-57 -11q-30 0 -52 21t-25 51q-3 29 14.5 50t44.5 30q67 19 132 49.5t111 85.5q25 30 40 64.5t12 74.5q-1 40 -17.5 74.5t-46.5 60.5q-29 26 -63.5 39.5t-72.5 17t-76 -1t-74 -15.5q-74 -22 -131 -69t-97 -112q-41 -66 -64.5 -144t-14.5 -156q4 -35 19 -68 t44 -56q15 -12 31 -21t33 -16q5 -1 17 -7q5 -1 7 -0.5t8 0.5q14 0 23 -9q11 -11 8 -27t-18 -23q-5 -3 -10.5 -4t-12.5 -4q-35 -11 -69.5 -24.5t-65.5 -33.5q-66 -44 -100 -110.5t-31 -143.5q3 -76 37.5 -143.5t108.5 -97.5q61 -25 133 -24.5t135 13.5q76 15 146.5 48 t130.5 83q29 26 54.5 55t47.5 62q7 10 14 22.5t22 9.5q14 -3 14.5 -14.5t-5.5 -22.5q-40 -67 -94.5 -120t-119 -92.5t-137 -67t-146.5 -40.5q-60 -12 -119.5 -17t-120.5 6q-74 14 -136.5 54.5t-102.5 104.5q-41 67 -50.5 143.5zM576.5 1517q2.5 8 9.5 14l381 270 q31 20 65 14.5t53 -33.5q22 -29 16.5 -64t-36.5 -56q-10 -5 -18 -11l-437 -164q-11 -3 -20.5 0.5t-11.5 13.5q-4 8 -1.5 16z" />
<glyph unicode="&#xca;" horiz-adv-x="1007" d="M5.5 245.5q-9.5 76.5 10 149.5t65.5 135t114 99q11 5 20 10t20 10q-34 30 -54.5 69.5t-30 82.5t-9 88t10.5 89q20 86 70 157t121 121q66 46 140 72t152 35q76 8 159 1t152 -41q70 -35 108 -98.5t34 -141.5q-5 -81 -48 -148.5t-105 -115.5q-30 -23 -63.5 -42t-68.5 -34 q-25 -11 -55 -22t-57 -11q-30 0 -52 21t-25 51q-3 29 14.5 50t44.5 30q67 19 132 49.5t111 85.5q25 30 40 64.5t12 74.5q-1 40 -17.5 74.5t-46.5 60.5q-29 26 -63.5 39.5t-72.5 17t-76 -1t-74 -15.5q-74 -22 -131 -69t-97 -112q-41 -66 -64.5 -144t-14.5 -156q4 -35 19 -68 t44 -56q15 -12 31 -21t33 -16q5 -1 17 -7q5 -1 7 -0.5t8 0.5q14 0 23 -9q11 -11 8 -27t-18 -23q-5 -3 -10.5 -4t-12.5 -4q-35 -11 -69.5 -24.5t-65.5 -33.5q-66 -44 -100 -110.5t-31 -143.5q3 -76 37.5 -143.5t108.5 -97.5q61 -25 133 -24.5t135 13.5q76 15 146.5 48 t130.5 83q29 26 54.5 55t47.5 62q7 10 14 22.5t22 9.5q14 -3 14.5 -14.5t-5.5 -22.5q-40 -67 -94.5 -120t-119 -92.5t-137 -67t-146.5 -40.5q-60 -12 -119.5 -17t-120.5 6q-74 14 -136.5 54.5t-102.5 104.5q-41 67 -50.5 143.5zM533.5 1487q-7.5 29 5.5 56q7 12 16 20t20 17 l99 69l215 151q12 8 22.5 7t18.5 -7.5t14 -17t12 -19.5l75 -125l57 -95q11 -16 10.5 -35.5t-15.5 -34.5q-20 -22 -49.5 -15.5t-40.5 33.5l-92 228l-127 -150l-86 -103q-4 -5 -8 -10.5t-10 -9.5q-23 -20 -53 -22.5t-53 15.5q-23 19 -30.5 48z" />
<glyph unicode="&#xcb;" horiz-adv-x="1007" d="M5.5 245.5q-9.5 76.5 10 149.5t65.5 135t114 99q11 5 20 10t20 10q-34 30 -54.5 69.5t-30 82.5t-9 88t10.5 89q20 86 70 157t121 121q66 46 140 72t152 35q76 8 159 1t152 -41q70 -35 108 -98.5t34 -141.5q-5 -81 -48 -148.5t-105 -115.5q-30 -23 -63.5 -42t-68.5 -34 q-25 -11 -55 -22t-57 -11q-30 0 -52 21t-25 51q-3 29 14.5 50t44.5 30q67 19 132 49.5t111 85.5q25 30 40 64.5t12 74.5q-1 40 -17.5 74.5t-46.5 60.5q-29 26 -63.5 39.5t-72.5 17t-76 -1t-74 -15.5q-74 -22 -131 -69t-97 -112q-41 -66 -64.5 -144t-14.5 -156q4 -35 19 -68 t44 -56q15 -12 31 -21t33 -16q5 -1 17 -7q5 -1 7 -0.5t8 0.5q14 0 23 -9q11 -11 8 -27t-18 -23q-5 -3 -10.5 -4t-12.5 -4q-35 -11 -69.5 -24.5t-65.5 -33.5q-66 -44 -100 -110.5t-31 -143.5q3 -76 37.5 -143.5t108.5 -97.5q61 -25 133 -24.5t135 13.5q76 15 146.5 48 t130.5 83q29 26 54.5 55t47.5 62q7 10 14 22.5t22 9.5q14 -3 14.5 -14.5t-5.5 -22.5q-40 -67 -94.5 -120t-119 -92.5t-137 -67t-146.5 -40.5q-60 -12 -119.5 -17t-120.5 6q-74 14 -136.5 54.5t-102.5 104.5q-41 67 -50.5 143.5zM627 1582q0 35 23 59.5t57 24.5 q35 0 59.5 -24t24.5 -60q0 -34 -24 -57t-60 -23q-34 0 -57 23t-23 57zM845 1582q0 35 23.5 59.5t57.5 24.5q35 0 59 -24t24 -60q0 -34 -24 -57t-59 -23q-34 0 -57.5 23t-23.5 57z" />
<glyph unicode="&#xcc;" horiz-adv-x="673" d="M-4 67.5q0 37.5 20 73.5q15 26 37.5 45t50.5 31q33 15 71 11.5t72 -7.5q11 -1 12.5 0.5t4.5 10.5l4 19q3 10 4.5 19t4.5 18q5 19 10 39t9 39q11 40 20 80.5t19 81.5q19 82 38.5 163.5t42.5 161.5q-26 -19 -53.5 -44t-50.5 -54.5t-36.5 -63t-10.5 -68.5q3 -25 9.5 -47.5 t-2.5 -48.5q-10 -26 -31 -43t-48 -20t-52.5 10t-40.5 37q-12 23 -13.5 51t0.5 52q7 72 46.5 129t99.5 97q33 23 69.5 39.5t71.5 32.5q11 4 21.5 9t20.5 9q7 3 16 5.5t12 9.5q5 18 10.5 34t12.5 34q25 71 57 143.5t84 129.5q25 26 55.5 47t64.5 33.5t71 15t72 -6.5 q34 -11 62 -33.5t42 -56.5q15 -35 8 -72t-27 -69q-37 -57 -96.5 -87t-120.5 -53l-56 -21l-18 -7l-4 -13l-10 -36l-20 -76q-42 -162 -84 -325.5t-102 -320.5q37 0 63.5 4t50 14t45 28t49.5 45q8 8 18 24t25 13t15.5 -15t-6.5 -20q-18 -20 -39.5 -43t-48.5 -42t-62.5 -32 t-82.5 -14h-25t-20 -7l-17 -38q-10 -19 -20 -38.5t-21 -38.5q-22 -35 -48.5 -68t-65.5 -49q-30 -12 -63.5 -17t-64.5 2q-38 7 -68 30t-46.5 55t-16.5 69.5zM76 98q-7 -26 6.5 -49.5t40.5 -29.5q15 -3 28.5 0.5t25.5 10.5q3 1 9.5 6.5t10.5 4.5q1 0 4.5 6t7 13t6 14t2.5 8 q7 18 12.5 34t10.5 34q3 8 6 19q-25 1 -57 2.5t-55 -10.5q-19 -10 -35 -27t-23 -36zM477 1713q8 35 38.5 53t66.5 9q10 -5 19 -7l407 -229q10 -5 13 -15t-2 -19q-4 -8 -12.5 -11.5t-16.5 -1.5l-452 118q-35 11 -53 40t-8 63zM689 1054q35 16 71 34.5t66 46.5q16 15 31 37.5 t13 45.5q-3 18 -20 18.5t-29 -3.5q-31 -10 -56 -37q-19 -19 -32 -43t-24 -50z" />
<glyph unicode="&#xcd;" horiz-adv-x="673" d="M-4 67.5q0 37.5 20 73.5q15 26 37.5 45t50.5 31q33 15 71 11.5t72 -7.5q11 -1 12.5 0.5t4.5 10.5l4 19q3 10 4.5 19t4.5 18q5 19 10 39t9 39q11 40 20 80.5t19 81.5q19 82 38.5 163.5t42.5 161.5q-26 -19 -53.5 -44t-50.5 -54.5t-36.5 -63t-10.5 -68.5q3 -25 9.5 -47.5 t-2.5 -48.5q-10 -26 -31 -43t-48 -20t-52.5 10t-40.5 37q-12 23 -13.5 51t0.5 52q7 72 46.5 129t99.5 97q33 23 69.5 39.5t71.5 32.5q11 4 21.5 9t20.5 9q7 3 16 5.5t12 9.5q5 18 10.5 34t12.5 34q25 71 57 143.5t84 129.5q25 26 55.5 47t64.5 33.5t71 15t72 -6.5 q34 -11 62 -33.5t42 -56.5q15 -35 8 -72t-27 -69q-37 -57 -96.5 -87t-120.5 -53l-56 -21l-18 -7l-4 -13l-10 -36l-20 -76q-42 -162 -84 -325.5t-102 -320.5q37 0 63.5 4t50 14t45 28t49.5 45q8 8 18 24t25 13t15.5 -15t-6.5 -20q-18 -20 -39.5 -43t-48.5 -42t-62.5 -32 t-82.5 -14h-25t-20 -7l-17 -38q-10 -19 -20 -38.5t-21 -38.5q-22 -35 -48.5 -68t-65.5 -49q-30 -12 -63.5 -17t-64.5 2q-38 7 -68 30t-46.5 55t-16.5 69.5zM76 98q-7 -26 6.5 -49.5t40.5 -29.5q15 -3 28.5 0.5t25.5 10.5q3 1 9.5 6.5t10.5 4.5q1 0 4.5 6t7 13t6 14t2.5 8 q7 18 12.5 34t10.5 34q3 8 6 19q-25 1 -57 2.5t-55 -10.5q-19 -10 -35 -27t-23 -36zM689 1054q35 16 71 34.5t66 46.5q16 15 31 37.5t13 45.5q-3 18 -20 18.5t-29 -3.5q-31 -10 -56 -37q-19 -19 -32 -43t-24 -50zM704.5 1517q2.5 8 9.5 14l381 270q31 20 65.5 14.5 t53.5 -33.5q22 -29 16.5 -64t-37.5 -56q-10 -5 -17 -11l-437 -164q-11 -3 -20.5 0.5t-12.5 13.5q-4 8 -1.5 16z" />
<glyph unicode="&#xce;" horiz-adv-x="673" d="M-4 67.5q0 37.5 20 73.5q15 26 37.5 45t50.5 31q33 15 71 11.5t72 -7.5q11 -1 12.5 0.5t4.5 10.5l4 19q3 10 4.5 19t4.5 18q5 19 10 39t9 39q11 40 20 80.5t19 81.5q19 82 38.5 163.5t42.5 161.5q-26 -19 -53.5 -44t-50.5 -54.5t-36.5 -63t-10.5 -68.5q3 -25 9.5 -47.5 t-2.5 -48.5q-10 -26 -31 -43t-48 -20t-52.5 10t-40.5 37q-12 23 -13.5 51t0.5 52q7 72 46.5 129t99.5 97q33 23 69.5 39.5t71.5 32.5q11 4 21.5 9t20.5 9q7 3 16 5.5t12 9.5q5 18 10.5 34t12.5 34q25 71 57 143.5t84 129.5q25 26 55.5 47t64.5 33.5t71 15t72 -6.5 q34 -11 62 -33.5t42 -56.5q15 -35 8 -72t-27 -69q-37 -57 -96.5 -87t-120.5 -53l-56 -21l-18 -7l-4 -13l-10 -36l-20 -76q-42 -162 -84 -325.5t-102 -320.5q37 0 63.5 4t50 14t45 28t49.5 45q8 8 18 24t25 13t15.5 -15t-6.5 -20q-18 -20 -39.5 -43t-48.5 -42t-62.5 -32 t-82.5 -14h-25t-20 -7l-17 -38q-10 -19 -20 -38.5t-21 -38.5q-22 -35 -48.5 -68t-65.5 -49q-30 -12 -63.5 -17t-64.5 2q-38 7 -68 30t-46.5 55t-16.5 69.5zM76 98q-7 -26 6.5 -49.5t40.5 -29.5q15 -3 28.5 0.5t25.5 10.5q3 1 9.5 6.5t10.5 4.5q1 0 4.5 6t7 13t6 14t2.5 8 q7 18 12.5 34t10.5 34q3 8 6 19q-25 1 -57 2.5t-55 -10.5q-19 -10 -35 -27t-23 -36zM607 1510q-8 29 6 56q7 12 16 20.5t20 16.5l99 70l215 150q12 8 22 7.5t18.5 -7.5t14.5 -17.5t11 -19.5l76 -124l57 -96q11 -16 10 -35.5t-16 -34.5q-20 -22 -49.5 -15.5t-40.5 33.5 l-91 228l-127 -150l-86 -102q-4 -5 -8 -11t-10 -10q-23 -20 -53 -22t-53 15q-23 19 -31 48zM689 1054q35 16 71 34.5t66 46.5q16 15 31 37.5t13 45.5q-3 18 -20 18.5t-29 -3.5q-31 -10 -56 -37q-19 -19 -32 -43t-24 -50z" />
<glyph unicode="&#xcf;" horiz-adv-x="673" d="M-4 67.5q0 37.5 20 73.5q15 26 37.5 45t50.5 31q33 15 71 11.5t72 -7.5q11 -1 12.5 0.5t4.5 10.5l4 19q3 10 4.5 19t4.5 18q5 19 10 39t9 39q11 40 20 80.5t19 81.5q19 82 38.5 163.5t42.5 161.5q-26 -19 -53.5 -44t-50.5 -54.5t-36.5 -63t-10.5 -68.5q3 -25 9.5 -47.5 t-2.5 -48.5q-10 -26 -31 -43t-48 -20t-52.5 10t-40.5 37q-12 23 -13.5 51t0.5 52q7 72 46.5 129t99.5 97q33 23 69.5 39.5t71.5 32.5q11 4 21.5 9t20.5 9q7 3 16 5.5t12 9.5q5 18 10.5 34t12.5 34q25 71 57 143.5t84 129.5q25 26 55.5 47t64.5 33.5t71 15t72 -6.5 q34 -11 62 -33.5t42 -56.5q15 -35 8 -72t-27 -69q-37 -57 -96.5 -87t-120.5 -53l-56 -21l-18 -7l-4 -13l-10 -36l-20 -76q-42 -162 -84 -325.5t-102 -320.5q37 0 63.5 4t50 14t45 28t49.5 45q8 8 18 24t25 13t15.5 -15t-6.5 -20q-18 -20 -39.5 -43t-48.5 -42t-62.5 -32 t-82.5 -14h-25t-20 -7l-17 -38q-10 -19 -20 -38.5t-21 -38.5q-22 -35 -48.5 -68t-65.5 -49q-30 -12 -63.5 -17t-64.5 2q-38 7 -68 30t-46.5 55t-16.5 69.5zM76 98q-7 -26 6.5 -49.5t40.5 -29.5q15 -3 28.5 0.5t25.5 10.5q3 1 9.5 6.5t10.5 4.5q1 0 4.5 6t7 13t6 14t2.5 8 q7 18 12.5 34t10.5 34q3 8 6 19q-25 1 -57 2.5t-55 -10.5q-19 -10 -35 -27t-23 -36zM631 1582q0 35 23 59.5t57 24.5q35 0 59.5 -24t24.5 -60q0 -34 -24 -57t-60 -23q-34 0 -57 23t-23 57zM689 1054q35 16 71 34.5t66 46.5q16 15 31 37.5t13 45.5q-3 18 -20 18.5t-29 -3.5 q-31 -10 -56 -37q-19 -19 -32 -43t-24 -50zM849 1582q0 35 23.5 59.5t57.5 24.5q35 0 59 -24t24 -60q0 -34 -24 -57t-59 -23q-34 0 -57.5 23t-23.5 57z" />
<glyph unicode="&#xd0;" horiz-adv-x="1460" d="M16 881q3 75 37 143t82 126q52 61 121 104t147 70q70 25 142.5 37.5t146.5 18.5q79 7 157 0t153 -34q87 -31 159 -87t124 -133q46 -68 74 -143.5t40.5 -156.5t10.5 -162.5t-19 -161.5q-15 -74 -41.5 -149.5t-66 -143.5t-93 -127t-120.5 -98q-134 -79 -288 -67 q-75 7 -131 48.5t-82 113.5q-3 7 -7.5 23.5t-6 32t3.5 28t23 10.5q14 -1 17.5 -11t6.5 -21q11 -37 33 -67t50.5 -45t60.5 -18.5t65 4t64 22.5q68 33 119.5 91t91.5 122q40 68 65 144t37 153q12 76 10.5 157.5t-19.5 159t-55.5 147t-98.5 124.5q-56 51 -124.5 83.5t-144 48 t-152.5 15.5t-149 -12q-75 -14 -145 -44.5t-126 -84.5q-55 -52 -80.5 -122t-2.5 -144q23 -72 80.5 -122.5t123.5 -82.5q23 -12 45.5 -24t31.5 -41q10 -27 -1.5 -54.5t-37.5 -41.5q-23 -11 -45.5 -7.5t-43.5 15.5q-31 19 -59 41t-54 48q-57 55 -94 124t-35 151zM35.5 87 q-1.5 39 12.5 74q5 14 17.5 36.5t27.5 25.5q10 1 13 -4t2.5 -12.5t-3.5 -15.5t-4 -12q-8 -34 1 -71.5t37 -61.5q22 -18 50.5 -18.5t52.5 10.5q34 15 55 48t36 66q15 35 27.5 71t23.5 73q4 15 8 29.5t7 29.5l-96 -3q-38 -1 -64.5 15.5t-28.5 40.5q-3 23 23 41t63 19h6l121 -4 l10 41q22 111 48 223t77 213q34 66 87 119t126 73q22 5 45 8q8 1 18.5 2t17.5 -2q14 -5 14 -18t-10 -21q-31 -23 -59 -49t-47 -60t-32 -72t-22 -77.5t-16 -79t-15 -77.5q-11 -57 -22.5 -112t-25.5 -112q-1 -1 -1 -6l102 -2q29 -1 48 -14.5t19 -30.5q-1 -19 -20.5 -31 t-46.5 -13l-128 -4q-19 -72 -45 -138q-14 -35 -30.5 -71.5t-37 -70.5t-45.5 -64t-55 -55q-37 -29 -83.5 -42.5t-92 -8.5t-86 29.5t-62.5 72.5q-16 34 -17.5 73z" />
<glyph unicode="&#xd1;" horiz-adv-x="1548" d="M-3.5 51q-4.5 36 7.5 73q3 8 10.5 27.5t18.5 36.5t24 26t26 -2q15 -11 9 -26t-11 -28q-15 -38 -10 -73q7 -37 35 -52t62 -2q26 11 47 29t36 41q45 66 71 143t47 152q45 158 81 319.5t91 318.5q-48 -22 -93 -51t-82 -65.5t-62 -82.5t-31 -102q-5 -48 4.5 -91.5t28.5 -87.5 q15 -34 4 -68.5t-44 -54.5q-27 -15 -56.5 -11.5t-51.5 22.5q-19 18 -26.5 42t-11.5 47q-11 79 6 153.5t65 138.5q45 61 105 112t123 94q33 23 67 44t70 40q5 3 10 5.5t9 5.5l8 16q3 8 7 16.5t8 16.5q8 16 16.5 32t19.5 31q5 11 9 15q15 22 35 43t43 38t49 28t53 14 q35 3 65 -16.5t38 -54.5q7 -33 -7 -64.5t-36 -54.5q-25 -27 -62 -49q-8 -5 -16.5 -9.5t-16.5 -8.5q-7 -3 -8.5 -3t-3.5 -7q-5 -10 -7 -17q-15 -37 -26 -74.5t-22 -76.5q-22 -82 -41 -161.5t-41 -161.5q40 94 84 185t98 178q37 60 83 123.5t103 116t124.5 85.5t145.5 33 q40 0 76.5 -11t65.5 -37q29 -25 44.5 -59t21.5 -71q12 -79 -2 -159.5t-37 -155.5q-23 -79 -54 -155t-64.5 -151t-68 -149.5t-64.5 -150.5q-15 -35 -27.5 -73t-15.5 -78q-1 -15 1.5 -28.5t17.5 -18.5q7 -3 13.5 -4t12.5 -2q31 -4 61.5 11t56.5 31q33 23 62 50t57 56 q29 30 54.5 61t48.5 64q7 8 13 18t17 8q15 -3 16.5 -14.5t-5.5 -22.5q-37 -60 -77.5 -117t-88.5 -109q-20 -23 -45 -47t-51.5 -44t-57.5 -33t-63 -16q-31 -1 -62 6.5t-57 29.5q-27 23 -40 56.5t-16 68.5q-7 81 13.5 161.5t45.5 157.5q26 78 56.5 154t61.5 153 q31 78 64 153.5t59 154.5q11 34 19.5 72t1.5 73q-5 31 -30 41.5t-52 13.5q-37 4 -72 -6.5t-67 -29t-61.5 -42t-53.5 -48.5q-59 -57 -106.5 -120.5t-91.5 -133.5q-89 -142 -160 -288q-18 -37 -35 -74t-33 -75q-12 -40 -25 -78.5t-28 -78.5q-23 -61 -57.5 -130.5t-81.5 -125 t-110 -85t-143 -8.5q-38 10 -67.5 31.5t-47.5 51.5t-22.5 66zM919 1554q14 29 31 56.5t39.5 51t49 41t57.5 26.5q63 15 115 -12.5t92 -72.5q11 -11 21 -21.5t22 -18.5q12 -10 26.5 -5.5t27.5 14t24.5 21t20.5 19.5q10 8 18.5 15t20.5 5q18 -1 28 -14.5t8 -29.5 q-3 -30 -16 -59.5t-31 -52.5q-35 -45 -86.5 -58.5t-104.5 5.5q-38 14 -65.5 39t-54.5 52q-11 10 -22 16t-26 2q-25 -10 -46 -25.5t-41 -30.5q-15 -11 -33 -24t-40 -9q-23 4 -34.5 26t-0.5 44z" />
<glyph unicode="&#xd2;" horiz-adv-x="1157" d="M8 477q11 162 65 319.5t145 293.5q42 63 95.5 121.5t117 103t136 71t153.5 27.5q26 0 49 -9t38 -30q16 -23 17 -53.5t-14 -54.5q-15 -22 -36.5 -32.5t-47.5 -11.5q-61 -1 -121 -30q-70 -31 -126.5 -85t-100.5 -116q-45 -64 -80.5 -133t-62.5 -143q-27 -78 -45 -157.5 t-21 -161.5q-1 -37 1 -76t11 -76.5t24.5 -71.5t42.5 -61q45 -45 108 -56t125 -3q78 12 142.5 53t116.5 98q-56 38 -97 93.5t-70 117.5q-60 124 -72 263q-5 63 1 132.5t28.5 134t63.5 117t105 82.5q27 14 59.5 21t65 6.5t64 -10t55.5 -30.5q30 -25 47.5 -58t26 -70.5 t10.5 -76.5t2 -74q0 -161 -38.5 -318.5t-122.5 -294.5q40 -14 81 -8.5t79 20.5q19 8 37.5 18.5t36.5 20.5q16 11 31 23.5t32 23.5q12 11 27 2t11 -25q-3 -10 -10 -16t-13 -13q-7 -7 -14 -12.5t-14 -10.5q-30 -26 -63.5 -48t-68.5 -37t-73.5 -22t-76.5 -1q-22 1 -43 8 q-5 3 -6.5 3.5t-5.5 -4.5l-11 -14q-20 -26 -48 -53q-56 -56 -123.5 -95t-145.5 -55q-61 -12 -125 -9.5t-123 26.5q-72 31 -120.5 90.5t-74.5 131.5q-26 71 -33 145t-3 150zM434 1713q8 35 39 53t66 9q10 -5 19 -7l407 -229q10 -5 13.5 -15t-2.5 -19q-4 -8 -12 -11.5 t-16 -1.5l-452 118q-35 11 -53 40t-9 63zM674.5 665q-0.5 -83 14.5 -164q12 -61 37.5 -120.5t72.5 -101.5q34 51 59 104t44 110q26 78 41 157.5t11 161.5q-3 40 -9.5 78t-22.5 74q-5 12 -13 23.5t-17 21.5t-20.5 14t-26.5 1q-34 -4 -59.5 -24t-43.5 -48.5t-30 -61.5t-18 -61 q-19 -81 -19.5 -164z" />
<glyph unicode="&#xd3;" horiz-adv-x="1157" d="M8 477q11 162 65 319.5t145 293.5q42 63 95.5 121.5t117 103t136 71t153.5 27.5q26 0 49 -9t38 -30q16 -23 17 -53.5t-14 -54.5q-15 -22 -36.5 -32.5t-47.5 -11.5q-61 -1 -121 -30q-70 -31 -126.5 -85t-100.5 -116q-45 -64 -80.5 -133t-62.5 -143q-27 -78 -45 -157.5 t-21 -161.5q-1 -37 1 -76t11 -76.5t24.5 -71.5t42.5 -61q45 -45 108 -56t125 -3q78 12 142.5 53t116.5 98q-56 38 -97 93.5t-70 117.5q-60 124 -72 263q-5 63 1 132.5t28.5 134t63.5 117t105 82.5q27 14 59.5 21t65 6.5t64 -10t55.5 -30.5q30 -25 47.5 -58t26 -70.5 t10.5 -76.5t2 -74q0 -161 -38.5 -318.5t-122.5 -294.5q40 -14 81 -8.5t79 20.5q19 8 37.5 18.5t36.5 20.5q16 11 31 23.5t32 23.5q12 11 27 2t11 -25q-3 -10 -10 -16t-13 -13q-7 -7 -14 -12.5t-14 -10.5q-30 -26 -63.5 -48t-68.5 -37t-73.5 -22t-76.5 -1q-22 1 -43 8 q-5 3 -6.5 3.5t-5.5 -4.5l-11 -14q-20 -26 -48 -53q-56 -56 -123.5 -95t-145.5 -55q-61 -12 -125 -9.5t-123 26.5q-72 31 -120.5 90.5t-74.5 131.5q-26 71 -33 145t-3 150zM596.5 1517q2.5 8 9.5 14l381 270q31 20 65.5 14.5t53.5 -33.5q22 -29 16.5 -64t-37.5 -56 q-10 -5 -17 -11l-437 -164q-11 -3 -20.5 0.5t-12.5 13.5q-4 8 -1.5 16zM674.5 665q-0.5 -83 14.5 -164q12 -61 37.5 -120.5t72.5 -101.5q34 51 59 104t44 110q26 78 41 157.5t11 161.5q-3 40 -9.5 78t-22.5 74q-5 12 -13 23.5t-17 21.5t-20.5 14t-26.5 1q-34 -4 -59.5 -24 t-43.5 -48.5t-30 -61.5t-18 -61q-19 -81 -19.5 -164z" />
<glyph unicode="&#xd4;" horiz-adv-x="1157" d="M8 477q11 162 65 319.5t145 293.5q42 63 95.5 121.5t117 103t136 71t153.5 27.5q26 0 49 -9t38 -30q16 -23 17 -53.5t-14 -54.5q-15 -22 -36.5 -32.5t-47.5 -11.5q-61 -1 -121 -30q-70 -31 -126.5 -85t-100.5 -116q-45 -64 -80.5 -133t-62.5 -143q-27 -78 -45 -157.5 t-21 -161.5q-1 -37 1 -76t11 -76.5t24.5 -71.5t42.5 -61q45 -45 108 -56t125 -3q78 12 142.5 53t116.5 98q-56 38 -97 93.5t-70 117.5q-60 124 -72 263q-5 63 1 132.5t28.5 134t63.5 117t105 82.5q27 14 59.5 21t65 6.5t64 -10t55.5 -30.5q30 -25 47.5 -58t26 -70.5 t10.5 -76.5t2 -74q0 -161 -38.5 -318.5t-122.5 -294.5q40 -14 81 -8.5t79 20.5q19 8 37.5 18.5t36.5 20.5q16 11 31 23.5t32 23.5q12 11 27 2t11 -25q-3 -10 -10 -16t-13 -13q-7 -7 -14 -12.5t-14 -10.5q-30 -26 -63.5 -48t-68.5 -37t-73.5 -22t-76.5 -1q-22 1 -43 8 q-5 3 -6.5 3.5t-5.5 -4.5l-11 -14q-20 -26 -48 -53q-56 -56 -123.5 -95t-145.5 -55q-61 -12 -125 -9.5t-123 26.5q-72 31 -120.5 90.5t-74.5 131.5q-26 71 -33 145t-3 150zM555 1525q-8 29 6 56q7 12 16 20.5t20 16.5l99 70l215 150q12 8 22 7.5t18.5 -7.5t14.5 -17.5 t12 -19.5l75 -124l57 -96q11 -16 10.5 -35.5t-15.5 -34.5q-20 -22 -50 -15.5t-41 33.5l-91 228l-127 -150l-86 -102q-4 -5 -8 -11t-10 -10q-23 -20 -53 -22t-53 15q-23 19 -31 48zM674.5 665q-0.5 -83 14.5 -164q12 -61 37.5 -120.5t72.5 -101.5q34 51 59 104t44 110 q26 78 41 157.5t11 161.5q-3 40 -9.5 78t-22.5 74q-5 12 -13 23.5t-17 21.5t-20.5 14t-26.5 1q-34 -4 -59.5 -24t-43.5 -48.5t-30 -61.5t-18 -61q-19 -81 -19.5 -164z" />
<glyph unicode="&#xd5;" horiz-adv-x="1157" d="M8 477q11 162 65 319.5t145 293.5q42 63 95.5 121.5t117 103t136 71t153.5 27.5q26 0 49 -9t38 -30q16 -23 17 -53.5t-14 -54.5q-15 -22 -36.5 -32.5t-47.5 -11.5q-61 -1 -121 -30q-70 -31 -126.5 -85t-100.5 -116q-45 -64 -80.5 -133t-62.5 -143q-27 -78 -45 -157.5 t-21 -161.5q-1 -37 1 -76t11 -76.5t24.5 -71.5t42.5 -61q45 -45 108 -56t125 -3q78 12 142.5 53t116.5 98q-56 38 -97 93.5t-70 117.5q-60 124 -72 263q-5 63 1 132.5t28.5 134t63.5 117t105 82.5q27 14 59.5 21t65 6.5t64 -10t55.5 -30.5q30 -25 47.5 -58t26 -70.5 t10.5 -76.5t2 -74q0 -161 -38.5 -318.5t-122.5 -294.5q40 -14 81 -8.5t79 20.5q19 8 37.5 18.5t36.5 20.5q16 11 31 23.5t32 23.5q12 11 27 2t11 -25q-3 -10 -10 -16t-13 -13q-7 -7 -14 -12.5t-14 -10.5q-30 -26 -63.5 -48t-68.5 -37t-73.5 -22t-76.5 -1q-22 1 -43 8 q-5 3 -6.5 3.5t-5.5 -4.5l-11 -14q-20 -26 -48 -53q-56 -56 -123.5 -95t-145.5 -55q-61 -12 -125 -9.5t-123 26.5q-72 31 -120.5 90.5t-74.5 131.5q-26 71 -33 145t-3 150zM547 1596q14 29 31 57t39.5 51t49.5 41t58 26q63 15 115 -12.5t91 -72.5q11 -11 21.5 -21t22.5 -18 q12 -10 26.5 -6t27.5 13.5t24.5 21.5t19.5 20q10 8 18.5 15t21.5 4q18 -1 28 -14t7 -30q-3 -30 -15.5 -59.5t-30.5 -52.5q-35 -45 -86.5 -58.5t-104.5 5.5q-38 14 -65.5 39t-54.5 52q-11 10 -22 16t-26 2q-25 -10 -46 -25.5t-42 -30.5q-15 -11 -32.5 -24t-39.5 -9 q-23 4 -35 26t-1 44zM674.5 665q-0.5 -83 14.5 -164q12 -61 37.5 -120.5t72.5 -101.5q34 51 59 104t44 110q26 78 41 157.5t11 161.5q-3 40 -9.5 78t-22.5 74q-5 12 -13 23.5t-17 21.5t-20.5 14t-26.5 1q-34 -4 -59.5 -24t-43.5 -48.5t-30 -61.5t-18 -61q-19 -81 -19.5 -164 z" />
<glyph unicode="&#xd6;" horiz-adv-x="1157" d="M8 477q11 162 65 319.5t145 293.5q42 63 95.5 121.5t117 103t136 71t153.5 27.5q26 0 49 -9t38 -30q16 -23 17 -53.5t-14 -54.5q-15 -22 -36.5 -32.5t-47.5 -11.5q-61 -1 -121 -30q-70 -31 -126.5 -85t-100.5 -116q-45 -64 -80.5 -133t-62.5 -143q-27 -78 -45 -157.5 t-21 -161.5q-1 -37 1 -76t11 -76.5t24.5 -71.5t42.5 -61q45 -45 108 -56t125 -3q78 12 142.5 53t116.5 98q-56 38 -97 93.5t-70 117.5q-60 124 -72 263q-5 63 1 132.5t28.5 134t63.5 117t105 82.5q27 14 59.5 21t65 6.5t64 -10t55.5 -30.5q30 -25 47.5 -58t26 -70.5 t10.5 -76.5t2 -74q0 -161 -38.5 -318.5t-122.5 -294.5q40 -14 81 -8.5t79 20.5q19 8 37.5 18.5t36.5 20.5q16 11 31 23.5t32 23.5q12 11 27 2t11 -25q-3 -10 -10 -16t-13 -13q-7 -7 -14 -12.5t-14 -10.5q-30 -26 -63.5 -48t-68.5 -37t-73.5 -22t-76.5 -1q-22 1 -43 8 q-5 3 -6.5 3.5t-5.5 -4.5l-11 -14q-20 -26 -48 -53q-56 -56 -123.5 -95t-145.5 -55q-61 -12 -125 -9.5t-123 26.5q-72 31 -120.5 90.5t-74.5 131.5q-26 71 -33 145t-3 150zM674.5 665q-0.5 -83 14.5 -164q12 -61 37.5 -120.5t72.5 -101.5q34 51 59 104t44 110 q26 78 41 157.5t11 161.5q-3 40 -9.5 78t-22.5 74q-5 12 -13 23.5t-17 21.5t-20.5 14t-26.5 1q-34 -4 -59.5 -24t-43.5 -48.5t-30 -61.5t-18 -61q-19 -81 -19.5 -164zM688 1614q0 35 23.5 59t57.5 24q35 0 59 -24t24 -59q0 -34 -24 -57.5t-59 -23.5q-34 0 -57.5 23.5 t-23.5 57.5zM907 1614q0 35 23 59t57 24q35 0 59 -24t24 -59q0 -34 -23.5 -57.5t-59.5 -23.5q-34 0 -57 23.5t-23 57.5z" />
<glyph unicode="&#xd7;" horiz-adv-x="502" d="M61 209.5q6 30.5 30 58.5q4 1 5 4l58 53l-56 50q-27 26 -35 56t9 50q15 19 45 12.5t58 -30.5l4 -4l56 -62l78 71q22 20 44.5 24.5t34.5 -7.5q12 -15 7.5 -37t-24.5 -41l-75 -82l77 -83q19 -22 23 -44.5t-8 -35.5q-14 -12 -36.5 -7t-41.5 24l-79 72l-56 -61 q-26 -27 -56 -35t-49 9q-19 15 -13 45.5z" />
<glyph unicode="&#xd8;" horiz-adv-x="1157" d="M8 477q11 162 65 319.5t145 293.5q42 63 95.5 121.5t117 103t136 71t153.5 27.5q26 0 49 -9t38 -30q16 -23 17 -53.5t-14 -54.5q-15 -22 -36.5 -32.5t-47.5 -11.5q-61 -1 -121 -30q-70 -31 -126.5 -85t-100.5 -116q-45 -64 -80.5 -133t-62.5 -143q-27 -78 -45 -157.5 t-21 -161.5q-1 -37 1 -76t11 -76.5t24.5 -71.5t42.5 -61t59 -41l231 430q-29 86 -37 177q-5 63 1 132.5t28.5 134t63.5 117t105 82.5q42 20 94 25.5t99 -9.5l139 260q14 25 40.5 33t50.5 -6q26 -14 34.5 -40.5t-5.5 -51.5q0 -1 -1 -2l-163 -273q29 -51 35.5 -111.5 t6.5 -116.5q0 -161 -38.5 -318.5t-122.5 -294.5q40 -14 81 -8.5t79 20.5q19 8 37.5 18.5t36.5 20.5q16 11 31 23.5t32 23.5q12 11 27 2t11 -25q-3 -10 -10 -16t-13 -13q-7 -7 -14 -12.5t-14 -10.5q-30 -26 -63.5 -48t-68.5 -37t-73.5 -22t-76.5 -1q-22 1 -43 8 q-5 3 -6.5 3.5t-5.5 -4.5l-11 -14q-20 -26 -48 -53q-56 -56 -123.5 -95t-145.5 -55q-44 -8 -90 -9.5t-91 6.5l-186 -313q-4 -8 -13 -10t-17 2q-7 5 -9.5 13.5t1.5 16.5l165 309l-8 2q-72 31 -120.5 90.5t-74.5 131.5q-26 71 -33 145t-3 150zM373 52q53 -8 108 0 q78 12 142.5 53t116.5 98q-52 35 -92 86.5t-68 109.5zM680 565q3 -16 4.5 -32.5t4.5 -31.5q12 -61 37.5 -120.5t72.5 -101.5q34 51 59 104t44 110q26 78 41 157.5t11 161.5q-3 40 -9.5 78t-22.5 74q-1 1 -2 3zM681 769l134 247q-27 -11 -47 -31.5t-35 -46.5t-24.5 -54.5 t-14.5 -54.5q-8 -33 -13 -60z" />
<glyph unicode="&#xd9;" horiz-adv-x="1373" d="M-37.5 1000.5q7.5 76.5 43.5 142t97 111.5t139 57q51 7 105 -1.5t99 -31.5q57 -31 84 -86.5t30 -118.5t-7 -125t-28 -122.5t-43.5 -119.5t-52.5 -113q-23 -48 -46.5 -94t-47.5 -92q-27 -52 -54.5 -104.5t-47.5 -109.5q-4 -14 -10 -32t-8 -36.5t2 -34.5t18 -27 q19 -15 47 -21.5t53 -3.5q37 3 71.5 18.5t66 39t59.5 50.5t52 55q53 60 99 125.5t86 134.5q20 34 38.5 68.5t37.5 69.5q10 19 18.5 36.5t17.5 36.5q10 18 13 37.5t7 38.5q18 82 42 160t58 154q31 72 73.5 141t103.5 121q27 23 60.5 41.5t72.5 21.5q18 1 36 -3t33 -12.5 t26 -23t14 -35.5q1 -11 -1 -22.5t-15 -12.5q-11 0 -14.5 8t-9.5 15q-12 16 -27.5 15.5t-31.5 -10t-29.5 -24t-20.5 -23.5q-48 -61 -74.5 -137t-46.5 -150q-23 -82 -41 -162.5t-33 -162.5q-15 -79 -28 -158t-20 -160q-3 -41 -3.5 -82t3.5 -82q1 -14 4.5 -31.5t10 -34.5 t16.5 -30t26 -16q23 -4 39.5 4.5t33.5 21.5q30 27 56 56t53 59l54 62l54 62q15 14 25 1.5t2 -27.5l-37 -71q-20 -35 -40.5 -69.5t-42.5 -68.5q-19 -27 -38 -53.5t-44 -49.5q-26 -23 -57.5 -35.5t-64 -13.5t-64 11t-57.5 35q-29 26 -48 59.5t-30.5 70t-17 75t-8.5 75.5 q-7 75 -2 150t16 149q-38 -86 -81 -169.5t-95 -161.5q-38 -57 -87.5 -115.5t-108.5 -102.5t-127.5 -63.5t-146.5 -0.5q-60 15 -92 50.5t-43 82.5t-6 102t18.5 110t32 104.5t34.5 88.5q33 78 70 152t75 148q37 71 77 143.5t59 150.5q8 34 7 69.5t-27 62.5q-23 25 -56 36.5 t-66 16.5q-40 5 -72.5 -7t-57.5 -36.5t-43 -57.5t-27 -67q-11 -37 -12 -75.5t10 -75.5q4 -15 13 -28t16.5 -26t12.5 -26.5t2 -30.5q-4 -30 -28.5 -47.5t-53.5 -13.5q-31 5 -49.5 31t-29.5 53q-30 71 -22.5 147.5zM569 1713q8 35 39 53t66 9q10 -5 20 -7l406 -229 q10 -5 13.5 -15t-2.5 -19q-4 -8 -12 -11.5t-16 -1.5l-452 118q-35 11 -53 40t-9 63z" />
<glyph unicode="&#xda;" horiz-adv-x="1373" d="M-37.5 1000.5q7.5 76.5 43.5 142t97 111.5t139 57q51 7 105 -1.5t99 -31.5q57 -31 84 -86.5t30 -118.5t-7 -125t-28 -122.5t-43.5 -119.5t-52.5 -113q-23 -48 -46.5 -94t-47.5 -92q-27 -52 -54.5 -104.5t-47.5 -109.5q-4 -14 -10 -32t-8 -36.5t2 -34.5t18 -27 q19 -15 47 -21.5t53 -3.5q37 3 71.5 18.5t66 39t59.5 50.5t52 55q53 60 99 125.5t86 134.5q20 34 38.5 68.5t37.5 69.5q10 19 18.5 36.5t17.5 36.5q10 18 13 37.5t7 38.5q18 82 42 160t58 154q31 72 73.5 141t103.5 121q27 23 60.5 41.5t72.5 21.5q18 1 36 -3t33 -12.5 t26 -23t14 -35.5q1 -11 -1 -22.5t-15 -12.5q-11 0 -14.5 8t-9.5 15q-12 16 -27.5 15.5t-31.5 -10t-29.5 -24t-20.5 -23.5q-48 -61 -74.5 -137t-46.5 -150q-23 -82 -41 -162.5t-33 -162.5q-15 -79 -28 -158t-20 -160q-3 -41 -3.5 -82t3.5 -82q1 -14 4.5 -31.5t10 -34.5 t16.5 -30t26 -16q23 -4 39.5 4.5t33.5 21.5q30 27 56 56t53 59l54 62l54 62q15 14 25 1.5t2 -27.5l-37 -71q-20 -35 -40.5 -69.5t-42.5 -68.5q-19 -27 -38 -53.5t-44 -49.5q-26 -23 -57.5 -35.5t-64 -13.5t-64 11t-57.5 35q-29 26 -48 59.5t-30.5 70t-17 75t-8.5 75.5 q-7 75 -2 150t16 149q-38 -86 -81 -169.5t-95 -161.5q-38 -57 -87.5 -115.5t-108.5 -102.5t-127.5 -63.5t-146.5 -0.5q-60 15 -92 50.5t-43 82.5t-6 102t18.5 110t32 104.5t34.5 88.5q33 78 70 152t75 148q37 71 77 143.5t59 150.5q8 34 7 69.5t-27 62.5q-23 25 -56 36.5 t-66 16.5q-40 5 -72.5 -7t-57.5 -36.5t-43 -57.5t-27 -67q-11 -37 -12 -75.5t10 -75.5q4 -15 13 -28t16.5 -26t12.5 -26.5t2 -30.5q-4 -30 -28.5 -47.5t-53.5 -13.5q-31 5 -49.5 31t-29.5 53q-30 71 -22.5 147.5zM670.5 1517q2.5 8 9.5 14l381 270q31 20 65.5 14.5 t53.5 -33.5q22 -29 16.5 -64t-37.5 -56q-10 -5 -18 -11l-436 -164q-11 -3 -21 0.5t-12 13.5q-4 8 -1.5 16z" />
<glyph unicode="&#xdb;" horiz-adv-x="1373" d="M-37.5 1000.5q7.5 76.5 43.5 142t97 111.5t139 57q51 7 105 -1.5t99 -31.5q57 -31 84 -86.5t30 -118.5t-7 -125t-28 -122.5t-43.5 -119.5t-52.5 -113q-23 -48 -46.5 -94t-47.5 -92q-27 -52 -54.5 -104.5t-47.5 -109.5q-4 -14 -10 -32t-8 -36.5t2 -34.5t18 -27 q19 -15 47 -21.5t53 -3.5q37 3 71.5 18.5t66 39t59.5 50.5t52 55q53 60 99 125.5t86 134.5q20 34 38.5 68.5t37.5 69.5q10 19 18.5 36.5t17.5 36.5q10 18 13 37.5t7 38.5q18 82 42 160t58 154q31 72 73.5 141t103.5 121q27 23 60.5 41.5t72.5 21.5q18 1 36 -3t33 -12.5 t26 -23t14 -35.5q1 -11 -1 -22.5t-15 -12.5q-11 0 -14.5 8t-9.5 15q-12 16 -27.5 15.5t-31.5 -10t-29.5 -24t-20.5 -23.5q-48 -61 -74.5 -137t-46.5 -150q-23 -82 -41 -162.5t-33 -162.5q-15 -79 -28 -158t-20 -160q-3 -41 -3.5 -82t3.5 -82q1 -14 4.5 -31.5t10 -34.5 t16.5 -30t26 -16q23 -4 39.5 4.5t33.5 21.5q30 27 56 56t53 59l54 62l54 62q15 14 25 1.5t2 -27.5l-37 -71q-20 -35 -40.5 -69.5t-42.5 -68.5q-19 -27 -38 -53.5t-44 -49.5q-26 -23 -57.5 -35.5t-64 -13.5t-64 11t-57.5 35q-29 26 -48 59.5t-30.5 70t-17 75t-8.5 75.5 q-7 75 -2 150t16 149q-38 -86 -81 -169.5t-95 -161.5q-38 -57 -87.5 -115.5t-108.5 -102.5t-127.5 -63.5t-146.5 -0.5q-60 15 -92 50.5t-43 82.5t-6 102t18.5 110t32 104.5t34.5 88.5q33 78 70 152t75 148q37 71 77 143.5t59 150.5q8 34 7 69.5t-27 62.5q-23 25 -56 36.5 t-66 16.5q-40 5 -72.5 -7t-57.5 -36.5t-43 -57.5t-27 -67q-11 -37 -12 -75.5t10 -75.5q4 -15 13 -28t16.5 -26t12.5 -26.5t2 -30.5q-4 -30 -28.5 -47.5t-53.5 -13.5q-31 5 -49.5 31t-29.5 53q-30 71 -22.5 147.5zM562 1433.5q-8 28.5 6 56.5q7 12 16 20t19 16l100 70 l215 150q12 8 22 7.5t18.5 -7.5t14.5 -17t11 -20l75 -124l58 -95q11 -16 10 -35.5t-16 -34.5q-20 -22 -49.5 -16t-40.5 34l-91 228l-127 -150l-86 -103q-4 -5 -8 -10.5t-10 -9.5q-23 -20 -53 -22.5t-53 15.5q-23 19 -31 47.5z" />
<glyph unicode="&#xdc;" horiz-adv-x="1373" d="M-37.5 1000.5q7.5 76.5 43.5 142t97 111.5t139 57q51 7 105 -1.5t99 -31.5q57 -31 84 -86.5t30 -118.5t-7 -125t-28 -122.5t-43.5 -119.5t-52.5 -113q-23 -48 -46.5 -94t-47.5 -92q-27 -52 -54.5 -104.5t-47.5 -109.5q-4 -14 -10 -32t-8 -36.5t2 -34.5t18 -27 q19 -15 47 -21.5t53 -3.5q37 3 71.5 18.5t66 39t59.5 50.5t52 55q53 60 99 125.5t86 134.5q20 34 38.5 68.5t37.5 69.5q10 19 18.5 36.5t17.5 36.5q10 18 13 37.5t7 38.5q18 82 42 160t58 154q31 72 73.5 141t103.5 121q27 23 60.5 41.5t72.5 21.5q18 1 36 -3t33 -12.5 t26 -23t14 -35.5q1 -11 -1 -22.5t-15 -12.5q-11 0 -14.5 8t-9.5 15q-12 16 -27.5 15.5t-31.5 -10t-29.5 -24t-20.5 -23.5q-48 -61 -74.5 -137t-46.5 -150q-23 -82 -41 -162.5t-33 -162.5q-15 -79 -28 -158t-20 -160q-3 -41 -3.5 -82t3.5 -82q1 -14 4.5 -31.5t10 -34.5 t16.5 -30t26 -16q23 -4 39.5 4.5t33.5 21.5q30 27 56 56t53 59l54 62l54 62q15 14 25 1.5t2 -27.5l-37 -71q-20 -35 -40.5 -69.5t-42.5 -68.5q-19 -27 -38 -53.5t-44 -49.5q-26 -23 -57.5 -35.5t-64 -13.5t-64 11t-57.5 35q-29 26 -48 59.5t-30.5 70t-17 75t-8.5 75.5 q-7 75 -2 150t16 149q-38 -86 -81 -169.5t-95 -161.5q-38 -57 -87.5 -115.5t-108.5 -102.5t-127.5 -63.5t-146.5 -0.5q-60 15 -92 50.5t-43 82.5t-6 102t18.5 110t32 104.5t34.5 88.5q33 78 70 152t75 148q37 71 77 143.5t59 150.5q8 34 7 69.5t-27 62.5q-23 25 -56 36.5 t-66 16.5q-40 5 -72.5 -7t-57.5 -36.5t-43 -57.5t-27 -67q-11 -37 -12 -75.5t10 -75.5q4 -15 13 -28t16.5 -26t12.5 -26.5t2 -30.5q-4 -30 -28.5 -47.5t-53.5 -13.5q-31 5 -49.5 31t-29.5 53q-30 71 -22.5 147.5zM726 1582q0 35 23.5 59.5t57.5 24.5q35 0 59 -24t24 -60 q0 -34 -24 -57t-59 -23q-34 0 -57.5 23t-23.5 57zM945 1582q0 35 23 59.5t57 24.5q35 0 59.5 -24t24.5 -60q0 -34 -24 -57t-60 -23q-34 0 -57 23t-23 57z" />
<glyph unicode="&#xdd;" horiz-adv-x="1137" d="M-70.5 996.5q-3.5 39.5 2.5 78.5q11 70 49 126.5t87 102.5q57 51 125.5 85t146.5 31q76 -3 135.5 -46t85.5 -114q22 -57 20.5 -118.5t-16.5 -121.5q-19 -74 -51 -143t-65 -138q-11 -23 -20.5 -46t-12.5 -46q-5 -40 15.5 -65.5t58.5 -34.5q35 -8 71.5 -2.5t70.5 19.5 t65.5 34t58.5 42q60 49 102 116t73 138q30 66 51 138q11 40 17 81t10 82q3 20 4 40t3 39q3 31 15 53q16 25 43.5 37t55.5 7q29 -5 49.5 -26t27.5 -49q4 -20 0 -39.5t-11 -38.5q-64 -242 -152 -481q-56 -149 -122.5 -294t-165.5 -274q-46 -61 -103.5 -113t-129.5 -83 q-71 -30 -150 -31.5t-153 18.5q-76 20 -131.5 73.5t-74.5 131.5q-10 40 -8.5 80t13.5 80q11 31 31 64t51 49q29 16 59 11t50.5 -25t28.5 -49.5t-6 -59.5q-12 -27 -25 -51t-20 -54q-7 -37 1 -75t34 -67t60 -43t72 -16t75.5 5.5t70.5 22.5q70 33 123 89.5t94 119.5 q90 138 144 293.5t90 313.5q-35 -111 -99 -205.5t-166 -153.5q-52 -30 -110 -46.5t-120 -9.5q-59 7 -107 39t-73 88q-27 66 -19 135.5t30 133.5q26 74 62 141t66 138q12 27 18 58.5t1.5 61t-20 54.5t-45.5 41q-33 18 -69.5 19.5t-72 -9.5t-68 -30.5t-56.5 -45.5 q-23 -25 -37 -58t-18.5 -69t-0.5 -72t16 -66q5 -15 15 -28t18 -26t12 -27.5t0 -32.5q-7 -30 -32 -45.5t-55 -8.5q-15 4 -27.5 13.5t-21 22.5t-15.5 27.5t-11 27.5q-14 37 -17.5 76.5zM654 1517q3 8 10 14l380 270q31 20 65.5 14.5t53.5 -33.5q22 -29 16.5 -64t-36.5 -56 q-10 -5 -18 -11l-437 -164q-11 -3 -20.5 0.5t-12.5 13.5q-4 8 -1 16z" />
<glyph unicode="&#xde;" horiz-adv-x="1137" d="M-82 689q15 72 56.5 135t99.5 111q51 42 110 71t122.5 48t130.5 28.5t132 12.5q15 30 32 58t41 54q52 61 125 89q7 3 29 8t44.5 7t37 -3t5.5 -26q-3 -7 -10 -11.5t-14 -10.5q-8 -5 -15.5 -10.5t-14.5 -12.5q-14 -12 -25.5 -26t-22.5 -29q-15 -20 -25.5 -43.5t-18.5 -46.5 q70 -7 140.5 -26.5t132.5 -54.5t111.5 -85.5t79.5 -117.5q30 -70 31.5 -145t-24.5 -144q-25 -67 -71 -121t-108 -91q-64 -40 -137 -60t-148 -26q-19 -3 -39 -3h-39q-16 1 -35 0.5t-34 5.5q-15 5 -16 20t12 22q12 7 28.5 7t29.5 3q78 14 149 44t127 86q56 53 87.5 126.5 t27.5 151.5t-44 143.5t-105 109.5q-40 27 -85.5 44t-93.5 28q-15 -68 -27.5 -135.5t-27.5 -136.5q-5 -22 -15 -67l-21 -94.5t-22 -94.5t-17 -67q-20 -76 -46 -150t-66 -144q-19 -33 -41.5 -64t-50.5 -57t-61.5 -43t-72.5 -23q-33 -4 -65 1t-61 19t-51.5 37.5t-34.5 54.5 q-14 35 -12.5 74t18.5 75q1 5 6.5 14.5t11.5 18.5t13.5 14t15.5 1q7 -3 8 -10.5t-1.5 -15.5t-5.5 -15.5t-3 -13.5q-4 -23 0.5 -48.5t17 -45t32 -32.5t47.5 -12q45 1 75 30.5t49 66.5q35 70 56.5 145t37.5 151q4 16 12.5 55.5t18 83.5t18 83t11.5 56q11 55 23.5 109t27.5 108 q7 23 14 47.5t17 49.5q-66 3 -130.5 -6t-126.5 -27q-71 -22 -137.5 -61.5t-110.5 -102.5q-44 -61 -50 -131t25 -137t84.5 -112.5t123.5 -68.5q26 -10 42.5 -31.5t11.5 -50.5q-4 -30 -27.5 -49t-55.5 -15q-27 3 -52.5 19t-47.5 31q-31 23 -59 50.5t-51 58.5 q-44 63 -61.5 137.5t-1.5 150.5z" />
<glyph unicode="&#xdf;" horiz-adv-x="1017" d="M-38 16q7 35 14.5 71t13.5 71q7 41 14 81.5t15 79.5q15 86 35.5 169.5t39.5 168.5q19 78 40.5 154t52.5 150q27 61 62 117.5t81 105.5q49 55 112 96.5t138 52.5q55 7 111.5 0t107.5 -29q71 -31 118 -90.5t61 -136.5q15 -75 -5.5 -150.5t-65.5 -137.5q-29 -38 -66.5 -68 t-81.5 -49q35 -23 68 -62q48 -60 68 -135t17 -151q-3 -74 -24.5 -148t-61.5 -138t-96 -114.5t-127 -79.5q-70 -26 -142.5 -26.5t-141.5 25.5q-16 7 -31 14.5t-30 14.5q-5 3 -11.5 7.5t-3.5 11.5q3 8 11 8h15q35 -1 70.5 1t71.5 9q78 16 137.5 59.5t99.5 104.5t62 133.5 t26 145.5q1 34 -1 70.5t-11.5 70.5t-27 64t-46.5 53q-19 15 -40.5 25.5t-44.5 17.5q-8 3 -9 2l-10 4q-11 4 -18.5 13t-3.5 22q4 14 19 16q5 1 13 0h2q1 1 10 4q3 0 5 3q74 25 131.5 70.5t88.5 114.5q16 35 25 72.5t12 74.5q3 35 0 70t-16 66q-23 51 -70.5 76t-100.5 27 q-71 1 -122 -39.5t-81 -100.5q-25 -51 -38.5 -106t-27.5 -109q-19 -78 -38 -154t-37 -154q-18 -83 -35.5 -166.5t-38.5 -164.5q-14 -48 -27.5 -95t-29.5 -94q-11 -29 -23.5 -55.5t-25.5 -53.5q-14 -23 -29.5 -43t-43.5 -24q-19 -3 -36 3.5t-29 18.5t-17.5 29t-1.5 36z" />
<glyph unicode="&#xe0;" horiz-adv-x="765" d="M-25 113q-7 79 7.5 160t42.5 156q27 71 66 139t97 117q61 51 137 61t149 -29q23 -14 48 -32.5t41 -41.5q15 -25 14 -55.5t-19 -53.5q-19 -23 -47.5 -32.5t-57.5 -1.5q-27 8 -42.5 28.5t-39.5 34.5q-15 10 -30.5 9t-30 -7.5t-27.5 -16.5t-24 -20q-27 -27 -48 -57.5 t-39 -63.5q-37 -68 -62 -146.5t-21 -156.5q0 -11 2 -23.5t6 -23.5t11.5 -18.5t19.5 -7.5q14 -3 27.5 7t23.5 17q14 12 25.5 25.5t22.5 28.5q23 33 42 69t37 73l34 81q7 16 10.5 34t8.5 35q7 25 18 45.5t34 32.5q27 15 56 11.5t52 -22.5q22 -19 30 -47t-2 -55 q-10 -29 -20 -57t-18 -56q-4 -15 -14 -52t-14 -74.5t4 -65.5t41 -26h1q10 -3 24 7t21 17q26 23 51 53q23 27 42.5 56t39.5 59q14 20 26.5 41t23.5 43q7 11 18.5 14t19.5 -8q7 -7 5 -16t-5 -17q-20 -66 -47.5 -128.5t-64.5 -120.5q-19 -30 -44 -58t-58 -44q-22 -11 -47 -15 t-49 -1q-41 4 -70 25t-48.5 52t-29.5 67.5t-11 73.5q-12 -30 -30 -62.5t-40.5 -61.5t-51.5 -50t-65 -25q-34 -4 -61 7t-46.5 32t-32 49t-17.5 58q-4 16 -5 31zM115 1085q8 35 38.5 53t66.5 9q10 -5 19 -7l407 -229q10 -5 13 -15t-2 -19q-4 -8 -12.5 -11.5t-16.5 -1.5 l-452 118q-35 11 -53 40t-8 63z" />
<glyph unicode="&#xe1;" horiz-adv-x="765" d="M-25 113q-7 79 7.5 160t42.5 156q27 71 66 139t97 117q61 51 137 61t149 -29q23 -14 48 -32.5t41 -41.5q15 -25 14 -55.5t-19 -53.5q-19 -23 -47.5 -32.5t-57.5 -1.5q-27 8 -42.5 28.5t-39.5 34.5q-15 10 -30.5 9t-30 -7.5t-27.5 -16.5t-24 -20q-27 -27 -48 -57.5 t-39 -63.5q-37 -68 -62 -146.5t-21 -156.5q0 -11 2 -23.5t6 -23.5t11.5 -18.5t19.5 -7.5q14 -3 27.5 7t23.5 17q14 12 25.5 25.5t22.5 28.5q23 33 42 69t37 73l34 81q7 16 10.5 34t8.5 35q7 25 18 45.5t34 32.5q27 15 56 11.5t52 -22.5q22 -19 30 -47t-2 -55 q-10 -29 -20 -57t-18 -56q-4 -15 -14 -52t-14 -74.5t4 -65.5t41 -26h1q10 -3 24 7t21 17q26 23 51 53q23 27 42.5 56t39.5 59q14 20 26.5 41t23.5 43q7 11 18.5 14t19.5 -8q7 -7 5 -16t-5 -17q-20 -66 -47.5 -128.5t-64.5 -120.5q-19 -30 -44 -58t-58 -44q-22 -11 -47 -15 t-49 -1q-41 4 -70 25t-48.5 52t-29.5 67.5t-11 73.5q-12 -30 -30 -62.5t-40.5 -61.5t-51.5 -50t-65 -25q-34 -4 -61 7t-46.5 32t-32 49t-17.5 58q-4 16 -5 31zM116 888.5q3 8.5 10 13.5l381 271q31 20 65 14.5t53 -33.5q22 -29 16.5 -64t-36.5 -56q-10 -5 -18 -11l-437 -164 q-11 -3 -20.5 0.5t-12.5 12.5q-4 8 -1 16.5z" />
<glyph unicode="&#xe2;" horiz-adv-x="765" d="M-25 113q-7 79 7.5 160t42.5 156q27 71 66 139t97 117q61 51 137 61t149 -29q23 -14 48 -32.5t41 -41.5q15 -25 14 -55.5t-19 -53.5q-19 -23 -47.5 -32.5t-57.5 -1.5q-27 8 -42.5 28.5t-39.5 34.5q-15 10 -30.5 9t-30 -7.5t-27.5 -16.5t-24 -20q-27 -27 -48 -57.5 t-39 -63.5q-37 -68 -62 -146.5t-21 -156.5q0 -11 2 -23.5t6 -23.5t11.5 -18.5t19.5 -7.5q14 -3 27.5 7t23.5 17q14 12 25.5 25.5t22.5 28.5q23 33 42 69t37 73l34 81q7 16 10.5 34t8.5 35q7 25 18 45.5t34 32.5q27 15 56 11.5t52 -22.5q22 -19 30 -47t-2 -55 q-10 -29 -20 -57t-18 -56q-4 -15 -14 -52t-14 -74.5t4 -65.5t41 -26h1q10 -3 24 7t21 17q26 23 51 53q23 27 42.5 56t39.5 59q14 20 26.5 41t23.5 43q7 11 18.5 14t19.5 -8q7 -7 5 -16t-5 -17q-20 -66 -47.5 -128.5t-64.5 -120.5q-19 -30 -44 -58t-58 -44q-22 -11 -47 -15 t-49 -1q-41 4 -70 25t-48.5 52t-29.5 67.5t-11 73.5q-12 -30 -30 -62.5t-40.5 -61.5t-51.5 -50t-65 -25q-34 -4 -61 7t-46.5 32t-32 49t-17.5 58q-4 16 -5 31zM104.5 805.5q-7.5 28.5 6.5 56.5q7 12 15.5 20t19.5 16l100 70l214 150q12 8 22.5 7.5t18.5 -7.5t14.5 -17 t11.5 -20l75 -124l57 -95q11 -16 10.5 -35.5t-15.5 -34.5q-20 -22 -49.5 -16t-40.5 34l-92 228l-127 -151l-86 -102q-4 -5 -8 -10.5t-9 -9.5q-23 -20 -53.5 -22.5t-53.5 15.5q-23 19 -30.5 47.5z" />
<glyph unicode="&#xe3;" horiz-adv-x="765" d="M-25 113q-7 79 7.5 160t42.5 156q27 71 66 139t97 117q61 51 137 61t149 -29q23 -14 48 -32.5t41 -41.5q15 -25 14 -55.5t-19 -53.5q-19 -23 -47.5 -32.5t-57.5 -1.5q-27 8 -42.5 28.5t-39.5 34.5q-15 10 -30.5 9t-30 -7.5t-27.5 -16.5t-24 -20q-27 -27 -48 -57.5 t-39 -63.5q-37 -68 -62 -146.5t-21 -156.5q0 -11 2 -23.5t6 -23.5t11.5 -18.5t19.5 -7.5q14 -3 27.5 7t23.5 17q14 12 25.5 25.5t22.5 28.5q23 33 42 69t37 73l34 81q7 16 10.5 34t8.5 35q7 25 18 45.5t34 32.5q27 15 56 11.5t52 -22.5q22 -19 30 -47t-2 -55 q-10 -29 -20 -57t-18 -56q-4 -15 -14 -52t-14 -74.5t4 -65.5t41 -26h1q10 -3 24 7t21 17q26 23 51 53q23 27 42.5 56t39.5 59q14 20 26.5 41t23.5 43q7 11 18.5 14t19.5 -8q7 -7 5 -16t-5 -17q-20 -66 -47.5 -128.5t-64.5 -120.5q-19 -30 -44 -58t-58 -44q-22 -11 -47 -15 t-49 -1q-41 4 -70 25t-48.5 52t-29.5 67.5t-11 73.5q-12 -30 -30 -62.5t-40.5 -61.5t-51.5 -50t-65 -25q-34 -4 -61 7t-46.5 32t-32 49t-17.5 58q-4 16 -5 31zM86 926q14 29 31 56.5t39.5 51t49 41t58.5 25.5q63 15 114.5 -12t91.5 -72q11 -11 21 -21.5t22 -18.5 q12 -10 26.5 -5.5t27.5 14t24.5 21t20.5 19.5q10 8 18.5 15t20.5 4q18 -1 28 -14t8 -29q-3 -30 -16 -59.5t-31 -52.5q-35 -45 -86.5 -59t-104.5 6q-38 14 -65.5 39t-54.5 52q-11 10 -22 16t-26 2q-25 -10 -46 -25.5t-41 -30.5q-15 -11 -33 -24t-39 -9q-23 4 -35 26t-1 44z " />
<glyph unicode="&#xe4;" horiz-adv-x="765" d="M-25 113q-7 79 7.5 160t42.5 156q27 71 66 139t97 117q61 51 137 61t149 -29q23 -14 48 -32.5t41 -41.5q15 -25 14 -55.5t-19 -53.5q-19 -23 -47.5 -32.5t-57.5 -1.5q-27 8 -42.5 28.5t-39.5 34.5q-15 10 -30.5 9t-30 -7.5t-27.5 -16.5t-24 -20q-27 -27 -48 -57.5 t-39 -63.5q-37 -68 -62 -146.5t-21 -156.5q0 -11 2 -23.5t6 -23.5t11.5 -18.5t19.5 -7.5q14 -3 27.5 7t23.5 17q14 12 25.5 25.5t22.5 28.5q23 33 42 69t37 73l34 81q7 16 10.5 34t8.5 35q7 25 18 45.5t34 32.5q27 15 56 11.5t52 -22.5q22 -19 30 -47t-2 -55 q-10 -29 -20 -57t-18 -56q-4 -15 -14 -52t-14 -74.5t4 -65.5t41 -26h1q10 -3 24 7t21 17q26 23 51 53q23 27 42.5 56t39.5 59q14 20 26.5 41t23.5 43q7 11 18.5 14t19.5 -8q7 -7 5 -16t-5 -17q-20 -66 -47.5 -128.5t-64.5 -120.5q-19 -30 -44 -58t-58 -44q-22 -11 -47 -15 t-49 -1q-41 4 -70 25t-48.5 52t-29.5 67.5t-11 73.5q-12 -30 -30 -62.5t-40.5 -61.5t-51.5 -50t-65 -25q-34 -4 -61 7t-46.5 32t-32 49t-17.5 58q-4 16 -5 31zM191 954q0 35 23.5 59.5t57.5 24.5q35 0 59 -24t24 -60q0 -34 -24 -57t-59 -23q-34 0 -57.5 23t-23.5 57z M410 954q0 35 23 59.5t57 24.5q35 0 59 -24t24 -60q0 -34 -23.5 -57t-59.5 -23q-34 0 -57 23t-23 57z" />
<glyph unicode="&#xe5;" horiz-adv-x="765" d="M-25 113q-7 79 7.5 160t42.5 156q27 71 66 139t97 117q61 51 137 61t149 -29q23 -14 48 -32.5t41 -41.5q15 -25 14 -55.5t-19 -53.5q-19 -23 -47.5 -32.5t-57.5 -1.5q-27 8 -42.5 28.5t-39.5 34.5q-15 10 -30.5 9t-30 -7.5t-27.5 -16.5t-24 -20q-27 -27 -48 -57.5 t-39 -63.5q-37 -68 -62 -146.5t-21 -156.5q0 -11 2 -23.5t6 -23.5t11.5 -18.5t19.5 -7.5q14 -3 27.5 7t23.5 17q14 12 25.5 25.5t22.5 28.5q23 33 42 69t37 73l34 81q7 16 10.5 34t8.5 35q7 25 18 45.5t34 32.5q27 15 56 11.5t52 -22.5q22 -19 30 -47t-2 -55 q-10 -29 -20 -57t-18 -56q-4 -15 -14 -52t-14 -74.5t4 -65.5t41 -26h1q10 -3 24 7t21 17q26 23 51 53q23 27 42.5 56t39.5 59q14 20 26.5 41t23.5 43q7 11 18.5 14t19.5 -8q7 -7 5 -16t-5 -17q-20 -66 -47.5 -128.5t-64.5 -120.5q-19 -30 -44 -58t-58 -44q-22 -11 -47 -15 t-49 -1q-41 4 -70 25t-48.5 52t-29.5 67.5t-11 73.5q-12 -30 -30 -62.5t-40.5 -61.5t-51.5 -50t-65 -25q-34 -4 -61 7t-46.5 32t-32 49t-17.5 58q-4 16 -5 31zM196 947q-5 50 12 95t54 79t89 45q40 8 78.5 0.5t70.5 -30.5q44 -30 65.5 -76.5t20.5 -98.5q-4 -33 -18 -64 t-35.5 -56t-50.5 -42t-63 -22q-53 -8 -104 13t-83 65q-31 42 -36 92zM351 953q0 -19 8 -33q7 -11 18.5 -22t26.5 -11q20 -4 40.5 3.5t32.5 25.5q8 12 9 26.5t-3 29t-13.5 26t-24.5 16.5q-11 5 -21 4t-20 -1q-23 -5 -38 -23.5t-15 -40.5z" />
<glyph unicode="&#xe6;" horiz-adv-x="1131" d="M-25 113q-7 79 7.5 160t42.5 156q27 71 66 139t97 117q61 51 137 61t149 -29q22 -12 45 -29.5t38 -37.5q11 7 21 13.5t21 13.5q30 19 65.5 32t72 16t71 -6.5t64.5 -35.5t46.5 -59.5t22 -70.5t0 -75t-18.5 -72q-26 -74 -82 -129q-25 -23 -53.5 -37.5t-61.5 -21.5 q-37 -10 -74.5 -9t-72.5 12t-63.5 33t-48.5 56q0 -25 2 -51t8 -51.5t17 -49t29 -41.5t41 -28t49 -14t52.5 -3.5t49.5 3.5q57 7 107.5 29.5t98.5 52.5q45 29 87 62.5t81 68.5q7 7 13 14t13 13q11 11 24.5 3t8.5 -23q-3 -7 -7.5 -13t-9.5 -13q-11 -15 -23 -30.5t-24 -30.5 q-51 -61 -107.5 -116t-122.5 -100q-64 -44 -137 -74.5t-153 -21.5q-78 8 -138.5 56.5t-87.5 122.5q-8 20 -12 44q-16 -30 -37.5 -61t-45.5 -57t-50.5 -43.5t-54.5 -21.5q-34 -4 -61 7t-46.5 32t-32 49t-17.5 58q-4 16 -5 31zM89 104q0 -11 2 -23.5t6 -23.5t11.5 -18.5 t19.5 -7.5q14 -3 27.5 7t23.5 17q14 12 25.5 25.5t22.5 28.5q23 33 42 69t37 73l34 81q0 1 3 7q15 45 34 83q11 23 24 45.5t28 44.5q-15 11 -28 25.5t-30 25.5q-15 10 -30.5 9t-30 -7.5t-27.5 -16.5t-24 -20q-27 -27 -48 -57.5t-39 -63.5q-37 -68 -62 -146.5t-21 -156.5z M468 359q23 -16 49 -27t54 -13q34 -3 65.5 9.5t58.5 30.5q16 11 28 26.5t20 35.5q27 57 20 124q-1 11 -3 22.5t-10 19.5q-10 10 -23 14t-27 7q-31 5 -59.5 -3t-53 -26t-44.5 -42.5t-34 -50.5q-30 -59 -41 -127z" />
<glyph unicode="&#xe7;" horiz-adv-x="779" d="M-16 177q-3 79 23 155t65 143q40 66 94 121t123 91q52 26 110 32t112 -28q34 -22 55.5 -54t32 -69.5t10 -77t-10.5 -76.5q-11 -35 -31 -68t-48 -58q-19 -18 -43.5 -31t-52.5 -11q-33 1 -55.5 20t-31 46t-2 55.5t32.5 48.5q19 15 33 31t21 40q4 15 6 33.5t-1.5 35 t-14 29.5t-27.5 18q-33 10 -62.5 4t-55.5 -22.5t-47 -40.5t-36 -50q-40 -67 -49.5 -148t13.5 -156q11 -31 29.5 -59.5t50.5 -41.5q19 -8 38.5 -11t38.5 -4q81 -3 154 24.5t139 69.5q34 22 65.5 46t62.5 50l44 36q4 4 8.5 9t11.5 8q15 5 20.5 -8.5t-1.5 -24.5t-13 -20.5 t-13 -19.5q-45 -66 -99 -124q-51 -55 -109.5 -102t-125.5 -81q-44 -23 -93 -35.5t-98 -10.5l-19 -60q57 -3 109 -27.5t84 -73.5q27 -44 31 -95t-14 -99q-22 -60 -71 -95t-113 -34q-35 1 -71 12.5t-69 30t-61.5 41.5t-50.5 50q-10 11 -11 23.5t4 21t15.5 14t25.5 3.5 q8 -1 16.5 -4t16.5 -6q15 -4 29.5 -9t29.5 -7q27 -7 56 -13t56 -4q33 1 44 33q3 7 4 14t2 13q5 30 -11 53t-36 40q-11 10 -22 19t-23 14t-22.5 12t-16 17.5t-6.5 24.5t5 36q4 16 9.5 32t9.5 32q-70 19 -120 69.5t-70 120.5q-11 41 -13 87z" />
<glyph unicode="&#xe8;" horiz-adv-x="782" d="M-22 161.5q-3 44.5 3.5 89t20.5 88t33 83.5q38 78 93 145t130 110q30 19 65.5 32t71.5 16t71 -6.5t65 -35.5t46.5 -59.5t22 -70.5t0 -75t-19.5 -72q-26 -74 -82 -129q-25 -23 -53.5 -37.5t-60.5 -21.5q-37 -10 -74.5 -9t-72.5 12t-63.5 33t-49.5 56q0 -25 2 -51 t8.5 -51.5t17 -49t28.5 -41.5t41 -28t49 -14t53 -3.5t50 3.5q57 7 107.5 29.5t98.5 52.5q45 29 86.5 62.5t81.5 68.5q7 7 13 14t13 13q11 11 24.5 3t8.5 -23q-3 -7 -8 -13t-9 -13q-11 -15 -23 -30.5t-25 -30.5q-51 -61 -107 -116t-122 -100q-64 -44 -137 -74.5t-154 -21.5 q-78 8 -138 56.5t-87 122.5q-15 42 -18 86.5zM123 1085q8 35 39 53t66 9q10 -5 19 -7l407 -229q10 -5 13 -15t-2 -19q-4 -8 -12.5 -11.5t-16.5 -1.5l-452 118q-35 11 -53 40t-8 63zM127 359q23 -16 49 -27t53 -13q34 -3 65.5 9.5t59.5 30.5q16 11 27.5 26.5t19.5 35.5 q27 57 21 124q-1 11 -3.5 22.5t-10.5 19.5q-10 10 -22.5 14t-26.5 7q-31 5 -60 -3t-53.5 -26t-44 -42.5t-33.5 -50.5q-30 -59 -41 -127z" />
<glyph unicode="&#xe9;" horiz-adv-x="782" d="M-22 161.5q-3 44.5 3.5 89t20.5 88t33 83.5q38 78 93 145t130 110q30 19 65.5 32t71.5 16t71 -6.5t65 -35.5t46.5 -59.5t22 -70.5t0 -75t-19.5 -72q-26 -74 -82 -129q-25 -23 -53.5 -37.5t-60.5 -21.5q-37 -10 -74.5 -9t-72.5 12t-63.5 33t-49.5 56q0 -25 2 -51 t8.5 -51.5t17 -49t28.5 -41.5t41 -28t49 -14t53 -3.5t50 3.5q57 7 107.5 29.5t98.5 52.5q45 29 86.5 62.5t81.5 68.5q7 7 13 14t13 13q11 11 24.5 3t8.5 -23q-3 -7 -8 -13t-9 -13q-11 -15 -23 -30.5t-25 -30.5q-51 -61 -107 -116t-122 -100q-64 -44 -137 -74.5t-154 -21.5 q-78 8 -138 56.5t-87 122.5q-15 42 -18 86.5zM124.5 888.5q2.5 8.5 9.5 13.5l381 271q31 20 65 14.5t54 -33.5q22 -29 16 -64t-37 -56q-10 -5 -18 -11l-437 -164q-11 -3 -20.5 0.5t-11.5 12.5q-4 8 -1.5 16.5zM127 359q23 -16 49 -27t53 -13q34 -3 65.5 9.5t59.5 30.5 q16 11 27.5 26.5t19.5 35.5q27 57 21 124q-1 11 -3.5 22.5t-10.5 19.5q-10 10 -22.5 14t-26.5 7q-31 5 -60 -3t-53.5 -26t-44 -42.5t-33.5 -50.5q-30 -59 -41 -127z" />
<glyph unicode="&#xea;" horiz-adv-x="782" d="M-22 161.5q-3 44.5 3.5 89t20.5 88t33 83.5q38 78 93 145t130 110q30 19 65.5 32t71.5 16t71 -6.5t65 -35.5t46.5 -59.5t22 -70.5t0 -75t-19.5 -72q-26 -74 -82 -129q-25 -23 -53.5 -37.5t-60.5 -21.5q-37 -10 -74.5 -9t-72.5 12t-63.5 33t-49.5 56q0 -25 2 -51 t8.5 -51.5t17 -49t28.5 -41.5t41 -28t49 -14t53 -3.5t50 3.5q57 7 107.5 29.5t98.5 52.5q45 29 86.5 62.5t81.5 68.5q7 7 13 14t13 13q11 11 24.5 3t8.5 -23q-3 -7 -8 -13t-9 -13q-11 -15 -23 -30.5t-25 -30.5q-51 -61 -107 -116t-122 -100q-64 -44 -137 -74.5t-154 -21.5 q-78 8 -138 56.5t-87 122.5q-15 42 -18 86.5zM112.5 805.5q-7.5 28.5 6.5 56.5q7 12 15.5 20t19.5 16l100 70l214 150q12 8 22.5 7.5t18.5 -7.5t14.5 -17t11.5 -20l75 -124l58 -95q11 -16 10 -35.5t-16 -34.5q-20 -22 -49.5 -16t-40.5 34l-91 228l-127 -151l-86 -102 q-4 -5 -8.5 -10.5t-9.5 -9.5q-23 -20 -53 -22.5t-54 15.5q-23 19 -30.5 47.5zM127 359q23 -16 49 -27t53 -13q34 -3 65.5 9.5t59.5 30.5q16 11 27.5 26.5t19.5 35.5q27 57 21 124q-1 11 -3.5 22.5t-10.5 19.5q-10 10 -22.5 14t-26.5 7q-31 5 -60 -3t-53.5 -26t-44 -42.5 t-33.5 -50.5q-30 -59 -41 -127z" />
<glyph unicode="&#xeb;" horiz-adv-x="782" d="M-22 161.5q-3 44.5 3.5 89t20.5 88t33 83.5q38 78 93 145t130 110q30 19 65.5 32t71.5 16t71 -6.5t65 -35.5t46.5 -59.5t22 -70.5t0 -75t-19.5 -72q-26 -74 -82 -129q-25 -23 -53.5 -37.5t-60.5 -21.5q-37 -10 -74.5 -9t-72.5 12t-63.5 33t-49.5 56q0 -25 2 -51 t8.5 -51.5t17 -49t28.5 -41.5t41 -28t49 -14t53 -3.5t50 3.5q57 7 107.5 29.5t98.5 52.5q45 29 86.5 62.5t81.5 68.5q7 7 13 14t13 13q11 11 24.5 3t8.5 -23q-3 -7 -8 -13t-9 -13q-11 -15 -23 -30.5t-25 -30.5q-51 -61 -107 -116t-122 -100q-64 -44 -137 -74.5t-154 -21.5 q-78 8 -138 56.5t-87 122.5q-15 42 -18 86.5zM127 359q23 -16 49 -27t53 -13q34 -3 65.5 9.5t59.5 30.5q16 11 27.5 26.5t19.5 35.5q27 57 21 124q-1 11 -3.5 22.5t-10.5 19.5q-10 10 -22.5 14t-26.5 7q-31 5 -60 -3t-53.5 -26t-44 -42.5t-33.5 -50.5q-30 -59 -41 -127z M199 954q0 35 23.5 59.5t57.5 24.5q35 0 59 -24t24 -60q0 -34 -24 -57t-59 -23q-34 0 -57.5 23t-23.5 57zM418 954q0 35 23 59.5t57 24.5q35 0 59.5 -24t24.5 -60q0 -34 -24 -57t-60 -23q-34 0 -57 23t-23 57z" />
<glyph unicode="&#xec;" horiz-adv-x="421" d="M-57 1085q8 35 38.5 53t66.5 9q10 -5 19 -7l407 -229q10 -5 13 -15t-2 -19q-4 -8 -12.5 -11.5t-16.5 -1.5l-452 118q-35 11 -53 40t-8 63zM-18.5 214q10.5 74 26.5 145q16 74 37.5 145t45.5 140q8 23 17 46t30 38q23 19 51.5 21t54.5 -13q25 -15 38 -41t9 -55 q-3 -19 -11 -36t-15 -33q-33 -76 -62.5 -153t-52.5 -154q-11 -38 -20.5 -77.5t-12.5 -78.5q0 -5 -1 -17.5t0 -25t4.5 -21.5t13.5 -7q12 -1 26.5 8.5t25.5 15.5q15 11 28.5 23t27.5 25q31 29 57.5 60.5t54.5 62.5l45 57q7 8 12 16.5t12 15.5q11 11 25.5 2.5t10.5 -23.5 q-3 -11 -8.5 -20.5t-9.5 -17.5q-34 -68 -76 -134q-20 -34 -43.5 -66t-51.5 -61q-23 -26 -51.5 -48.5t-64.5 -28.5q-27 -7 -57 -2.5t-53 22.5q-29 22 -43 54.5t-19 67.5q-11 74 -0.5 148z" />
<glyph unicode="&#xed;" horiz-adv-x="421" d="M-18.5 214q10.5 74 26.5 145q16 74 37.5 145t45.5 140q8 23 17 46t30 38q23 19 51.5 21t54.5 -13q25 -15 38 -41t9 -55q-3 -19 -11 -36t-15 -33q-33 -76 -62.5 -153t-52.5 -154q-11 -38 -20.5 -77.5t-12.5 -78.5q0 -5 -1 -17.5t0 -25t4.5 -21.5t13.5 -7q12 -1 26.5 8.5 t25.5 15.5q15 11 28.5 23t27.5 25q31 29 57.5 60.5t54.5 62.5l45 57q7 8 12 16.5t12 15.5q11 11 25.5 2.5t10.5 -23.5q-3 -11 -8.5 -20.5t-9.5 -17.5q-34 -68 -76 -134q-20 -34 -43.5 -66t-51.5 -61q-23 -26 -51.5 -48.5t-64.5 -28.5q-27 -7 -57 -2.5t-53 22.5 q-29 22 -43 54.5t-19 67.5q-11 74 -0.5 148zM136.5 951.5q2.5 8.5 9.5 13.5l381 271q31 20 65.5 14.5t53.5 -33.5q22 -29 16.5 -64t-37.5 -57q-10 -5 -17 -11l-437 -163q-11 -3 -20.5 0.5t-12.5 12.5q-4 8 -1.5 16.5z" />
<glyph unicode="&#xee;" horiz-adv-x="421" d="M-18.5 214q10.5 74 26.5 145q16 74 37.5 145t45.5 140q8 23 17 46t30 38q23 19 51.5 21t54.5 -13q25 -15 38 -41t9 -55q-3 -19 -11 -36t-15 -33q-33 -76 -62.5 -153t-52.5 -154q-11 -38 -20.5 -77.5t-12.5 -78.5q0 -5 -1 -17.5t0 -25t4.5 -21.5t13.5 -7q12 -1 26.5 8.5 t25.5 15.5q15 11 28.5 23t27.5 25q31 29 57.5 60.5t54.5 62.5l45 57q7 8 12 16.5t12 15.5q11 11 25.5 2.5t10.5 -23.5q-3 -11 -8.5 -20.5t-9.5 -17.5q-34 -68 -76 -134q-20 -34 -43.5 -66t-51.5 -61q-23 -26 -51.5 -48.5t-64.5 -28.5q-27 -7 -57 -2.5t-53 22.5 q-29 22 -43 54.5t-19 67.5q-11 74 -0.5 148zM40 914q-2 28 17 50q3 3 6 5t5 4l318 234h2q10 7 20.5 5.5t17.5 -11.5q0 -1 1 -2l149 -253q10 -16 5 -34.5t-21 -28.5t-34 -5t-29 22q-1 1 -1 2.5t-2 2.5l-98 235l-235 -268q-19 -22 -47 -23t-50 18t-24 47z" />
<glyph unicode="&#xef;" horiz-adv-x="421" d="M-18.5 214q10.5 74 26.5 145q16 74 37.5 145t45.5 140q8 23 17 46t30 38q23 19 51.5 21t54.5 -13q25 -15 38 -41t9 -55q-3 -19 -11 -36t-15 -33q-33 -76 -62.5 -153t-52.5 -154q-11 -38 -20.5 -77.5t-12.5 -78.5q0 -5 -1 -17.5t0 -25t4.5 -21.5t13.5 -7q12 -1 26.5 8.5 t25.5 15.5q15 11 28.5 23t27.5 25q31 29 57.5 60.5t54.5 62.5l45 57q7 8 12 16.5t12 15.5q11 11 25.5 2.5t10.5 -23.5q-3 -11 -8.5 -20.5t-9.5 -17.5q-34 -68 -76 -134q-20 -34 -43.5 -66t-51.5 -61q-23 -26 -51.5 -48.5t-64.5 -28.5q-27 -7 -57 -2.5t-53 22.5 q-29 22 -43 54.5t-19 67.5q-11 74 -0.5 148zM160 1058q0 35 23 59t57 24q35 0 59.5 -23.5t24.5 -59.5q0 -34 -24 -57t-60 -23q-34 0 -57 23t-23 57zM378 1058q0 35 23.5 59t57.5 24q35 0 59 -23.5t24 -59.5q0 -34 -24 -57t-59 -23q-34 0 -57.5 23t-23.5 57z" />
<glyph unicode="&#xf0;" horiz-adv-x="983" d="M3 253q-7 70 9.5 128.5t54.5 115.5q42 66 101.5 118.5t137.5 75.5q59 18 117 14.5t114 -22t107.5 -48.5t98.5 -67q25 101 25.5 204t-23.5 206l-86 -45q-19 -11 -38 -21t-38 -19q-15 -8 -27.5 -4t-19 13t-5.5 22t14 24q42 35 83.5 71t82.5 72q-22 57 -52 110.5t-64 103.5 q-8 12 -8.5 25t4 24t14 19.5t24.5 8.5q12 1 25.5 -5t24 -15.5t21.5 -20t20 -18.5q31 -31 58.5 -64t50.5 -68l128 110l45 38q23 20 52 24t54 -7t43 -33.5t20 -52.5q3 -31 -12 -58t-42 -42l-217 -113q27 -66 42 -134t21 -138q11 -157 -31.5 -312t-135.5 -283 q-37 -51 -82.5 -96t-99.5 -79.5t-114 -54.5t-125 -20q-60 0 -118.5 13.5t-109.5 45.5q-66 42 -101.5 109.5t-42.5 144.5zM92 323.5q-1 -27.5 2 -53.5q5 -37 19 -71t41 -61t63 -40t72 -16q19 -1 37 -0.5t36 3.5q48 4 91.5 30.5t77.5 57.5q44 42 78.5 93t62.5 107 q-42 46 -88.5 86.5t-104.5 67.5q-72 33 -148 24t-138 -57q-30 -23 -54 -52.5t-38 -64.5q-8 -26 -9 -53.5z" />
<glyph unicode="&#xf1;" horiz-adv-x="828" d="M-79 26q3 10 5 18.5t4 18.5l55 198l86 312q7 23 13 46.5t13 46.5l4 14q7 29 34 42t55 0q16 -8 24.5 -19.5t10.5 -25t0.5 -28.5t-4.5 -29l-24 -141l-43 -235q31 82 67.5 159.5t80.5 152.5q19 33 41 64t48.5 58t59 45t72.5 25q27 4 55 1.5t51 -17.5q31 -19 49 -50t21 -66 q4 -37 -2 -74.5t-17 -74.5t-26.5 -72.5t-29.5 -68.5q-16 -37 -32 -73t-31 -73q-15 -35 -28.5 -71.5t-16.5 -73.5q35 7 66 31t57 47q27 25 54 52.5t51 54.5q35 41 68 80q7 8 18 7.5t12 -13.5q1 -8 -5.5 -18.5t-10.5 -17.5q-35 -70 -78 -135.5t-98 -121.5q-22 -22 -52.5 -43.5 t-64 -32t-65.5 -4t-57 40.5q-22 29 -24.5 65.5t1.5 70.5q4 40 12 78t19 78q19 74 41 147.5t37 150.5q-57 -18 -100 -57t-79 -85q-37 -49 -68.5 -102t-58.5 -109q-30 -60 -53 -116q-8 -22 -16.5 -43t-12.5 -44q-3 -19 -10.5 -36t-22.5 -31q-34 -30 -80 -23q-41 8 -63.5 44 t-11.5 76zM199 926q14 29 31 56.5t39.5 51t49 41t58.5 25.5q63 15 114.5 -12t91.5 -72q11 -11 21 -21.5t23 -18.5q12 -10 26.5 -5.5t27.5 14t24.5 21l19.5 19.5q10 8 18.5 15t21.5 4q18 -1 28 -14t7 -29q-3 -30 -16 -59.5t-30 -52.5q-35 -45 -86.5 -59t-104.5 6 q-38 14 -65.5 39t-55.5 52q-11 10 -21.5 16t-25.5 2q-25 -10 -46 -25.5t-42 -30.5q-15 -11 -32.5 -24t-39.5 -9q-23 4 -35 26t-1 44zM500 37q0 -2 1 -2q3 0 3.5 -0.5t3.5 0.5q-3 0 -4.5 1t-3.5 1z" />
<glyph unicode="&#xf2;" horiz-adv-x="750" d="M-3.5 245q11.5 80 36.5 154q26 75 65 145t96 126q38 35 89.5 61.5t104.5 19.5q12 -3 23.5 -7t22.5 -12q4 -4 9 -8t8 -10q4 -5 4.5 -6.5t7.5 -0.5l14 3q27 4 55.5 0t53.5 -21q26 -18 39.5 -43.5t19.5 -55.5t6 -61t-2 -58q-7 -63 -25 -123t-44 -117q53 7 97.5 36t81.5 65 q7 7 15 16.5t18 11.5q11 1 17.5 -5.5t4.5 -15.5q-1 -11 -11.5 -23.5t-17.5 -21.5q-8 -11 -16.5 -20.5t-17.5 -19.5q-33 -37 -74.5 -67t-92.5 -41q-12 -3 -25 -4t-25 0q-7 -11 -13 -20.5t-13 -20.5q-15 -22 -31 -42.5t-35 -39.5q-46 -48 -105.5 -78.5t-128.5 -29.5 q-79 3 -133.5 51.5t-71.5 124.5q-18 78 -6.5 158zM106 1085q8 35 39 53t67 9q10 -5 19 -7l407 -229q10 -5 13 -15t-2 -19q-4 -8 -12.5 -11.5t-16.5 -1.5l-452 118q-35 11 -53 40t-9 63zM131 131q1 -27 11 -52q8 -23 25 -36t38.5 -17t44.5 -2t44 7q52 15 93.5 48.5t72.5 76.5 q-49 18 -88 53t-65 80.5t-36 96.5t-2 103q-37 -44 -63.5 -94t-45.5 -103q-8 -25 -15.5 -51.5t-11 -54.5t-2.5 -55zM430 415q3 -46 22.5 -95.5t62.5 -75.5q23 48 38 100t20 104q1 15 2 43.5t-3.5 56.5t-17.5 47.5t-39 16.5q-29 -3 -45.5 -26t-23.5 -48q-19 -60 -16 -123z" />
<glyph unicode="&#xf3;" horiz-adv-x="750" d="M-3.5 245q11.5 80 36.5 154q26 75 65 145t96 126q38 35 89.5 61.5t104.5 19.5q12 -3 23.5 -7t22.5 -12q4 -4 9 -8t8 -10q4 -5 4.5 -6.5t7.5 -0.5l14 3q27 4 55.5 0t53.5 -21q26 -18 39.5 -43.5t19.5 -55.5t6 -61t-2 -58q-7 -63 -25 -123t-44 -117q53 7 97.5 36t81.5 65 q7 7 15 16.5t18 11.5q11 1 17.5 -5.5t4.5 -15.5q-1 -11 -11.5 -23.5t-17.5 -21.5q-8 -11 -16.5 -20.5t-17.5 -19.5q-33 -37 -74.5 -67t-92.5 -41q-12 -3 -25 -4t-25 0q-7 -11 -13 -20.5t-13 -20.5q-15 -22 -31 -42.5t-35 -39.5q-46 -48 -105.5 -78.5t-128.5 -29.5 q-79 3 -133.5 51.5t-71.5 124.5q-18 78 -6.5 158zM131 131q1 -27 11 -52q8 -23 25 -36t38.5 -17t44.5 -2t44 7q52 15 93.5 48.5t72.5 76.5q-49 18 -88 53t-65 80.5t-36 96.5t-2 103q-37 -44 -63.5 -94t-45.5 -103q-8 -25 -15.5 -51.5t-11 -54.5t-2.5 -55zM199.5 888.5 q2.5 8.5 9.5 13.5l381 271q31 20 65 14.5t54 -33.5q22 -29 16.5 -64t-37.5 -56q-10 -5 -18 -11l-437 -164q-11 -3 -20.5 0.5t-11.5 12.5q-4 8 -1.5 16.5zM430 415q3 -46 22.5 -95.5t62.5 -75.5q23 48 38 100t20 104q1 15 2 43.5t-3.5 56.5t-17.5 47.5t-39 16.5 q-29 -3 -45.5 -26t-23.5 -48q-19 -60 -16 -123z" />
<glyph unicode="&#xf4;" horiz-adv-x="750" d="M-3.5 245q11.5 80 36.5 154q26 75 65 145t96 126q38 35 89.5 61.5t104.5 19.5q12 -3 23.5 -7t22.5 -12q4 -4 9 -8t8 -10q4 -5 4.5 -6.5t7.5 -0.5l14 3q27 4 55.5 0t53.5 -21q26 -18 39.5 -43.5t19.5 -55.5t6 -61t-2 -58q-7 -63 -25 -123t-44 -117q53 7 97.5 36t81.5 65 q7 7 15 16.5t18 11.5q11 1 17.5 -5.5t4.5 -15.5q-1 -11 -11.5 -23.5t-17.5 -21.5q-8 -11 -16.5 -20.5t-17.5 -19.5q-33 -37 -74.5 -67t-92.5 -41q-12 -3 -25 -4t-25 0q-7 -11 -13 -20.5t-13 -20.5q-15 -22 -31 -42.5t-35 -39.5q-46 -48 -105.5 -78.5t-128.5 -29.5 q-79 3 -133.5 51.5t-71.5 124.5q-18 78 -6.5 158zM131 131q1 -27 11 -52q8 -23 25 -36t38.5 -17t44.5 -2t44 7q52 15 93.5 48.5t72.5 76.5q-49 18 -88 53t-65 80.5t-36 96.5t-2 103q-37 -44 -63.5 -94t-45.5 -103q-8 -25 -15.5 -51.5t-11 -54.5t-2.5 -55zM196 882 q-8 29 6 56q7 12 16 20.5t20 16.5l99 69l215 151q12 8 22 7t18.5 -7.5t14.5 -17t11 -19.5l76 -124l57 -96q11 -16 10 -35.5t-16 -34.5q-20 -22 -49.5 -15.5t-40.5 33.5l-91 228l-127 -150l-86 -102q-4 -5 -8 -11t-10 -10q-23 -20 -53 -22.5t-53 15.5q-23 19 -31 48zM430 415 q3 -46 22.5 -95.5t62.5 -75.5q23 48 38 100t20 104q1 15 2 43.5t-3.5 56.5t-17.5 47.5t-39 16.5q-29 -3 -45.5 -26t-23.5 -48q-19 -60 -16 -123z" />
<glyph unicode="&#xf5;" horiz-adv-x="750" d="M-3.5 245q11.5 80 36.5 154q26 75 65 145t96 126q38 35 89.5 61.5t104.5 19.5q12 -3 23.5 -7t22.5 -12q4 -4 9 -8t8 -10q4 -5 4.5 -6.5t7.5 -0.5l14 3q27 4 55.5 0t53.5 -21q26 -18 39.5 -43.5t19.5 -55.5t6 -61t-2 -58q-7 -63 -25 -123t-44 -117q53 7 97.5 36t81.5 65 q7 7 15 16.5t18 11.5q11 1 17.5 -5.5t4.5 -15.5q-1 -11 -11.5 -23.5t-17.5 -21.5q-8 -11 -16.5 -20.5t-17.5 -19.5q-33 -37 -74.5 -67t-92.5 -41q-12 -3 -25 -4t-25 0q-7 -11 -13 -20.5t-13 -20.5q-15 -22 -31 -42.5t-35 -39.5q-46 -48 -105.5 -78.5t-128.5 -29.5 q-79 3 -133.5 51.5t-71.5 124.5q-18 78 -6.5 158zM131 131q1 -27 11 -52q8 -23 25 -36t38.5 -17t44.5 -2t44 7q52 15 93.5 48.5t72.5 76.5q-49 18 -88 53t-65 80.5t-36 96.5t-2 103q-37 -44 -63.5 -94t-45.5 -103q-8 -25 -15.5 -51.5t-11 -54.5t-2.5 -55zM202 942 q14 29 31 57t39.5 51t49 41t58.5 26q63 15 114.5 -12.5t91.5 -72.5l21 -21t22 -18q12 -10 26.5 -6t27.5 13.5t25 21.5l20 20q10 8 18.5 15t20.5 4q18 -1 28.5 -14t7.5 -30q-3 -30 -16 -59.5t-31 -52.5q-35 -45 -86.5 -58.5t-104.5 5.5q-38 14 -65.5 39t-54.5 52 q-11 10 -22 16t-26 2q-25 -10 -46 -25.5t-41 -30.5q-15 -11 -33 -24t-39 -9q-23 4 -35 26t-1 44zM430 415q3 -46 22.5 -95.5t62.5 -75.5q23 48 38 100t20 104q1 15 2 43.5t-3.5 56.5t-17.5 47.5t-39 16.5q-29 -3 -45.5 -26t-23.5 -48q-19 -60 -16 -123z" />
<glyph unicode="&#xf6;" horiz-adv-x="750" d="M-3.5 245q11.5 80 36.5 154q26 75 65 145t96 126q38 35 89.5 61.5t104.5 19.5q12 -3 23.5 -7t22.5 -12q4 -4 9 -8t8 -10q4 -5 4.5 -6.5t7.5 -0.5l14 3q27 4 55.5 0t53.5 -21q26 -18 39.5 -43.5t19.5 -55.5t6 -61t-2 -58q-7 -63 -25 -123t-44 -117q53 7 97.5 36t81.5 65 q7 7 15 16.5t18 11.5q11 1 17.5 -5.5t4.5 -15.5q-1 -11 -11.5 -23.5t-17.5 -21.5q-8 -11 -16.5 -20.5t-17.5 -19.5q-33 -37 -74.5 -67t-92.5 -41q-12 -3 -25 -4t-25 0q-7 -11 -13 -20.5t-13 -20.5q-15 -22 -31 -42.5t-35 -39.5q-46 -48 -105.5 -78.5t-128.5 -29.5 q-79 3 -133.5 51.5t-71.5 124.5q-18 78 -6.5 158zM131 131q1 -27 11 -52q8 -23 25 -36t38.5 -17t44.5 -2t44 7q52 15 93.5 48.5t72.5 76.5q-49 18 -88 53t-65 80.5t-36 96.5t-2 103q-37 -44 -63.5 -94t-45.5 -103q-8 -25 -15.5 -51.5t-11 -54.5t-2.5 -55zM345 997 q0 35 23.5 59t57.5 24q35 0 59 -24t24 -59q0 -34 -24 -57.5t-59 -23.5q-34 0 -57.5 23.5t-23.5 57.5zM430 415q3 -46 22.5 -95.5t62.5 -75.5q23 48 38 100t20 104q1 15 2 43.5t-3.5 56.5t-17.5 47.5t-39 16.5q-29 -3 -45.5 -26t-23.5 -48q-19 -60 -16 -123zM564 997 q0 35 23 59t57 24q35 0 59.5 -24t24.5 -59q0 -34 -24 -57.5t-60 -23.5q-34 0 -57 23.5t-23 57.5z" />
<glyph unicode="&#xf7;" horiz-adv-x="604" d="M8 341q-3 23 23 41t63 19h6l416 -13q29 -1 48 -14.5t19 -30.5q-1 -19 -20.5 -31t-46.5 -13l-415 -14q-38 -1 -64.5 15.5t-28.5 40.5zM169 81q0 35 23.5 59t57.5 24q35 0 59 -24t24 -59q0 -34 -24 -57.5t-59 -23.5q-34 0 -57.5 23.5t-23.5 57.5zM251 587q0 35 23.5 59 t57.5 24q35 0 59 -23.5t24 -59.5q0 -34 -24 -57t-59 -23q-34 0 -57.5 23t-23.5 57z" />
<glyph unicode="&#xf8;" horiz-adv-x="750" d="M-67 -414q-1 6 1 11l194 331q-48 20 -80.5 61.5t-44.5 97.5q-18 78 -6.5 158t36.5 154q26 75 65 145t96 126q38 35 89.5 61.5t104.5 19.5q12 -3 23.5 -7t22.5 -12q4 -4 9 -8t8 -10q4 -5 4.5 -6.5t7.5 -0.5l14 3q26 3 52.5 0t49.5 -16l91 154q11 18 31 23.5t39 -4.5 q20 -10 27 -28t-4 -36q0 -1 -1 -3l-123 -187q11 -34 11.5 -71.5t-1.5 -70.5q-7 -63 -25 -123t-44 -117q53 7 97.5 36t81.5 65q7 7 15 16.5t18 11.5q11 1 17.5 -5.5t4.5 -15.5q-1 -11 -11.5 -23.5t-17.5 -21.5q-8 -11 -16.5 -20.5t-17.5 -19.5q-33 -37 -74.5 -67t-92.5 -41 q-12 -3 -25 -4t-25 0q-7 -11 -13 -20.5t-13 -20.5q-15 -22 -31 -42.5t-35 -39.5q-46 -48 -105.5 -78.5t-128.5 -29.5q-7 0 -13.5 1t-12.5 2l-217 -332q-3 -7 -10 -7.5t-14 2.5t-8 9zM131 131q1 -27 11 -52q7 -19 19 -30.5t29 -18.5l135 231q-35 49 -50.5 108.5t-5.5 119.5 q-37 -44 -63.5 -94t-45.5 -103q-8 -25 -15.5 -51.5t-11 -54.5t-2.5 -55zM254 23q22 3 40 8q52 15 93.5 49t72.5 76q-25 8 -46.5 21t-40.5 29zM430 440l101 170q-5 2 -16 2q-29 -3 -45.5 -26t-23.5 -48q-14 -46 -16 -98zM451 325q11 -25 26 -46t38 -35q23 48 38 100t20 104 q1 11 2 28.5t0 38.5z" />
<glyph unicode="&#xf9;" horiz-adv-x="817" d="M-26 184q11 74 30 142q20 78 49.5 154t65.5 149q10 20 20 43t25 41q19 23 47 31t55 -1q27 -10 45.5 -33t21.5 -53q1 -20 -6.5 -37.5t-16.5 -35.5q-45 -86 -86 -176q-33 -70 -63.5 -143.5t-40.5 -151.5q-1 -11 -2.5 -25t0.5 -26.5t9 -22t22 -10.5q30 -7 58 5t51 30 q29 25 50.5 55t41.5 63q19 33 36 72q3 19 6.5 37.5t7.5 37.5q16 79 38.5 157t50.5 154q8 23 17 46t29 38q23 18 52 20.5t55 -12.5q25 -15 37.5 -41t8.5 -55q-3 -19 -11 -36t-15 -35q-31 -75 -61 -151.5t-54 -154.5q-11 -38 -20.5 -77t-11.5 -78q0 -5 -1.5 -17.5t0 -25 t5 -21.5t12.5 -7q8 -1 18.5 3t20.5 10.5t18.5 13.5t14.5 12q41 35 73 70q29 31 55.5 62.5t52.5 64.5q5 5 12.5 17.5t16.5 22t19 13t20 -6.5q10 -11 3.5 -24.5t-13.5 -24.5l-24 -49q-19 -35 -40.5 -69.5t-44.5 -66.5q-18 -26 -39 -54t-45.5 -51.5t-54 -40.5t-63.5 -20 q-35 -3 -66.5 11.5t-52.5 44.5q-22 31 -29.5 68t-7.5 74q-16 -33 -36.5 -65t-46.5 -57.5t-58 -43.5t-70 -23q-25 -3 -49.5 -1.5t-47.5 11.5q-33 15 -53.5 43.5t-31.5 62.5q-19 70 -8 144zM141 1085q8 35 38.5 53t66.5 9q10 -5 19 -7l407 -229q10 -5 13 -15t-2 -19 q-4 -8 -12.5 -11.5t-16.5 -1.5l-452 118q-35 11 -53 40t-8 63z" />
<glyph unicode="&#xfa;" horiz-adv-x="817" d="M-26 184q11 74 30 142q20 78 49.5 154t65.5 149q10 20 20 43t25 41q19 23 47 31t55 -1q27 -10 45.5 -33t21.5 -53q1 -20 -6.5 -37.5t-16.5 -35.5q-45 -86 -86 -176q-33 -70 -63.5 -143.5t-40.5 -151.5q-1 -11 -2.5 -25t0.5 -26.5t9 -22t22 -10.5q30 -7 58 5t51 30 q29 25 50.5 55t41.5 63q19 33 36 72q3 19 6.5 37.5t7.5 37.5q16 79 38.5 157t50.5 154q8 23 17 46t29 38q23 18 52 20.5t55 -12.5q25 -15 37.5 -41t8.5 -55q-3 -19 -11 -36t-15 -35q-31 -75 -61 -151.5t-54 -154.5q-11 -38 -20.5 -77t-11.5 -78q0 -5 -1.5 -17.5t0 -25 t5 -21.5t12.5 -7q8 -1 18.5 3t20.5 10.5t18.5 13.5t14.5 12q41 35 73 70q29 31 55.5 62.5t52.5 64.5q5 5 12.5 17.5t16.5 22t19 13t20 -6.5q10 -11 3.5 -24.5t-13.5 -24.5l-24 -49q-19 -35 -40.5 -69.5t-44.5 -66.5q-18 -26 -39 -54t-45.5 -51.5t-54 -40.5t-63.5 -20 q-35 -3 -66.5 11.5t-52.5 44.5q-22 31 -29.5 68t-7.5 74q-16 -33 -36.5 -65t-46.5 -57.5t-58 -43.5t-70 -23q-25 -3 -49.5 -1.5t-47.5 11.5q-33 15 -53.5 43.5t-31.5 62.5q-19 70 -8 144zM233.5 888.5q2.5 8.5 9.5 13.5l381 271q31 20 65.5 14.5t53.5 -33.5q22 -29 16.5 -64 t-37.5 -56q-10 -5 -17 -11l-437 -164q-11 -3 -20.5 0.5t-12.5 12.5q-4 8 -1.5 16.5z" />
<glyph unicode="&#xfb;" horiz-adv-x="817" d="M-26 184q11 74 30 142q20 78 49.5 154t65.5 149q10 20 20 43t25 41q19 23 47 31t55 -1q27 -10 45.5 -33t21.5 -53q1 -20 -6.5 -37.5t-16.5 -35.5q-45 -86 -86 -176q-33 -70 -63.5 -143.5t-40.5 -151.5q-1 -11 -2.5 -25t0.5 -26.5t9 -22t22 -10.5q30 -7 58 5t51 30 q29 25 50.5 55t41.5 63q19 33 36 72q3 19 6.5 37.5t7.5 37.5q16 79 38.5 157t50.5 154q8 23 17 46t29 38q23 18 52 20.5t55 -12.5q25 -15 37.5 -41t8.5 -55q-3 -19 -11 -36t-15 -35q-31 -75 -61 -151.5t-54 -154.5q-11 -38 -20.5 -77t-11.5 -78q0 -5 -1.5 -17.5t0 -25 t5 -21.5t12.5 -7q8 -1 18.5 3t20.5 10.5t18.5 13.5t14.5 12q41 35 73 70q29 31 55.5 62.5t52.5 64.5q5 5 12.5 17.5t16.5 22t19 13t20 -6.5q10 -11 3.5 -24.5t-13.5 -24.5l-24 -49q-19 -35 -40.5 -69.5t-44.5 -66.5q-18 -26 -39 -54t-45.5 -51.5t-54 -40.5t-63.5 -20 q-35 -3 -66.5 11.5t-52.5 44.5q-22 31 -29.5 68t-7.5 74q-16 -33 -36.5 -65t-46.5 -57.5t-58 -43.5t-70 -23q-25 -3 -49.5 -1.5t-47.5 11.5q-33 15 -53.5 43.5t-31.5 62.5q-19 70 -8 144zM213.5 889q-7.5 29 6.5 56q7 12 15.5 20t19.5 17l100 69l214 150q12 8 22.5 7.5 t18.5 -7t14.5 -17t11.5 -19.5l75 -125l58 -95q11 -16 10 -35.5t-16 -34.5q-20 -22 -49.5 -15.5t-40.5 33.5l-91 228l-127 -150l-86 -103q-4 -5 -8.5 -10.5t-9.5 -9.5q-23 -20 -53 -22.5t-54 15.5q-23 19 -30.5 48z" />
<glyph unicode="&#xfc;" horiz-adv-x="817" d="M-26 184q11 74 30 142q20 78 49.5 154t65.5 149q10 20 20 43t25 41q19 23 47 31t55 -1q27 -10 45.5 -33t21.5 -53q1 -20 -6.5 -37.5t-16.5 -35.5q-45 -86 -86 -176q-33 -70 -63.5 -143.5t-40.5 -151.5q-1 -11 -2.5 -25t0.5 -26.5t9 -22t22 -10.5q30 -7 58 5t51 30 q29 25 50.5 55t41.5 63q19 33 36 72q3 19 6.5 37.5t7.5 37.5q16 79 38.5 157t50.5 154q8 23 17 46t29 38q23 18 52 20.5t55 -12.5q25 -15 37.5 -41t8.5 -55q-3 -19 -11 -36t-15 -35q-31 -75 -61 -151.5t-54 -154.5q-11 -38 -20.5 -77t-11.5 -78q0 -5 -1.5 -17.5t0 -25 t5 -21.5t12.5 -7q8 -1 18.5 3t20.5 10.5t18.5 13.5t14.5 12q41 35 73 70q29 31 55.5 62.5t52.5 64.5q5 5 12.5 17.5t16.5 22t19 13t20 -6.5q10 -11 3.5 -24.5t-13.5 -24.5l-24 -49q-19 -35 -40.5 -69.5t-44.5 -66.5q-18 -26 -39 -54t-45.5 -51.5t-54 -40.5t-63.5 -20 q-35 -3 -66.5 11.5t-52.5 44.5q-22 31 -29.5 68t-7.5 74q-16 -33 -36.5 -65t-46.5 -57.5t-58 -43.5t-70 -23q-25 -3 -49.5 -1.5t-47.5 11.5q-33 15 -53.5 43.5t-31.5 62.5q-19 70 -8 144zM314 964q0 35 23 59t58 24t59 -24t24 -59q0 -34 -24 -57.5t-59 -23.5 q-34 0 -57.5 23.5t-23.5 57.5zM532 964q0 35 23.5 59t57.5 24q35 0 59 -24t24 -59q0 -34 -23.5 -57.5t-59.5 -23.5q-34 0 -57.5 23.5t-23.5 57.5z" />
<glyph unicode="&#xfd;" horiz-adv-x="764" d="M-132 -492.5q-8 37.5 2 77.5q12 53 42.5 95.5t71.5 77t87 63.5t90 55l133 76q7 4 9.5 15t5.5 19l16 56l35 120q-40 -49 -93 -77t-115 -25q-35 0 -66 15t-53 44q-19 27 -27.5 59t-9.5 65q-1 76 21.5 150t52.5 144q15 35 32 68.5t36 66.5q12 22 25.5 41.5t38.5 29.5 q30 12 58 4t46.5 -28t25.5 -48t-7 -57q-7 -14 -14.5 -25t-14.5 -24l-49 -88q-19 -34 -36 -69t-32 -72q-14 -31 -25 -66t-8 -71q1 -12 9.5 -19.5t20 -11t24.5 -4t24 0.5q37 5 68.5 28t54.5 50q19 23 36.5 50.5t24.5 57.5q11 41 20.5 81t19.5 81q8 40 16 78t18 78 q7 31 29.5 50.5t49 24t54 -5.5t43.5 -39q19 -34 10 -72.5t-17 -73.5q-27 -116 -58.5 -229.5t-66.5 -227.5q38 27 75 56.5t71 61.5q37 34 63 69q4 4 9.5 12.5t11.5 16t13 12.5t13 2q11 -4 12 -13.5t-4.5 -19.5t-12.5 -19.5t-10 -14.5q-22 -35 -50 -71q-30 -35 -62 -68 t-68 -64l-63 -53l-30 -23q-8 -7 -10.5 -12t-5.5 -16q-15 -40 -29.5 -78t-29.5 -77q-30 -74 -64 -146.5t-81 -137.5q-22 -31 -47.5 -60t-58.5 -48q-31 -19 -66 -26t-71 -4q-37 4 -71 19.5t-58 45.5q-26 30 -34 67.5zM1 -442q-3 -14 3 -23t15.5 -13t21 -4.5t22.5 0.5 q26 5 43 23.5t32 39.5q35 51 60 106.5t46 113.5q-40 -27 -79 -56t-75 -60q-27 -23 -54.5 -56t-34.5 -71zM284 923q3 8 10 14l380 270q31 20 65.5 15t53.5 -34q22 -29 16.5 -63.5t-36.5 -56.5q-10 -5 -18 -11l-437 -164q-11 -3 -20.5 0.5t-12.5 13.5q-4 8 -1 16z" />
<glyph unicode="&#xfe;" horiz-adv-x="793" d="M-355 -631q3 66 20 129.5t39 124.5q23 70 50 136t62 132q33 61 66 121t61 125q7 15 13.5 30.5t9.5 30.5l15 68q5 25 19.5 93t33.5 157.5t41 191.5t41 191.5t33.5 157.5t19.5 93l29 116q5 22 15.5 40t29.5 29q26 15 56 11.5t52 -23.5q18 -16 23.5 -38.5t4.5 -47.5 t-5.5 -49.5t-8.5 -44.5q-3 -12 -14 -68t-26.5 -134t-33.5 -167t-34.5 -166.5t-27.5 -133.5t-13 -68l23 42q19 33 40 65t45 63q23 31 49 60t58 49q26 16 56 22t59 2t56 -18t49 -36q27 -27 43.5 -62t25 -73t9 -77t-4.5 -76q-11 -68 -38 -130t-68 -118q61 45 108.5 102.5 t81.5 123.5q7 11 20.5 11t18.5 -15q3 -14 -8.5 -33t-17.5 -29q-19 -31 -40 -61.5t-45 -57.5q-98 -111 -236 -174q-16 -8 -32.5 -14.5t-33.5 -15.5q-15 -7 -31.5 -13.5t-33.5 -10.5q-34 -8 -69 -5t-64 27q-30 23 -42 58.5t-14 72.5v14.5t2 18.5t7.5 14t16.5 0q10 -4 12.5 -16 t5.5 -20q5 -16 13.5 -33.5t20.5 -29t28 -16.5t36 3q35 14 61.5 42.5t45.5 60.5q37 61 63.5 128.5t42.5 136.5q8 35 12.5 72t-2.5 72q-3 19 -12.5 36.5t-28.5 21.5q-15 5 -33.5 -6t-29.5 -17q-15 -11 -29.5 -23t-27.5 -25q-29 -27 -54.5 -58.5t-48.5 -63.5q-49 -66 -90 -135 q-11 -19 -15 -40t-8 -43l-19 -79q-34 -145 -72.5 -287.5t-91.5 -280.5q-27 -70 -67 -137.5t-102 -111.5q-23 -16 -52 -26.5t-59 -3.5q-40 10 -51.5 45.5t-8.5 70.5zM-298 -623l2 -16t4 -16q1 -1 5 -9.5t6 -5.5q3 7 -0.5 4.5t2.5 1.5q10 7 16 16t12 19q12 22 21.5 46.5 t17.5 47.5q10 26 19.5 51t16.5 51q20 64 34 129t29 131q-10 -11 -18.5 -23.5t-15.5 -24.5q-79 -120 -125 -257q-7 -19 -12 -39.5t-10 -40.5q-7 -31 -4 -65z" />
<glyph unicode="&#xff;" horiz-adv-x="764" d="M-132 -492.5q-8 37.5 2 77.5q12 53 42.5 95.5t71.5 77t87 63.5t90 55l133 76q7 4 9.5 15t5.5 19l16 56l35 120q-40 -49 -93 -77t-115 -25q-35 0 -66 15t-53 44q-19 27 -27.5 59t-9.5 65q-1 76 21.5 150t52.5 144q15 35 32 68.5t36 66.5q12 22 25.5 41.5t38.5 29.5 q30 12 58 4t46.5 -28t25.5 -48t-7 -57q-7 -14 -14.5 -25t-14.5 -24l-49 -88q-19 -34 -36 -69t-32 -72q-14 -31 -25 -66t-8 -71q1 -12 9.5 -19.5t20 -11t24.5 -4t24 0.5q37 5 68.5 28t54.5 50q19 23 36.5 50.5t24.5 57.5q11 41 20.5 81t19.5 81q8 40 16 78t18 78 q7 31 29.5 50.5t49 24t54 -5.5t43.5 -39q19 -34 10 -72.5t-17 -73.5q-27 -116 -58.5 -229.5t-66.5 -227.5q38 27 75 56.5t71 61.5q37 34 63 69q4 4 9.5 12.5t11.5 16t13 12.5t13 2q11 -4 12 -13.5t-4.5 -19.5t-12.5 -19.5t-10 -14.5q-22 -35 -50 -71q-30 -35 -62 -68 t-68 -64l-63 -53l-30 -23q-8 -7 -10.5 -12t-5.5 -16q-15 -40 -29.5 -78t-29.5 -77q-30 -74 -64 -146.5t-81 -137.5q-22 -31 -47.5 -60t-58.5 -48q-31 -19 -66 -26t-71 -4q-37 4 -71 19.5t-58 45.5q-26 30 -34 67.5zM1 -442q-3 -14 3 -23t15.5 -13t21 -4.5t22.5 0.5 q26 5 43 23.5t32 39.5q35 51 60 106.5t46 113.5q-40 -27 -79 -56t-75 -60q-27 -23 -54.5 -56t-34.5 -71zM300 971q0 35 23.5 59t57.5 24q35 0 59 -24t24 -59q0 -34 -24 -57.5t-59 -23.5q-34 0 -57.5 23.5t-23.5 57.5zM519 971q0 35 23 59t57 24q35 0 59.5 -24t24.5 -59 q0 -34 -24 -57.5t-60 -23.5q-34 0 -57 23.5t-23 57.5z" />
<glyph unicode="&#x152;" horiz-adv-x="1757" d="M8 477q11 162 65 319.5t145 293.5q42 63 95.5 121.5t117 103t136 71t153.5 27.5q26 0 49 -9t38 -30q16 -23 17 -53.5t-14 -54.5q-15 -22 -36.5 -32.5t-47.5 -11.5q-61 -1 -121 -30q-70 -31 -126.5 -85t-100.5 -116q-45 -64 -80.5 -133t-62.5 -143q-27 -78 -45 -157.5 t-21 -161.5q-1 -37 1 -76t11 -76.5t24.5 -71.5t42.5 -61q45 -45 108 -56t125 -3q78 12 142.5 53t116.5 98q-56 38 -97 93.5t-70 117.5q-60 124 -72 263q-5 63 1 132.5t28.5 134t63.5 117t105 82.5q27 14 59.5 21t65 6.5t64 -10t55.5 -30.5q1 -1 2 -2.5t4 -2.5q51 76 127 131 q66 46 140 72t152 35q76 8 159 1t152 -41q70 -35 108 -98.5t34 -141.5q-5 -81 -48 -148.5t-105 -115.5q-30 -23 -63.5 -42t-68.5 -34q-25 -11 -55 -22t-57 -11q-30 0 -52 21t-24 51q-3 29 14 50t44 30q67 19 132 49.5t111 85.5q25 30 40 64.5t12 74.5q-1 40 -17.5 74.5 t-46.5 60.5q-29 26 -63.5 39.5t-72 17t-76 -1t-73.5 -15.5q-74 -22 -131.5 -69t-96.5 -112q-41 -66 -65 -144t-15 -156q4 -35 19.5 -68t43.5 -56q15 -12 31 -21t33 -16q5 -1 17 -7q5 -1 7 -0.5t8 0.5q14 0 23 -9q11 -11 8.5 -27t-17.5 -23q-5 -3 -11 -4t-13 -4 q-35 -11 -69 -24.5t-66 -33.5q-66 -44 -100 -110.5t-31 -143.5q3 -76 37.5 -143.5t108.5 -97.5q61 -25 133 -24.5t135 13.5q76 15 146.5 48t130.5 83q29 26 54.5 55t47.5 62q7 10 14 22.5t22 9.5q14 -3 14.5 -14.5t-5.5 -22.5q-40 -67 -94 -120t-119 -92.5t-137.5 -67 t-146.5 -40.5q-60 -12 -119 -17t-121 6q-74 14 -136.5 54.5t-102.5 104.5l-9 15q-5 -7 -11 -12t-13 -12q-56 -56 -123.5 -95t-145.5 -55q-61 -12 -125 -9.5t-123 26.5q-72 31 -120.5 90t-74.5 132q-26 71 -33 145t-3 150zM674.5 665q-0.5 -83 14.5 -164q7 -38 19.5 -75.5 t31.5 -71.5q14 86 62 158.5t126 116.5q11 5 20 10t20 10q-34 30 -54.5 69.5t-30 82.5t-9 88t10.5 89l8 30q-10 10 -21.5 14.5t-26.5 1.5q-34 -4 -59.5 -24t-43.5 -48.5t-30 -61.5t-18 -61q-19 -81 -19.5 -164z" />
<glyph unicode="&#x153;" horiz-adv-x="1302" d="M-3.5 245q11.5 80 36.5 154q26 75 65 145t96 126q38 35 89.5 61.5t104.5 19.5q12 -3 23.5 -7t22.5 -12q4 -4 9 -8t8 -10q4 -5 4.5 -6.5t7.5 -0.5l14 3q27 4 55.5 0t53.5 -21q31 -23 46 -57t18 -72q59 71 135 117q30 19 65.5 32t71.5 16t71 -6.5t65 -35.5t46.5 -59.5 t22 -70.5t0 -75t-19.5 -72q-26 -74 -82 -129q-25 -23 -53.5 -37.5t-60.5 -21.5q-37 -10 -74.5 -9t-72.5 12t-63.5 33t-49.5 56q0 -25 2 -51t8.5 -51.5t17 -49t28.5 -41.5t41 -28t49 -14t53 -3.5t50 3.5q57 7 107.5 29.5t98.5 52.5q45 29 86.5 62.5t81.5 68.5q7 7 13 14 t13 13q11 11 24.5 3t8.5 -23q-3 -7 -8 -13t-9 -13q-11 -15 -23 -30.5t-25 -30.5q-51 -61 -107 -116t-122 -100q-64 -44 -137 -74.5t-154 -21.5q-78 8 -138 56.5t-87 122.5q-3 8 -5.5 16.5t-5.5 16.5l-4 -7q-15 -22 -31 -42.5t-35 -39.5q-46 -48 -105.5 -78.5t-128.5 -29.5 q-79 3 -133.5 51.5t-71.5 124.5q-18 78 -6.5 158zM131 131q1 -27 11 -52q8 -23 25 -36t38.5 -17t44.5 -2t44 7q52 15 93.5 48.5t72.5 76.5q-49 18 -88 53t-65 80.5t-36 96.5t-2 103q-37 -44 -63.5 -94t-45.5 -103q-8 -25 -15.5 -51.5t-11 -54.5t-2.5 -55zM430 415 q1 -22 6.5 -46t14.5 -46.5t23.5 -41.5t33.5 -33q7 45 21.5 89t33.5 85q3 5 5.5 10t4.5 10v6q1 15 2 43.5t-3.5 56.5t-17.5 47t-39 17q-29 -3 -45.5 -26t-23.5 -48q-19 -60 -16 -123zM654 359q23 -16 49 -27t53 -13q34 -3 65.5 9.5t59.5 30.5q16 11 27.5 26.5t19.5 35.5 q27 57 21 124q-1 11 -3.5 22.5t-10.5 19.5q-10 10 -22.5 14t-26.5 7q-31 5 -60 -3t-53.5 -26t-44 -42.5t-33.5 -50.5q-30 -59 -41 -127z" />
<glyph unicode="&#x178;" horiz-adv-x="1137" d="M-70.5 996.5q-3.5 39.5 2.5 78.5q11 70 49 126.5t87 102.5q57 51 125.5 85t146.5 31q76 -3 135.5 -46t85.5 -114q22 -57 20.5 -118.5t-16.5 -121.5q-19 -74 -51 -143t-65 -138q-11 -23 -20.5 -46t-12.5 -46q-5 -40 15.5 -65.5t58.5 -34.5q35 -8 71.5 -2.5t70.5 19.5 t65.5 34t58.5 42q60 49 102 116t73 138q30 66 51 138q11 40 17 81t10 82q3 20 4 40t3 39q3 31 15 53q16 25 43.5 37t55.5 7q29 -5 49.5 -26t27.5 -49q4 -20 0 -39.5t-11 -38.5q-64 -242 -152 -481q-56 -149 -122.5 -294t-165.5 -274q-46 -61 -103.5 -113t-129.5 -83 q-71 -30 -150 -31.5t-153 18.5q-76 20 -131.5 73.5t-74.5 131.5q-10 40 -8.5 80t13.5 80q11 31 31 64t51 49q29 16 59 11t50.5 -25t28.5 -49.5t-6 -59.5q-12 -27 -25 -51t-20 -54q-7 -37 1 -75t34 -67t60 -43t72 -16t75.5 5.5t70.5 22.5q70 33 123 89.5t94 119.5 q90 138 144 293.5t90 313.5q-35 -111 -99 -205.5t-166 -153.5q-52 -30 -110 -46.5t-120 -9.5q-59 7 -107 39t-73 88q-27 66 -19 135.5t30 133.5q26 74 62 141t66 138q12 27 18 58.5t1.5 61t-20 54.5t-45.5 41q-33 18 -69.5 19.5t-72 -9.5t-68 -30.5t-56.5 -45.5 q-23 -25 -37 -58t-18.5 -69t-0.5 -72t16 -66q5 -15 15 -28t18 -26t12 -27.5t0 -32.5q-7 -30 -32 -45.5t-55 -8.5q-15 4 -27.5 13.5t-21 22.5t-15.5 27.5t-11 27.5q-14 37 -17.5 76.5zM655 1582q0 35 23.5 59.5t57.5 24.5q35 0 59 -24t24 -60q0 -34 -24 -57t-59 -23 q-34 0 -57.5 23t-23.5 57zM874 1582q0 35 23 59.5t57 24.5q35 0 59.5 -24t24.5 -60q0 -34 -24 -57t-60 -23q-34 0 -57 23t-23 57z" />
<glyph unicode="&#x2c6;" horiz-adv-x="567" d="M-0.5 805.5q-7.5 28.5 5.5 56.5q7 12 16 20t20 16l100 70l214 150q12 8 22.5 7.5t18.5 -7.5t14 -17l12 -20l75 -124l57 -95q11 -16 10.5 -35.5t-15.5 -34.5q-20 -22 -49.5 -16t-40.5 34l-92 228l-127 -151l-86 -102q-4 -5 -8 -10.5t-9 -9.5q-23 -20 -53.5 -22.5 t-53.5 15.5q-23 19 -30.5 47.5z" />
<glyph unicode="&#x2dc;" horiz-adv-x="614" d="M11 926q14 29 31 56.5t39.5 51t49 41t57.5 25.5q63 15 115 -12t92 -72q11 -11 21 -21.5t22 -18.5q12 -10 26.5 -5.5t27.5 14t24.5 21t20.5 19.5q10 8 18.5 15t20.5 4q18 -1 28 -14t8 -29q-3 -30 -16 -59.5t-31 -52.5q-35 -45 -86.5 -59t-104.5 6q-38 14 -65.5 39 t-54.5 52q-11 10 -22 16t-26 2q-25 -10 -46 -25.5t-41 -30.5q-15 -11 -33 -24t-40 -9q-23 4 -34.5 26t-0.5 44z" />
<glyph unicode="&#x2000;" horiz-adv-x="922" />
<glyph unicode="&#x2001;" horiz-adv-x="1845" />
<glyph unicode="&#x2002;" horiz-adv-x="922" />
<glyph unicode="&#x2003;" horiz-adv-x="1845" />
<glyph unicode="&#x2004;" horiz-adv-x="615" />
<glyph unicode="&#x2005;" horiz-adv-x="461" />
<glyph unicode="&#x2006;" horiz-adv-x="307" />
<glyph unicode="&#x2007;" horiz-adv-x="307" />
<glyph unicode="&#x2008;" horiz-adv-x="230" />
<glyph unicode="&#x2009;" horiz-adv-x="369" />
<glyph unicode="&#x200a;" horiz-adv-x="102" />
<glyph unicode="&#x2010;" d="M13 409q5 27 28 46t48.5 17.5t51.5 -4.5q78 -10 153.5 -18.5t151.5 -19.5l100 -12q5 0 10 -1t11 -1q10 -1 15 -8.5t5 -15.5t-4.5 -16t-15.5 -9q-116 -15 -231.5 -29t-231.5 -29q-30 -4 -52.5 11t-33 38.5t-5.5 50.5z" />
<glyph unicode="&#x2011;" d="M13 409q5 27 28 46t48.5 17.5t51.5 -4.5q78 -10 153.5 -18.5t151.5 -19.5l100 -12q5 0 10 -1t11 -1q10 -1 15 -8.5t5 -15.5t-4.5 -16t-15.5 -9q-116 -15 -231.5 -29t-231.5 -29q-30 -4 -52.5 11t-33 38.5t-5.5 50.5z" />
<glyph unicode="&#x2012;" d="M13 409q5 27 28 46t48.5 17.5t51.5 -4.5q78 -10 153.5 -18.5t151.5 -19.5l100 -12q5 0 10 -1t11 -1q10 -1 15 -8.5t5 -15.5t-4.5 -16t-15.5 -9q-116 -15 -231.5 -29t-231.5 -29q-30 -4 -52.5 11t-33 38.5t-5.5 50.5z" />
<glyph unicode="&#x2013;" horiz-adv-x="798" d="M8 390q-3 23 23 41t63 20h6l580 -14q29 -1 48 -14t19 -31q-1 -19 -20.5 -30.5t-46.5 -13.5l-579 -13q-38 -1 -64.5 15t-28.5 40z" />
<glyph unicode="&#x2014;" horiz-adv-x="1029" d="M8 390q-3 23 23 41t63 20h6l820 -14q29 -1 48 -14t19 -31q-1 -19 -20 -30.5t-47 -13.5l-819 -13q-38 -1 -64.5 15t-28.5 40z" />
<glyph unicode="&#x2018;" horiz-adv-x="251" d="M38 649q-7 29 5.5 67.5t35.5 81t52.5 83.5t58 71.5t52 47.5t34.5 13q8 -4 -5 -25t-33.5 -54.5t-41 -78t-27.5 -95.5q15 -5 28 -18t21.5 -31.5t9 -40t-7.5 -43.5q-12 -30 -38 -46.5t-55 -15t-54 21t-35 62.5z" />
<glyph unicode="&#x2019;" horiz-adv-x="226" d="M27 569q-8 4 5 25.5t33.5 55t41 77.5t27.5 95q-15 5 -28 18t-21.5 31.5t-9 40t7.5 44.5q12 30 38 46.5t55 15t54 -21.5t35 -62q7 -29 -5.5 -68t-35.5 -81t-52.5 -83t-58 -72t-52.5 -48.5t-34 -12.5z" />
<glyph unicode="&#x201a;" horiz-adv-x="233" d="M-48 -246q-8 4 5 25.5t33.5 55t41 77.5t27.5 95q-15 5 -28 18t-21.5 31.5t-9 39.5t7.5 45q12 30 38 46t55 15t54 -21t35 -62q7 -29 -5.5 -68t-35.5 -81t-52.5 -83t-58 -72t-52.5 -48.5t-34 -12.5z" />
<glyph unicode="&#x201c;" horiz-adv-x="460" d="M38 649q-7 29 5.5 67.5t35.5 81t52.5 83.5t58 71.5t52 47.5t34.5 13q8 -4 -5 -25t-33.5 -54.5t-41 -78t-27.5 -95.5q15 -5 28 -18t21.5 -31.5t9 -40t-7.5 -43.5q-12 -30 -38 -46.5t-55 -15t-54 21t-35 62.5zM268 646q-7 29 5 67.5t35.5 81t52.5 83.5t58 71.5t52 47.5 t34 13q8 -4 -5 -25t-33.5 -54.5t-40.5 -77.5t-27 -95q15 -5 28 -18.5t21 -32t8.5 -40t-7.5 -43.5q-12 -30 -38 -46.5t-54.5 -15t-54 21t-34.5 62.5z" />
<glyph unicode="&#x201d;" horiz-adv-x="460" d="M35 568q-8 4 5 25t33.5 54.5t41 78t27.5 95.5q-15 5 -28 18t-21 31.5t-9 39.5t7 44q12 30 38.5 46.5t55 15t54 -21t34.5 -61.5q7 -29 -5.5 -68t-35.5 -81.5t-52.5 -83.5t-58 -71.5t-52.5 -48t-34 -12.5zM265 565q-8 4 5 25.5t33.5 55t40.5 77.5t27 95q-15 5 -28 18 t-21 31.5t-8.5 39.5t7.5 45q12 30 38 46t54.5 15t54 -21t34.5 -62q7 -29 -5 -68t-35.5 -81t-52.5 -83t-58 -72t-53 -48.5t-33 -12.5z" />
<glyph unicode="&#x201e;" horiz-adv-x="475" d="M-46 -248q-8 4 4.5 25t33 54.5t41 77.5t27.5 95q-15 5 -28 18t-21 31.5t-9 40t8 44.5q12 30 38 46.5t54.5 15t54 -21.5t34.5 -62q7 -29 -5.5 -67.5t-35.5 -81t-52.5 -83.5t-58 -71.5t-52.5 -48.5t-33 -12zM183 -248q-8 4 5 25t33.5 54.5t40.5 77.5t27 95q-15 5 -28 18 t-21 31.5t-8.5 40t7.5 44.5q12 30 38 46.5t54.5 15t54 -21.5t35.5 -62q7 -29 -5.5 -67.5t-36 -81t-52.5 -83.5t-58 -71.5t-52.5 -48.5t-33.5 -12z" />
<glyph unicode="&#x2022;" horiz-adv-x="308" d="M0 359q0 56 37 94.5t91 38.5q56 0 93.5 -38.5t37.5 -94.5q0 -27 -10 -49.5t-28 -40.5t-41.5 -27.5t-51.5 -9.5q-55 0 -91.5 37t-36.5 90z" />
<glyph unicode="&#x2026;" horiz-adv-x="692" d="M0 81q0 35 23 59t58 24t59 -24t24 -59q0 -34 -24 -57.5t-59 -23.5q-34 0 -57.5 23.5t-23.5 57.5zM231 81q0 35 23 59t57 24q35 0 59.5 -24t24.5 -59q0 -34 -24 -57.5t-60 -23.5q-34 0 -57 23.5t-23 57.5zM461 81q0 35 23.5 59t57.5 24q35 0 59 -24t24 -59 q0 -34 -23.5 -57.5t-59.5 -23.5q-34 0 -57.5 23.5t-23.5 57.5z" />
<glyph unicode="&#x202f;" horiz-adv-x="369" />
<glyph unicode="&#x2039;" horiz-adv-x="472" d="M15.5 296.5q0.5 10.5 9.5 18.5l-2 2l284 276q3 3 5.5 4t5.5 4q25 15 52 8t42 -30q15 -26 9.5 -52.5t-31.5 -43.5l-301 -189l214 -134q1 -1 2.5 -1.5t3.5 -1.5q15 -12 16 -30.5t-10 -33.5q-12 -15 -31 -16.5t-34 9.5l-224 188q-1 3 -4 2q-7 10 -6.5 20.5z" />
<glyph unicode="&#x203a;" horiz-adv-x="472" d="M23.5 164.5q5.5 26.5 31.5 43.5l301 189l-214 134q-1 1 -2.5 1t-2.5 2q-15 12 -16.5 30.5t9.5 33.5q12 15 31 16.5t34 -9.5l224 -189q1 -3 4 -1q16 -20 -2 -40l1 -1l-284 -276q-3 -3 -5.5 -4t-5.5 -4q-25 -15 -52 -8t-42 30q-15 26 -9.5 52.5z" />
<glyph unicode="&#x205f;" horiz-adv-x="461" />
<glyph unicode="&#x20ac;" horiz-adv-x="1093" d="M8 336q-1 14 7 26q-7 66 -3 130t17 128q30 158 108 304q37 70 83 135t104 118q59 56 129.5 97t148 64t158.5 29.5t162 -7.5q38 -7 74 -20.5t67 -35t55.5 -50t37.5 -66.5q27 -74 9.5 -151t-62.5 -139q-45 -61 -109 -104t-135 -69q-23 -10 -50.5 -18.5t-53.5 -6.5 q-29 3 -50 24t-25 50q-4 30 11 56t42 37q22 10 45 16t47 15q33 12 66 31t62 42.5t50 53.5t29 67q8 38 0 74.5t-28.5 66t-50.5 51t-67 32.5q-76 22 -155.5 3.5t-143.5 -60.5q-66 -42 -117.5 -101.5t-94.5 -125.5q-44 -67 -75.5 -138.5t-53.5 -149.5q-30 -108 -40 -214 l351 -11q29 -1 48 -14t19 -31q-1 -19 -20.5 -31t-46.5 -13l-352 -12q0 -7 0.5 -13t0.5 -13l310 -10q29 -1 48 -14t19 -31q-1 -19 -20.5 -30.5t-46.5 -12.5l-293 -10q11 -44 28 -83t44 -73q46 -57 111.5 -78t136.5 -24q79 -3 155 13t147 51q67 34 125 84.5t96 116.5 q7 11 16.5 20.5t24.5 -1.5q10 -7 9 -17t-6 -20q-37 -61 -90 -115q-104 -106 -243 -161.5t-287 -66.5q-76 -7 -151 10.5t-138 62.5q-66 46 -107.5 113.5t-60.5 144.5q-3 11 -5 22t-5 21q-15 14 -15 32z" />
</font>
</defs>
</svg>
